<svg width="1207" height="928" viewBox="0 0 1207 928" fill="none" xmlns="http://www.w3.org/2000/svg">
<rect width="1207" height="928" fill="white" fill-opacity="0.8"/>
<rect width="163" height="163" transform="translate(937 74)" fill="#4353FE"/>
<g clip-path="url(#clip0)">
<path d="M1043.6 142.282C1043.6 142.282 1036.27 165.407 1035.67 167.316C1035.45 165.352 1030.08 123.848 1030.08 123.848C1017.59 123.848 1010.92 132.792 1007.39 142.228C1007.39 142.228 998.484 165.407 997.724 167.37C997.67 165.571 996.367 142.5 996.367 142.5C995.607 130.938 985.076 123.902 976.552 123.902L986.867 186.786C999.95 186.732 1007.01 177.842 1010.7 168.407C1010.7 168.407 1018.57 147.954 1018.9 147.027C1018.95 147.9 1024.54 186.786 1024.54 186.786C1037.68 186.786 1044.74 178.442 1048.54 169.334L1066.94 123.902C1053.97 123.902 1047.13 132.792 1043.6 142.282Z" fill="white"/>
</g>
<path d="M963.781 287H958.703L953.859 269.969C953.651 269.227 953.391 268.159 953.078 266.766C952.766 265.359 952.577 264.383 952.512 263.836C952.382 264.669 952.167 265.75 951.867 267.078C951.581 268.406 951.34 269.396 951.145 270.047L946.418 287H941.34L937.648 272.703L933.898 258.445H938.664L942.746 275.086C943.384 277.755 943.84 280.112 944.113 282.156C944.257 281.049 944.471 279.812 944.758 278.445C945.044 277.078 945.305 275.971 945.539 275.125L950.188 258.445H954.816L959.582 275.203C960.038 276.753 960.52 279.07 961.027 282.156C961.223 280.294 961.691 277.924 962.434 275.047L966.496 258.445H971.223L963.781 287ZM984.23 287.391C980.871 287.391 978.241 286.414 976.34 284.461C974.452 282.495 973.508 279.793 973.508 276.355C973.508 272.827 974.387 270.053 976.145 268.035C977.902 266.017 980.318 265.008 983.391 265.008C986.242 265.008 988.495 265.874 990.148 267.605C991.802 269.337 992.629 271.72 992.629 274.754V277.234H978.234C978.299 279.331 978.866 280.945 979.934 282.078C981.001 283.198 982.505 283.758 984.445 283.758C985.721 283.758 986.906 283.641 988 283.406C989.107 283.159 990.292 282.755 991.555 282.195V285.926C990.435 286.46 989.302 286.837 988.156 287.059C987.01 287.28 985.702 287.391 984.23 287.391ZM983.391 268.484C981.932 268.484 980.76 268.947 979.875 269.871C979.003 270.796 978.482 272.143 978.312 273.914H988.117C988.091 272.13 987.661 270.783 986.828 269.871C985.995 268.947 984.849 268.484 983.391 268.484ZM1008.88 265.008C1011.57 265.008 1013.67 265.984 1015.17 267.938C1016.68 269.891 1017.43 272.632 1017.43 276.16C1017.43 279.702 1016.67 282.462 1015.15 284.441C1013.62 286.408 1011.51 287.391 1008.8 287.391C1006.07 287.391 1003.94 286.408 1002.43 284.441H1002.12L1001.28 287H997.844V256.609H1002.43V263.836C1002.43 264.37 1002.41 265.164 1002.36 266.219C1002.3 267.273 1002.26 267.944 1002.24 268.23H1002.43C1003.89 266.082 1006.04 265.008 1008.88 265.008ZM1007.69 268.758C1005.84 268.758 1004.5 269.305 1003.68 270.398C1002.88 271.479 1002.46 273.296 1002.43 275.848V276.16C1002.43 278.79 1002.85 280.698 1003.68 281.883C1004.52 283.055 1005.88 283.641 1007.77 283.641C1009.39 283.641 1010.62 282.996 1011.46 281.707C1012.3 280.418 1012.73 278.556 1012.73 276.121C1012.73 271.212 1011.05 268.758 1007.69 268.758ZM1033.61 268.875H1028.33V287H1023.72V268.875H1020.17V266.727L1023.72 265.32V263.914C1023.72 261.362 1024.32 259.474 1025.52 258.25C1026.72 257.013 1028.55 256.395 1031.01 256.395C1032.62 256.395 1034.21 256.661 1035.77 257.195L1034.56 260.672C1033.43 260.307 1032.35 260.125 1031.32 260.125C1030.28 260.125 1029.52 260.451 1029.04 261.102C1028.57 261.74 1028.33 262.703 1028.33 263.992V265.398H1033.61V268.875ZM1041.87 287H1037.28V256.609H1041.87V287ZM1067.63 276.16C1067.63 279.689 1066.72 282.443 1064.91 284.422C1063.1 286.401 1060.58 287.391 1057.36 287.391C1055.34 287.391 1053.55 286.935 1052 286.023C1050.45 285.112 1049.26 283.803 1048.43 282.098C1047.6 280.392 1047.18 278.413 1047.18 276.16C1047.18 272.658 1048.08 269.923 1049.88 267.957C1051.67 265.991 1054.2 265.008 1057.47 265.008C1060.6 265.008 1063.07 266.017 1064.89 268.035C1066.72 270.04 1067.63 272.749 1067.63 276.16ZM1051.91 276.16C1051.91 281.147 1053.75 283.641 1057.43 283.641C1061.08 283.641 1062.9 281.147 1062.9 276.16C1062.9 271.225 1061.07 268.758 1057.39 268.758C1055.47 268.758 1054.07 269.396 1053.2 270.672C1052.34 271.948 1051.91 273.777 1051.91 276.16ZM1090.64 287L1087.84 276.922C1087.51 275.854 1086.89 273.374 1086.01 269.48H1085.83C1085.08 272.996 1084.48 275.49 1084.04 276.961L1081.16 287H1076.09L1070.03 265.398H1074.72L1077.47 276.043C1078.1 278.673 1078.54 280.926 1078.8 282.801H1078.92C1079.05 281.85 1079.24 280.763 1079.5 279.539C1079.78 278.302 1080.01 277.378 1080.21 276.766L1083.49 265.398H1088.53L1091.71 276.766C1091.91 277.404 1092.15 278.38 1092.43 279.695C1092.73 281.01 1092.91 282.033 1092.96 282.762H1093.12C1093.31 281.16 1093.77 278.921 1094.48 276.043L1097.28 265.398H1101.89L1095.79 287H1090.64Z" fill="black"/>
<path d="M1063.96 360H974.04C954.135 360 938 376.135 938 396.04V485.96C938 505.865 954.135 522 974.04 522H1063.96C1083.86 522 1100 505.865 1100 485.96V396.04C1100 376.135 1083.86 360 1063.96 360Z" fill="url(#paint0_linear)"/>
<path d="M1014.05 501.826C1009.22 500.098 1008.18 497.749 1006.2 483.984C1003.9 467.984 1003.39 458.08 1004.73 454.943C1006.5 450.785 1011.3 448.425 1018.03 448.398C1024.7 448.371 1029.55 450.752 1031.33 454.943C1032.67 458.075 1032.17 467.984 1029.86 483.984C1028.29 495.162 1027.43 497.986 1025.27 499.887C1022.3 502.517 1018.09 503.246 1014.09 501.831L1014.05 501.826ZM993.409 485.41C976.723 477.202 966.031 463.313 962.143 444.834C961.171 440.066 961.009 428.688 961.927 424.314C964.357 412.569 969.001 403.384 976.723 395.262C987.847 383.533 1002.16 377.334 1018.09 377.334C1033.86 377.334 1048.11 383.42 1058.97 394.798C1067.23 403.384 1071.87 412.472 1074.25 424.444C1075.06 428.429 1075.06 439.294 1074.3 443.776C1071.82 457.945 1063.93 470.851 1052.43 479.524C1048.33 482.623 1038.28 488.034 1036.66 488.034C1036.07 488.034 1036.02 487.418 1036.29 484.929C1036.77 480.933 1037.26 480.101 1039.53 479.151C1043.14 477.639 1049.3 473.254 1053.08 469.463C1059.61 462.983 1064.42 454.505 1066.63 445.595C1068.04 440.033 1067.88 427.667 1066.31 421.943C1061.4 403.745 1046.55 389.597 1028.35 385.817C1023.06 384.737 1013.44 384.737 1008.1 385.817C989.683 389.597 974.455 404.447 969.811 423.131C968.569 428.207 968.569 440.573 969.811 445.649C972.889 458.015 980.881 469.355 991.357 476.105C993.409 477.455 995.893 478.859 996.919 479.291C999.187 480.263 999.673 481.073 1000.11 485.069C1000.38 487.499 1000.32 488.201 999.727 488.201C999.349 488.201 996.595 487.013 993.679 485.609L993.409 485.41ZM993.625 463.442C988.009 458.96 983.041 451.012 980.989 443.214C979.747 438.505 979.747 429.552 981.043 424.854C984.445 412.175 993.787 402.347 1006.75 397.73C1011.18 396.164 1021 395.813 1026.46 397.017C1045.25 401.202 1058.59 420.021 1056 438.689C1054.97 446.211 1052.38 452.389 1047.79 458.129C1045.52 461.029 1040.01 465.894 1039.04 465.894C1038.88 465.894 1038.72 464.058 1038.72 461.822V457.74L1041.52 454.392C1052.11 441.713 1051.35 424.001 1039.8 412.38C1035.31 407.855 1030.13 405.198 1023.43 403.972C1019.11 403.173 1018.2 403.173 1013.66 403.918C1006.77 405.041 1001.44 407.709 996.703 412.396C985.093 423.898 984.337 441.702 994.921 454.392L997.708 457.74V461.844C997.708 464.112 997.53 465.948 997.308 465.948C997.092 465.948 995.526 464.868 993.852 463.518L993.625 463.442ZM1012.36 441.394C1007.56 439.159 1004.97 434.941 1004.91 429.444C1004.91 424.503 1007.67 420.194 1012.42 417.672C1015.44 416.084 1020.79 416.084 1023.81 417.683C1027.11 419.395 1029.81 422.716 1030.83 426.182C1033.96 436.831 1022.68 446.162 1012.47 441.394H1012.36Z" fill="white"/>
<path d="M1018.94 443.489C1026.38 443.489 1032.41 437.46 1032.41 430.022C1032.41 422.584 1026.38 416.554 1018.94 416.554C1011.5 416.554 1005.47 422.584 1005.47 430.022C1005.47 437.46 1011.5 443.489 1018.94 443.489Z" fill="white"/>
<path d="M1020.23 448.706C1021.17 448.83 1023.02 449.073 1024.74 449.624C1026.47 450.164 1028.03 451.012 1029.25 451.881C1030.44 452.745 1031.31 453.641 1031.85 454.732C1032.39 455.823 1032.66 457.119 1032.82 459.241C1032.93 461.369 1032.93 464.317 1032.44 469.825C1031.95 475.317 1030.98 483.368 1030.23 488.525C1029.47 493.709 1028.93 495.977 1028.23 497.651C1027.53 499.379 1026.61 500.513 1025.58 501.323C1024.56 502.133 1023.37 502.619 1022.23 502.889C1021.1 503.159 1020.07 503.159 1019.1 503.159C1018.13 503.159 1017.21 503.159 1015.97 502.889C1014.73 502.619 1013.11 502.133 1011.92 501.161C1010.68 500.189 1009.87 498.785 1009.22 496.949C1008.57 495.113 1008.09 492.899 1007.44 488.471C1006.79 484.043 1005.93 477.455 1005.39 472.433C1004.85 467.411 1004.63 463.955 1004.59 461.633C1004.53 459.311 1004.64 458.161 1004.91 457.043C1005.18 455.963 1005.61 454.937 1006.21 454.073C1006.8 453.209 1007.58 452.453 1008.37 451.859C1009.14 451.265 1009.93 450.833 1010.88 450.499C1011.82 450.121 1012.95 449.797 1014.34 449.527C1015.74 449.257 1017.36 448.987 1018.2 448.879C1019.03 448.754 1019.03 448.754 1019.96 448.879L1020.23 448.706Z" fill="white"/>
<path d="M894.176 573L891.324 565.07H880.406L877.613 573H872.691L883.375 544.328H888.453L899.137 573H894.176ZM890.094 561.047L887.418 553.273C887.223 552.753 886.949 551.932 886.598 550.812C886.259 549.693 886.025 548.872 885.895 548.352C885.543 549.953 885.029 551.704 884.352 553.605L881.773 561.047H890.094ZM913.375 573.391C910.641 573.391 908.518 572.408 907.008 570.441H906.734C906.917 572.264 907.008 573.371 907.008 573.762V582.609H902.418V551.398H906.129C906.233 551.802 906.448 552.766 906.773 554.289H907.008C908.44 552.102 910.589 551.008 913.453 551.008C916.148 551.008 918.245 551.984 919.742 553.938C921.253 555.891 922.008 558.632 922.008 562.16C922.008 565.689 921.24 568.443 919.703 570.422C918.18 572.401 916.07 573.391 913.375 573.391ZM912.262 554.758C910.439 554.758 909.104 555.292 908.258 556.359C907.424 557.427 907.008 559.133 907.008 561.477V562.16C907.008 564.79 907.424 566.698 908.258 567.883C909.091 569.055 910.452 569.641 912.34 569.641C913.928 569.641 915.152 568.99 916.012 567.688C916.871 566.385 917.301 564.53 917.301 562.121C917.301 559.699 916.871 557.87 916.012 556.633C915.165 555.383 913.915 554.758 912.262 554.758ZM938.297 573.391C935.562 573.391 933.44 572.408 931.93 570.441H931.656C931.839 572.264 931.93 573.371 931.93 573.762V582.609H927.34V551.398H931.051C931.155 551.802 931.37 552.766 931.695 554.289H931.93C933.362 552.102 935.51 551.008 938.375 551.008C941.07 551.008 943.167 551.984 944.664 553.938C946.174 555.891 946.93 558.632 946.93 562.16C946.93 565.689 946.161 568.443 944.625 570.422C943.102 572.401 940.992 573.391 938.297 573.391ZM937.184 554.758C935.361 554.758 934.026 555.292 933.18 556.359C932.346 557.427 931.93 559.133 931.93 561.477V562.16C931.93 564.79 932.346 566.698 933.18 567.883C934.013 569.055 935.374 569.641 937.262 569.641C938.85 569.641 940.074 568.99 940.934 567.688C941.793 566.385 942.223 564.53 942.223 562.121C942.223 559.699 941.793 557.87 940.934 556.633C940.087 555.383 938.837 554.758 937.184 554.758ZM956.852 573H952.262V542.609H956.852V573ZM972.867 573.391C969.508 573.391 966.878 572.414 964.977 570.461C963.089 568.495 962.145 565.793 962.145 562.355C962.145 558.827 963.023 556.053 964.781 554.035C966.539 552.017 968.954 551.008 972.027 551.008C974.879 551.008 977.132 551.874 978.785 553.605C980.439 555.337 981.266 557.72 981.266 560.754V563.234H966.871C966.936 565.331 967.503 566.945 968.57 568.078C969.638 569.198 971.142 569.758 973.082 569.758C974.358 569.758 975.543 569.641 976.637 569.406C977.743 569.159 978.928 568.755 980.191 568.195V571.926C979.072 572.46 977.939 572.837 976.793 573.059C975.647 573.28 974.339 573.391 972.867 573.391ZM972.027 554.484C970.569 554.484 969.397 554.947 968.512 555.871C967.639 556.796 967.118 558.143 966.949 559.914H976.754C976.728 558.13 976.298 556.783 975.465 555.871C974.632 554.947 973.486 554.484 972.027 554.484ZM1016.27 553.078C1016.27 556.06 1015.29 558.345 1013.34 559.934C1011.38 561.522 1008.6 562.316 1005 562.316H1002.03V573H997.359V544.445H1005.58C1009.15 544.445 1011.82 545.174 1013.59 546.633C1015.37 548.091 1016.27 550.24 1016.27 553.078ZM1002.03 558.391H1004.51C1006.9 558.391 1008.66 557.974 1009.78 557.141C1010.9 556.307 1011.46 555.005 1011.46 553.234C1011.46 551.594 1010.96 550.37 1009.96 549.562C1008.95 548.755 1007.39 548.352 1005.27 548.352H1002.03V558.391ZM1040.64 562.16C1040.64 565.689 1039.74 568.443 1037.93 570.422C1036.12 572.401 1033.6 573.391 1030.37 573.391C1028.35 573.391 1026.57 572.935 1025.02 572.023C1023.47 571.112 1022.27 569.803 1021.44 568.098C1020.61 566.392 1020.19 564.413 1020.19 562.16C1020.19 558.658 1021.09 555.923 1022.89 553.957C1024.68 551.991 1027.22 551.008 1030.48 551.008C1033.61 551.008 1036.08 552.017 1037.91 554.035C1039.73 556.04 1040.64 558.749 1040.64 562.16ZM1024.92 562.16C1024.92 567.147 1026.76 569.641 1030.45 569.641C1034.09 569.641 1035.91 567.147 1035.91 562.16C1035.91 557.225 1034.08 554.758 1030.41 554.758C1028.48 554.758 1027.08 555.396 1026.21 556.672C1025.35 557.948 1024.92 559.777 1024.92 562.16ZM1053.22 573.391C1050.52 573.391 1048.42 572.414 1046.91 570.461C1045.4 568.508 1044.64 565.767 1044.64 562.238C1044.64 558.697 1045.41 555.943 1046.93 553.977C1048.47 551.997 1050.59 551.008 1053.3 551.008C1056.14 551.008 1058.3 552.056 1059.78 554.152H1060.02C1059.79 552.603 1059.68 551.379 1059.68 550.48V542.609H1064.29V573H1060.7L1059.9 570.168H1059.68C1058.21 572.316 1056.06 573.391 1053.22 573.391ZM1054.45 569.68C1056.34 569.68 1057.71 569.152 1058.57 568.098C1059.43 567.03 1059.87 565.305 1059.9 562.922V562.277C1059.9 559.556 1059.46 557.622 1058.57 556.477C1057.68 555.331 1056.3 554.758 1054.41 554.758C1052.8 554.758 1051.55 555.415 1050.68 556.73C1049.81 558.033 1049.37 559.895 1049.37 562.316C1049.37 564.712 1049.79 566.542 1050.64 567.805C1051.49 569.055 1052.76 569.68 1054.45 569.68ZM1079.57 573.391C1076.3 573.391 1073.81 572.44 1072.11 570.539C1070.41 568.625 1069.57 565.884 1069.57 562.316C1069.57 558.684 1070.45 555.891 1072.22 553.938C1074.01 551.984 1076.58 551.008 1079.94 551.008C1082.22 551.008 1084.27 551.431 1086.09 552.277L1084.7 555.969C1082.76 555.214 1081.16 554.836 1079.9 554.836C1076.16 554.836 1074.29 557.316 1074.29 562.277C1074.29 564.699 1074.76 566.522 1075.68 567.746C1076.62 568.957 1077.98 569.562 1079.78 569.562C1081.83 569.562 1083.76 569.055 1085.58 568.039V572.043C1084.76 572.525 1083.88 572.87 1082.95 573.078C1082.02 573.286 1080.89 573.391 1079.57 573.391ZM1104.18 573L1103.26 569.992H1103.1C1102.06 571.307 1101.01 572.206 1099.96 572.688C1098.9 573.156 1097.55 573.391 1095.89 573.391C1093.77 573.391 1092.11 572.818 1090.91 571.672C1089.73 570.526 1089.14 568.905 1089.14 566.809C1089.14 564.582 1089.96 562.902 1091.62 561.77C1093.27 560.637 1095.79 560.018 1099.18 559.914L1102.91 559.797V558.645C1102.91 557.264 1102.58 556.236 1101.93 555.559C1101.29 554.868 1100.3 554.523 1098.94 554.523C1097.83 554.523 1096.77 554.686 1095.76 555.012C1094.74 555.337 1093.77 555.721 1092.83 556.164L1091.34 552.883C1092.52 552.271 1093.8 551.809 1095.19 551.496C1096.58 551.171 1097.9 551.008 1099.14 551.008C1101.88 551.008 1103.95 551.607 1105.35 552.805C1106.75 554.003 1107.46 555.884 1107.46 558.449V573H1104.18ZM1097.34 569.875C1099.01 569.875 1100.34 569.413 1101.34 568.488C1102.36 567.551 1102.87 566.242 1102.87 564.562V562.688L1100.09 562.805C1097.93 562.883 1096.36 563.247 1095.37 563.898C1094.39 564.536 1093.9 565.52 1093.9 566.848C1093.9 567.811 1094.19 568.56 1094.76 569.094C1095.33 569.615 1096.19 569.875 1097.34 569.875ZM1128.38 566.848C1128.38 568.957 1127.61 570.578 1126.07 571.711C1124.53 572.831 1122.33 573.391 1119.47 573.391C1116.59 573.391 1114.28 572.954 1112.54 572.082V568.117C1115.07 569.289 1117.44 569.875 1119.62 569.875C1122.45 569.875 1123.86 569.022 1123.86 567.316C1123.86 566.77 1123.71 566.314 1123.39 565.949C1123.08 565.585 1122.57 565.207 1121.85 564.816C1121.14 564.426 1120.14 563.983 1118.86 563.488C1116.38 562.525 1114.69 561.561 1113.8 560.598C1112.93 559.634 1112.5 558.384 1112.5 556.848C1112.5 554.999 1113.24 553.566 1114.72 552.551C1116.22 551.522 1118.25 551.008 1120.82 551.008C1123.36 551.008 1125.76 551.522 1128.02 552.551L1126.54 556.008C1124.21 555.044 1122.25 554.562 1120.66 554.562C1118.24 554.562 1117.03 555.253 1117.03 556.633C1117.03 557.31 1117.34 557.883 1117.96 558.352C1118.6 558.82 1119.98 559.465 1122.11 560.285C1123.89 560.975 1125.18 561.607 1125.99 562.18C1126.8 562.753 1127.4 563.417 1127.79 564.172C1128.18 564.914 1128.38 565.806 1128.38 566.848ZM1141.4 569.68C1142.52 569.68 1143.64 569.504 1144.76 569.152V572.609C1144.25 572.831 1143.6 573.013 1142.79 573.156C1141.99 573.312 1141.17 573.391 1140.31 573.391C1135.96 573.391 1133.79 571.099 1133.79 566.516V554.875H1130.84V552.844L1134 551.164L1135.56 546.594H1138.39V551.398H1144.55V554.875H1138.39V566.438C1138.39 567.544 1138.67 568.365 1139.21 568.898C1139.77 569.419 1140.5 569.68 1141.4 569.68ZM1163.61 566.848C1163.61 568.957 1162.84 570.578 1161.3 571.711C1159.77 572.831 1157.57 573.391 1154.7 573.391C1151.83 573.391 1149.51 572.954 1147.77 572.082V568.117C1150.31 569.289 1152.67 569.875 1154.86 569.875C1157.68 569.875 1159.1 569.022 1159.1 567.316C1159.1 566.77 1158.94 566.314 1158.63 565.949C1158.32 565.585 1157.8 565.207 1157.09 564.816C1156.37 564.426 1155.37 563.983 1154.1 563.488C1151.61 562.525 1149.92 561.561 1149.04 560.598C1148.17 559.634 1147.73 558.384 1147.73 556.848C1147.73 554.999 1148.47 553.566 1149.96 552.551C1151.45 551.522 1153.49 551.008 1156.05 551.008C1158.59 551.008 1160.99 551.522 1163.26 552.551L1161.77 556.008C1159.44 555.044 1157.48 554.562 1155.89 554.562C1153.47 554.562 1152.26 555.253 1152.26 556.633C1152.26 557.31 1152.57 557.883 1153.2 558.352C1153.84 558.82 1155.22 559.465 1157.34 560.285C1159.12 560.975 1160.42 561.607 1161.23 562.18C1162.03 562.753 1162.63 563.417 1163.02 564.172C1163.41 564.914 1163.61 565.806 1163.61 566.848Z" fill="black"/>
<g clip-path="url(#clip1)">
<path d="M124.001 369.992C122.007 369.992 120.281 370.722 118.824 372.178L80.51 410.492H50.3647C48.3693 410.492 46.6435 411.222 45.1861 412.678C43.7287 414.135 43 415.862 43 417.856V462.031C43 464.025 43.7287 465.752 45.1861 467.208C46.6449 468.665 48.3707 469.395 50.3647 469.395H80.5086L118.822 507.709C120.28 509.165 122.005 509.895 123.999 509.895C125.995 509.895 127.721 509.165 129.178 507.709C130.635 506.253 131.364 504.526 131.364 502.532V377.352C131.364 375.358 130.635 373.631 129.179 372.174C127.721 370.718 125.996 369.988 124.001 369.988" fill="#4D4D4D"/>
<path d="M170.66 456.231C173.921 451.207 175.551 445.782 175.551 439.952C175.551 434.122 173.921 428.671 170.66 423.608C167.398 418.546 163.087 414.98 157.716 412.908C156.949 412.525 155.989 412.333 154.839 412.333C152.845 412.333 151.118 413.044 149.662 414.461C148.206 415.888 147.475 417.626 147.475 419.697C147.475 421.308 147.935 422.669 148.857 423.782C149.778 424.895 150.889 425.854 152.194 426.659C153.496 427.464 154.801 428.346 156.106 429.305C157.411 430.264 158.522 431.626 159.443 433.389C160.361 435.155 160.823 437.341 160.823 439.949C160.823 442.558 160.362 444.744 159.443 446.509C158.522 448.274 157.411 449.634 156.106 450.595C154.801 451.553 153.496 452.436 152.194 453.241C150.889 454.045 149.778 455.005 148.857 456.116C147.936 457.231 147.475 458.591 147.475 460.202C147.475 462.274 148.206 464.018 149.662 465.437C151.118 466.849 152.845 467.567 154.839 467.567C155.989 467.567 156.949 467.375 157.716 466.993C163.087 464.842 167.4 461.255 170.66 456.231Z" fill="#4D4D4D"/>
<path d="M195.219 472.457C201.739 462.529 205 451.69 205 439.948C205 428.211 201.739 417.378 195.219 407.438C188.699 397.511 180.067 390.277 169.33 385.751C168.335 385.368 167.336 385.176 166.34 385.176C164.346 385.176 162.619 385.905 161.16 387.362C159.704 388.82 158.976 390.545 158.976 392.54C158.976 395.532 160.471 397.794 163.464 399.329C167.758 401.554 170.673 403.241 172.207 404.391C177.884 408.534 182.313 413.73 185.496 419.982C188.679 426.234 190.271 432.888 190.271 439.951C190.271 447.007 188.679 453.662 185.496 459.919C182.313 466.173 177.883 471.367 172.207 475.51C170.673 476.661 167.758 478.349 163.464 480.573C160.471 482.108 158.976 484.371 158.976 487.363C158.976 489.357 159.704 491.084 161.16 492.54C162.619 493.999 164.382 494.728 166.453 494.728C167.374 494.728 168.335 494.534 169.33 494.153C180.067 489.625 188.699 482.396 195.219 472.463" fill="#4D4D4D"/>
</g>
<path d="M56.1367 572L53.2852 564.07H42.3672L39.5742 572H34.6523L45.3359 543.328H50.4141L61.0977 572H56.1367ZM52.0547 560.047L49.3789 552.273C49.1836 551.753 48.9102 550.932 48.5586 549.812C48.2201 548.693 47.9857 547.872 47.8555 547.352C47.5039 548.953 46.9896 550.704 46.3125 552.605L43.7344 560.047H52.0547ZM79.6133 572L78.9688 569.168H78.7344C78.0964 570.171 77.1849 570.958 76 571.531C74.8281 572.104 73.487 572.391 71.9766 572.391C69.3594 572.391 67.4062 571.74 66.1172 570.438C64.8281 569.135 64.1836 567.163 64.1836 564.52V550.398H68.8125V563.719C68.8125 565.372 69.151 566.616 69.8281 567.449C70.5052 568.27 71.5664 568.68 73.0117 568.68C74.9388 568.68 76.3516 568.107 77.25 566.961C78.1615 565.802 78.6172 563.868 78.6172 561.16V550.398H83.2266V572H79.6133ZM97.0547 572.391C94.3594 572.391 92.2565 571.414 90.7461 569.461C89.2357 567.508 88.4805 564.767 88.4805 561.238C88.4805 557.697 89.2422 554.943 90.7656 552.977C92.3021 550.997 94.4245 550.008 97.1328 550.008C99.9714 550.008 102.133 551.056 103.617 553.152H103.852C103.63 551.603 103.52 550.379 103.52 549.48V541.609H108.129V572H104.535L103.734 569.168H103.52C102.048 571.316 99.8932 572.391 97.0547 572.391ZM98.2852 568.68C100.173 568.68 101.547 568.152 102.406 567.098C103.266 566.03 103.708 564.305 103.734 561.922V561.277C103.734 558.556 103.292 556.622 102.406 555.477C101.521 554.331 100.134 553.758 98.2461 553.758C96.6315 553.758 95.388 554.415 94.5156 555.73C93.6432 557.033 93.207 558.895 93.207 561.316C93.207 563.712 93.6302 565.542 94.4766 566.805C95.3229 568.055 96.5924 568.68 98.2852 568.68ZM119.281 572H114.691V550.398H119.281V572ZM114.418 544.676C114.418 543.855 114.639 543.224 115.082 542.781C115.538 542.339 116.182 542.117 117.016 542.117C117.823 542.117 118.448 542.339 118.891 542.781C119.346 543.224 119.574 543.855 119.574 544.676C119.574 545.457 119.346 546.076 118.891 546.531C118.448 546.974 117.823 547.195 117.016 547.195C116.182 547.195 115.538 546.974 115.082 546.531C114.639 546.076 114.418 545.457 114.418 544.676ZM145.023 561.16C145.023 564.689 144.118 567.443 142.309 569.422C140.499 571.401 137.979 572.391 134.75 572.391C132.732 572.391 130.948 571.935 129.398 571.023C127.849 570.112 126.658 568.803 125.824 567.098C124.991 565.392 124.574 563.413 124.574 561.16C124.574 557.658 125.473 554.923 127.27 552.957C129.066 550.991 131.599 550.008 134.867 550.008C137.992 550.008 140.466 551.017 142.289 553.035C144.112 555.04 145.023 557.749 145.023 561.16ZM129.301 561.16C129.301 566.147 131.143 568.641 134.828 568.641C138.474 568.641 140.297 566.147 140.297 561.16C140.297 556.225 138.461 553.758 134.789 553.758C132.862 553.758 131.462 554.396 130.59 555.672C129.73 556.948 129.301 558.777 129.301 561.16ZM171.547 553.875H166.273V572H161.664V553.875H158.109V551.727L161.664 550.32V548.914C161.664 546.362 162.263 544.474 163.461 543.25C164.659 542.013 166.488 541.395 168.949 541.395C170.564 541.395 172.152 541.661 173.715 542.195L172.504 545.672C171.371 545.307 170.29 545.125 169.262 545.125C168.22 545.125 167.458 545.451 166.977 546.102C166.508 546.74 166.273 547.703 166.273 548.992V550.398H171.547V553.875ZM179.809 572H175.219V550.398H179.809V572ZM174.945 544.676C174.945 543.855 175.167 543.224 175.609 542.781C176.065 542.339 176.71 542.117 177.543 542.117C178.35 542.117 178.975 542.339 179.418 542.781C179.874 543.224 180.102 543.855 180.102 544.676C180.102 545.457 179.874 546.076 179.418 546.531C178.975 546.974 178.35 547.195 177.543 547.195C176.71 547.195 176.065 546.974 175.609 546.531C175.167 546.076 174.945 545.457 174.945 544.676ZM191 572H186.41V541.609H191V572ZM207.016 572.391C203.656 572.391 201.026 571.414 199.125 569.461C197.237 567.495 196.293 564.793 196.293 561.355C196.293 557.827 197.172 555.053 198.93 553.035C200.688 551.017 203.103 550.008 206.176 550.008C209.027 550.008 211.28 550.874 212.934 552.605C214.587 554.337 215.414 556.72 215.414 559.754V562.234H201.02C201.085 564.331 201.651 565.945 202.719 567.078C203.786 568.198 205.29 568.758 207.23 568.758C208.507 568.758 209.691 568.641 210.785 568.406C211.892 568.159 213.077 567.755 214.34 567.195V570.926C213.22 571.46 212.087 571.837 210.941 572.059C209.796 572.28 208.487 572.391 207.016 572.391ZM206.176 553.484C204.717 553.484 203.546 553.947 202.66 554.871C201.788 555.796 201.267 557.143 201.098 558.914H210.902C210.876 557.13 210.447 555.783 209.613 554.871C208.78 553.947 207.634 553.484 206.176 553.484Z" fill="black"/>
<path d="M1018 646.267C973.399 646.267 937.244 682.421 937.244 727.018C937.244 771.617 973.399 807.769 1018 807.769C1062.6 807.769 1098.75 771.617 1098.75 727.018C1098.75 682.424 1062.6 646.271 1018 646.271L1018 646.267ZM1055.03 762.734C1053.58 765.106 1050.48 765.858 1048.11 764.402C1029.15 752.821 1005.28 750.198 977.168 756.62C974.46 757.237 971.76 755.54 971.142 752.83C970.522 750.121 972.213 747.421 974.928 746.804C1005.69 739.773 1032.07 742.802 1053.36 755.81C1055.73 757.266 1056.48 760.361 1055.03 762.734ZM1064.91 740.743C1063.09 743.708 1059.21 744.644 1056.25 742.821C1034.55 729.476 1001.46 725.612 975.785 733.406C972.456 734.411 968.939 732.535 967.928 729.211C966.926 725.881 968.803 722.371 972.127 721.359C1001.45 712.461 1037.91 716.771 1062.84 732.089C1065.8 733.911 1066.74 737.787 1064.91 740.744V740.743ZM1065.76 717.847C1039.74 702.389 996.795 700.967 971.947 708.509C967.956 709.719 963.737 707.466 962.528 703.476C961.318 699.484 963.569 695.267 967.562 694.054C996.087 685.395 1043.51 687.068 1073.47 704.856C1077.07 706.986 1078.24 711.622 1076.11 715.206C1073.99 718.795 1069.34 719.978 1065.76 717.847H1065.76Z" fill="#1ED760"/>
<path d="M971.105 851.246C971.105 853.785 970.188 855.777 968.352 857.223C966.516 858.668 963.983 859.391 960.754 859.391C957.525 859.391 954.882 858.889 952.824 857.887V853.473C954.126 854.085 955.507 854.566 956.965 854.918C958.436 855.27 959.803 855.445 961.066 855.445C962.915 855.445 964.276 855.094 965.148 854.391C966.034 853.688 966.477 852.743 966.477 851.559C966.477 850.491 966.073 849.586 965.266 848.844C964.458 848.102 962.792 847.223 960.266 846.207C957.661 845.152 955.826 843.948 954.758 842.594C953.69 841.24 953.156 839.612 953.156 837.711C953.156 835.328 954.003 833.453 955.695 832.086C957.388 830.719 959.66 830.035 962.512 830.035C965.246 830.035 967.967 830.634 970.676 831.832L969.191 835.641C966.652 834.573 964.387 834.039 962.395 834.039C960.884 834.039 959.738 834.371 958.957 835.035C958.176 835.686 957.785 836.552 957.785 837.633C957.785 838.375 957.941 839.013 958.254 839.547C958.566 840.068 959.081 840.562 959.797 841.031C960.513 841.5 961.802 842.118 963.664 842.887C965.76 843.759 967.297 844.573 968.273 845.328C969.25 846.083 969.966 846.936 970.422 847.887C970.878 848.837 971.105 849.957 971.105 851.246ZM987.102 859.391C984.367 859.391 982.245 858.408 980.734 856.441H980.461C980.643 858.264 980.734 859.371 980.734 859.762V868.609H976.145V837.398H979.855C979.96 837.802 980.174 838.766 980.5 840.289H980.734C982.167 838.102 984.315 837.008 987.18 837.008C989.875 837.008 991.971 837.984 993.469 839.938C994.979 841.891 995.734 844.632 995.734 848.16C995.734 851.689 994.966 854.443 993.43 856.422C991.906 858.401 989.797 859.391 987.102 859.391ZM985.988 840.758C984.165 840.758 982.831 841.292 981.984 842.359C981.151 843.427 980.734 845.133 980.734 847.477V848.16C980.734 850.79 981.151 852.698 981.984 853.883C982.818 855.055 984.178 855.641 986.066 855.641C987.655 855.641 988.879 854.99 989.738 853.688C990.598 852.385 991.027 850.53 991.027 848.121C991.027 845.699 990.598 843.87 989.738 842.633C988.892 841.383 987.642 840.758 985.988 840.758ZM1020.23 848.16C1020.23 851.689 1019.32 854.443 1017.51 856.422C1015.7 858.401 1013.18 859.391 1009.95 859.391C1007.93 859.391 1006.15 858.935 1004.6 858.023C1003.05 857.112 1001.86 855.803 1001.03 854.098C1000.19 852.392 999.777 850.413 999.777 848.16C999.777 844.658 1000.68 841.923 1002.47 839.957C1004.27 837.991 1006.8 837.008 1010.07 837.008C1013.2 837.008 1015.67 838.017 1017.49 840.035C1019.32 842.04 1020.23 844.749 1020.23 848.16ZM1004.5 848.16C1004.5 853.147 1006.35 855.641 1010.03 855.641C1013.68 855.641 1015.5 853.147 1015.5 848.16C1015.5 843.225 1013.66 840.758 1009.99 840.758C1008.07 840.758 1006.67 841.396 1005.79 842.672C1004.93 843.948 1004.5 845.777 1004.5 848.16ZM1033.57 855.68C1034.69 855.68 1035.81 855.504 1036.93 855.152V858.609C1036.42 858.831 1035.76 859.013 1034.95 859.156C1034.16 859.312 1033.33 859.391 1032.47 859.391C1028.12 859.391 1025.95 857.099 1025.95 852.516V840.875H1023V838.844L1026.16 837.164L1027.73 832.594H1030.56V837.398H1036.71V840.875H1030.56V852.438C1030.56 853.544 1030.83 854.365 1031.38 854.898C1031.94 855.419 1032.67 855.68 1033.57 855.68ZM1045.85 859H1041.26V837.398H1045.85V859ZM1040.99 831.676C1040.99 830.855 1041.21 830.224 1041.65 829.781C1042.11 829.339 1042.75 829.117 1043.59 829.117C1044.39 829.117 1045.02 829.339 1045.46 829.781C1045.92 830.224 1046.14 830.855 1046.14 831.676C1046.14 832.457 1045.92 833.076 1045.46 833.531C1045.02 833.974 1044.39 834.195 1043.59 834.195C1042.75 834.195 1042.11 833.974 1041.65 833.531C1041.21 833.076 1040.99 832.457 1040.99 831.676ZM1063.27 840.875H1058V859H1053.39V840.875H1049.84V838.727L1053.39 837.32V835.914C1053.39 833.362 1053.99 831.474 1055.19 830.25C1056.39 829.013 1058.21 828.395 1060.68 828.395C1062.29 828.395 1063.88 828.661 1065.44 829.195L1064.23 832.672C1063.1 832.307 1062.02 832.125 1060.99 832.125C1059.95 832.125 1059.18 832.451 1058.7 833.102C1058.23 833.74 1058 834.703 1058 835.992V837.398H1063.27V840.875ZM1063.68 837.398H1068.68L1073.08 849.645C1073.74 851.389 1074.18 853.03 1074.41 854.566H1074.56C1074.68 853.85 1074.89 852.984 1075.21 851.969C1075.52 850.94 1077.17 846.083 1080.17 837.398H1085.13L1075.89 861.871C1074.21 866.363 1071.41 868.609 1067.49 868.609C1066.48 868.609 1065.49 868.499 1064.52 868.277V864.645C1065.21 864.801 1066 864.879 1066.89 864.879C1069.1 864.879 1070.66 863.596 1071.55 861.031L1072.36 859L1063.68 837.398Z" fill="black"/>
<path d="M538 171.5L538.007 169.028L535.472 169.028L535.472 171.507L538 171.5ZM893.282 173.248C894.272 172.283 894.277 170.717 893.292 169.752L877.252 154.02C876.267 153.055 874.667 153.055 873.677 154.02C872.687 154.986 872.683 156.551 873.667 157.516L887.925 171.5L873.587 185.484C872.597 186.449 872.592 188.014 873.577 188.98C874.561 189.945 876.161 189.945 877.151 188.98L893.282 173.248ZM540.528 348.993L540.528 171.493L535.472 171.507L535.472 349.007L540.528 348.993ZM537.993 173.972L891.493 173.972L891.507 169.028L538.007 169.028L537.993 173.972Z" fill="#535FD7"/>
<path d="M889.418 457.782C890.402 456.813 890.415 455.23 889.446 454.246L873.663 438.211C872.695 437.226 871.112 437.214 870.128 438.182C869.144 439.151 869.131 440.734 870.1 441.718L884.129 455.972L869.875 470.001C868.891 470.97 868.878 472.553 869.847 473.537C870.815 474.521 872.398 474.533 873.382 473.565L889.418 457.782ZM635.98 456.5L887.645 458.5L887.684 453.5L636.02 451.5L635.98 456.5Z" fill="#AAAAAA"/>
<path d="M428.864 456.768C429.84 455.791 429.84 454.209 428.864 453.232L412.954 437.322C411.977 436.346 410.394 436.346 409.418 437.322C408.442 438.299 408.442 439.882 409.418 440.858L423.56 455L409.418 469.142C408.442 470.118 408.442 471.701 409.418 472.678C410.394 473.654 411.977 473.654 412.954 472.678L428.864 456.768ZM244 457.5H427.096V452.5H244V457.5Z" fill="#AAAAAA"/>
<path d="M735 709.45L735.007 711.922L732.472 711.922L732.472 709.443L735 709.45ZM878.727 707.701C879.717 708.667 879.722 710.232 878.737 711.197L862.697 726.929C861.712 727.895 860.112 727.895 859.122 726.929C858.132 725.964 858.128 724.399 859.112 723.433L873.37 709.449L859.032 695.466C858.042 694.5 858.037 692.935 859.022 691.97C860.006 691.004 861.606 691.004 862.596 691.97L878.727 707.701ZM737.528 457.007L737.528 709.456L732.472 709.443L732.472 456.993L737.528 457.007ZM734.993 706.978L876.938 706.977L876.952 711.921L735.007 711.922L734.993 706.978Z" fill="#AAAAAA"/>
<path d="M435.594 553.078C435.594 556.06 434.617 558.345 432.664 559.934C430.711 561.522 427.931 562.316 424.324 562.316H421.355V573H416.688V544.445H424.91C428.478 544.445 431.147 545.174 432.918 546.633C434.702 548.091 435.594 550.24 435.594 553.078ZM421.355 558.391H423.836C426.232 558.391 427.99 557.974 429.109 557.141C430.229 556.307 430.789 555.005 430.789 553.234C430.789 551.594 430.288 550.37 429.285 549.562C428.283 548.755 426.72 548.352 424.598 548.352H421.355V558.391ZM459.969 562.16C459.969 565.689 459.064 568.443 457.254 570.422C455.444 572.401 452.924 573.391 449.695 573.391C447.677 573.391 445.893 572.935 444.344 572.023C442.794 571.112 441.603 569.803 440.77 568.098C439.936 566.392 439.52 564.413 439.52 562.16C439.52 558.658 440.418 555.923 442.215 553.957C444.012 551.991 446.544 551.008 449.812 551.008C452.938 551.008 455.411 552.017 457.234 554.035C459.057 556.04 459.969 558.749 459.969 562.16ZM444.246 562.16C444.246 567.147 446.089 569.641 449.773 569.641C453.419 569.641 455.242 567.147 455.242 562.16C455.242 557.225 453.406 554.758 449.734 554.758C447.807 554.758 446.408 555.396 445.535 556.672C444.676 557.948 444.246 559.777 444.246 562.16ZM472.547 573.391C469.852 573.391 467.749 572.414 466.238 570.461C464.728 568.508 463.973 565.767 463.973 562.238C463.973 558.697 464.734 555.943 466.258 553.977C467.794 551.997 469.917 551.008 472.625 551.008C475.464 551.008 477.625 552.056 479.109 554.152H479.344C479.122 552.603 479.012 551.379 479.012 550.48V542.609H483.621V573H480.027L479.227 570.168H479.012C477.54 572.316 475.385 573.391 472.547 573.391ZM473.777 569.68C475.665 569.68 477.039 569.152 477.898 568.098C478.758 567.03 479.201 565.305 479.227 562.922V562.277C479.227 559.556 478.784 557.622 477.898 556.477C477.013 555.331 475.626 554.758 473.738 554.758C472.124 554.758 470.88 555.415 470.008 556.73C469.135 558.033 468.699 559.895 468.699 562.316C468.699 564.712 469.122 566.542 469.969 567.805C470.815 569.055 472.085 569.68 473.777 569.68ZM498.895 573.391C495.626 573.391 493.139 572.44 491.434 570.539C489.741 568.625 488.895 565.884 488.895 562.316C488.895 558.684 489.78 555.891 491.551 553.938C493.335 551.984 495.906 551.008 499.266 551.008C501.544 551.008 503.595 551.431 505.418 552.277L504.031 555.969C502.091 555.214 500.49 554.836 499.227 554.836C495.49 554.836 493.621 557.316 493.621 562.277C493.621 564.699 494.083 566.522 495.008 567.746C495.945 568.957 497.312 569.562 499.109 569.562C501.154 569.562 503.087 569.055 504.91 568.039V572.043C504.09 572.525 503.211 572.87 502.273 573.078C501.349 573.286 500.223 573.391 498.895 573.391ZM523.504 573L522.586 569.992H522.43C521.388 571.307 520.34 572.206 519.285 572.688C518.23 573.156 516.876 573.391 515.223 573.391C513.1 573.391 511.44 572.818 510.242 571.672C509.057 570.526 508.465 568.905 508.465 566.809C508.465 564.582 509.292 562.902 510.945 561.77C512.599 560.637 515.118 560.018 518.504 559.914L522.234 559.797V558.645C522.234 557.264 521.909 556.236 521.258 555.559C520.62 554.868 519.624 554.523 518.27 554.523C517.163 554.523 516.102 554.686 515.086 555.012C514.07 555.337 513.094 555.721 512.156 556.164L510.672 552.883C511.844 552.271 513.126 551.809 514.52 551.496C515.913 551.171 517.228 551.008 518.465 551.008C521.212 551.008 523.283 551.607 524.676 552.805C526.082 554.003 526.785 555.884 526.785 558.449V573H523.504ZM516.668 569.875C518.335 569.875 519.669 569.413 520.672 568.488C521.688 567.551 522.195 566.242 522.195 564.562V562.688L519.422 562.805C517.26 562.883 515.685 563.247 514.695 563.898C513.719 564.536 513.23 565.52 513.23 566.848C513.23 567.811 513.517 568.56 514.09 569.094C514.663 569.615 515.522 569.875 516.668 569.875ZM547.703 566.848C547.703 568.957 546.935 570.578 545.398 571.711C543.862 572.831 541.661 573.391 538.797 573.391C535.919 573.391 533.608 572.954 531.863 572.082V568.117C534.402 569.289 536.766 569.875 538.953 569.875C541.779 569.875 543.191 569.022 543.191 567.316C543.191 566.77 543.035 566.314 542.723 565.949C542.41 565.585 541.896 565.207 541.18 564.816C540.464 564.426 539.467 563.983 538.191 563.488C535.704 562.525 534.018 561.561 533.133 560.598C532.26 559.634 531.824 558.384 531.824 556.848C531.824 554.999 532.566 553.566 534.051 552.551C535.548 551.522 537.579 551.008 540.145 551.008C542.684 551.008 545.086 551.522 547.352 552.551L545.867 556.008C543.536 555.044 541.577 554.562 539.988 554.562C537.566 554.562 536.355 555.253 536.355 556.633C536.355 557.31 536.668 557.883 537.293 558.352C537.931 558.82 539.311 559.465 541.434 560.285C543.217 560.975 544.513 561.607 545.32 562.18C546.128 562.753 546.727 563.417 547.117 564.172C547.508 564.914 547.703 565.806 547.703 566.848ZM560.73 569.68C561.85 569.68 562.97 569.504 564.09 569.152V572.609C563.582 572.831 562.924 573.013 562.117 573.156C561.323 573.312 560.496 573.391 559.637 573.391C555.288 573.391 553.113 571.099 553.113 566.516V554.875H550.164V552.844L553.328 551.164L554.891 546.594H557.723V551.398H563.875V554.875H557.723V566.438C557.723 567.544 557.996 568.365 558.543 568.898C559.103 569.419 559.832 569.68 560.73 569.68ZM589.656 554.875H584.383V573H579.773V554.875H576.219V552.727L579.773 551.32V549.914C579.773 547.362 580.372 545.474 581.57 544.25C582.768 543.013 584.598 542.395 587.059 542.395C588.673 542.395 590.262 542.661 591.824 543.195L590.613 546.672C589.48 546.307 588.4 546.125 587.371 546.125C586.329 546.125 585.568 546.451 585.086 547.102C584.617 547.74 584.383 548.703 584.383 549.992V551.398H589.656V554.875ZM602.781 573.391C599.422 573.391 596.792 572.414 594.891 570.461C593.003 568.495 592.059 565.793 592.059 562.355C592.059 558.827 592.938 556.053 594.695 554.035C596.453 552.017 598.868 551.008 601.941 551.008C604.793 551.008 607.046 551.874 608.699 553.605C610.353 555.337 611.18 557.72 611.18 560.754V563.234H596.785C596.85 565.331 597.417 566.945 598.484 568.078C599.552 569.198 601.056 569.758 602.996 569.758C604.272 569.758 605.457 569.641 606.551 569.406C607.658 569.159 608.842 568.755 610.105 568.195V571.926C608.986 572.46 607.853 572.837 606.707 573.059C605.561 573.28 604.253 573.391 602.781 573.391ZM601.941 554.484C600.483 554.484 599.311 554.947 598.426 555.871C597.553 556.796 597.033 558.143 596.863 559.914H606.668C606.642 558.13 606.212 556.783 605.379 555.871C604.546 554.947 603.4 554.484 601.941 554.484ZM625.828 573.391C622.469 573.391 619.839 572.414 617.938 570.461C616.049 568.495 615.105 565.793 615.105 562.355C615.105 558.827 615.984 556.053 617.742 554.035C619.5 552.017 621.915 551.008 624.988 551.008C627.84 551.008 630.092 551.874 631.746 553.605C633.4 555.337 634.227 557.72 634.227 560.754V563.234H619.832C619.897 565.331 620.464 566.945 621.531 568.078C622.599 569.198 624.103 569.758 626.043 569.758C627.319 569.758 628.504 569.641 629.598 569.406C630.704 569.159 631.889 568.755 633.152 568.195V571.926C632.033 572.46 630.9 572.837 629.754 573.059C628.608 573.28 627.299 573.391 625.828 573.391ZM624.988 554.484C623.53 554.484 622.358 554.947 621.473 555.871C620.6 556.796 620.079 558.143 619.91 559.914H629.715C629.689 558.13 629.259 556.783 628.426 555.871C627.592 554.947 626.447 554.484 624.988 554.484ZM646.727 573.391C644.031 573.391 641.928 572.414 640.418 570.461C638.908 568.508 638.152 565.767 638.152 562.238C638.152 558.697 638.914 555.943 640.438 553.977C641.974 551.997 644.096 551.008 646.805 551.008C649.643 551.008 651.805 552.056 653.289 554.152H653.523C653.302 552.603 653.191 551.379 653.191 550.48V542.609H657.801V573H654.207L653.406 570.168H653.191C651.72 572.316 649.565 573.391 646.727 573.391ZM647.957 569.68C649.845 569.68 651.219 569.152 652.078 568.098C652.938 567.03 653.38 565.305 653.406 562.922V562.277C653.406 559.556 652.964 557.622 652.078 556.477C651.193 555.331 649.806 554.758 647.918 554.758C646.303 554.758 645.06 555.415 644.188 556.73C643.315 558.033 642.879 559.895 642.879 562.316C642.879 564.712 643.302 566.542 644.148 567.805C644.995 569.055 646.264 569.68 647.957 569.68Z" fill="black"/>
<path d="M587.625 360H486.375C469.599 360 456 373.599 456 390.375V491.625C456 508.401 469.599 522 486.375 522H587.625C604.401 522 618 508.401 618 491.625V390.375C618 373.599 604.401 360 587.625 360Z" fill="#FFA500"/>
<path d="M496.5 501.75C507.684 501.75 516.75 492.684 516.75 481.5C516.75 470.316 507.684 461.25 496.5 461.25C485.316 461.25 476.25 470.316 476.25 481.5C476.25 492.684 485.316 501.75 496.5 501.75Z" fill="white"/>
<path d="M476.25 441C492.362 441 507.814 447.4 519.207 458.793C530.6 470.186 537 485.638 537 501.75H557.25C557.25 480.267 548.716 459.665 533.526 444.474C518.335 429.284 497.733 420.75 476.25 420.75V441Z" fill="white"/>
<path d="M476.25 400.5C489.546 400.5 502.712 403.119 514.997 408.207C527.281 413.295 538.443 420.754 547.845 430.155C557.246 439.557 564.705 450.719 569.793 463.003C574.881 475.288 577.5 488.454 577.5 501.75H597.75C597.75 469.526 584.949 438.622 562.163 415.837C539.378 393.051 508.474 380.25 476.25 380.25V400.5Z" fill="white"/>
<path d="M620.44 121.88C620.84 121.48 621.3 121.28 621.82 121.28C622.34 121.28 622.78 121.48 623.14 121.88C623.54 122.24 623.74 122.68 623.74 123.2V125.12C624.38 124 625.42 123.02 626.86 122.18C628.34 121.34 630.02 120.92 631.9 120.92C635.9 120.92 638.98 122.12 641.14 124.52C643.34 126.92 644.44 130.52 644.44 135.32C644.44 140.12 643.34 143.74 641.14 146.18C638.98 148.58 635.9 149.78 631.9 149.78C630.02 149.78 628.36 149.38 626.92 148.58C625.52 147.74 624.46 146.74 623.74 145.58V159.14C623.74 159.66 623.54 160.1 623.14 160.46C622.78 160.86 622.34 161.06 621.82 161.06C621.3 161.06 620.84 160.86 620.44 160.46C620.08 160.1 619.9 159.66 619.9 159.14V123.2C619.9 122.68 620.08 122.24 620.44 121.88ZM625.9 127.1C624.38 128.9 623.62 131.64 623.62 135.32C623.62 139 624.38 141.76 625.9 143.6C627.42 145.4 629.42 146.3 631.9 146.3C637.66 146.3 640.54 142.64 640.54 135.32C640.54 128.04 637.62 124.4 631.78 124.4C629.38 124.4 627.42 125.3 625.9 127.1ZM651.927 124.52C654.127 122.12 657.227 120.92 661.227 120.92C665.227 120.92 668.327 122.12 670.527 124.52C672.727 126.92 673.827 130.52 673.827 135.32C673.827 140.12 672.727 143.74 670.527 146.18C668.327 148.58 665.227 149.78 661.227 149.78C657.267 149.78 654.167 148.58 651.927 146.18C649.727 143.74 648.627 140.12 648.627 135.32C648.627 130.52 649.727 126.92 651.927 124.52ZM652.527 135.32C652.527 142.64 655.427 146.3 661.227 146.3C667.027 146.3 669.927 142.64 669.927 135.32C669.927 128.04 667.027 124.4 661.227 124.4C655.427 124.4 652.527 128.04 652.527 135.32ZM698.261 137.96V129.68C698.181 129.52 698.081 129.34 697.961 129.14C697.841 128.9 697.541 128.48 697.061 127.88C696.621 127.24 696.121 126.7 695.561 126.26C695.001 125.78 694.241 125.36 693.281 125C692.361 124.6 691.381 124.4 690.341 124.4C684.701 124.4 681.881 128.04 681.881 135.32C681.881 142.64 684.701 146.3 690.341 146.3C692.741 146.3 694.661 145.6 696.101 144.2C697.541 142.8 698.261 140.72 698.261 137.96ZM690.101 120.92C691.901 120.92 693.521 121.3 694.961 122.06C696.401 122.82 697.501 123.74 698.261 124.82V108.2C698.261 107.64 698.441 107.18 698.801 106.82C699.161 106.46 699.621 106.28 700.181 106.28C700.741 106.28 701.201 106.46 701.561 106.82C701.921 107.18 702.101 107.64 702.101 108.2V137.96C702.101 141.8 701.021 144.74 698.861 146.78C696.741 148.78 693.901 149.78 690.341 149.78C686.381 149.78 683.341 148.58 681.221 146.18C679.101 143.78 678.041 140.16 678.041 135.32C678.041 125.72 682.061 120.92 690.101 120.92Z" fill="#333333"/>
<path d="M711.28 146.18C709.16 143.78 708.1 140.16 708.1 135.32C708.1 130.48 709.16 126.88 711.28 124.52C713.44 122.12 716.5 120.92 720.46 120.92C722.78 120.92 724.72 121.36 726.28 122.24C727.84 123.12 728.98 124.06 729.7 125.06C729.98 125.46 730.12 125.84 730.12 126.2C730.12 126.72 729.94 127.14 729.58 127.46C729.26 127.78 728.86 127.94 728.38 127.94C727.86 127.94 727.38 127.7 726.94 127.22C725.3 125.34 723.14 124.4 720.46 124.4C714.82 124.4 712 128.04 712 135.32C712 142.64 714.82 146.3 720.46 146.3C722.78 146.3 725.1 145.44 727.42 143.72C727.82 143.44 728.2 143.3 728.56 143.3C729.04 143.3 729.44 143.48 729.76 143.84C730.12 144.16 730.3 144.56 730.3 145.04C730.3 145.56 730.04 146.06 729.52 146.54C726.88 148.7 723.86 149.78 720.46 149.78C716.5 149.78 713.44 148.58 711.28 146.18ZM736.324 121.82C736.724 121.46 737.184 121.28 737.704 121.28C738.224 121.28 738.664 121.48 739.024 121.88C739.424 122.24 739.624 122.68 739.624 123.2V138.86C739.624 141.1 740.144 142.88 741.184 144.2C742.224 145.48 744.144 146.12 746.944 146.12C749.744 146.12 751.664 145.48 752.704 144.2C753.744 142.88 754.264 141.1 754.264 138.86V123.2C754.264 122.68 754.444 122.24 754.804 121.88C755.204 121.48 755.684 121.28 756.244 121.28C756.764 121.28 757.204 121.48 757.564 121.88C757.924 122.24 758.104 122.68 758.104 123.2V138.86C758.104 142.18 757.304 144.84 755.704 146.84C754.104 148.8 751.184 149.78 746.944 149.78C742.704 149.78 739.784 148.8 738.184 146.84C736.584 144.84 735.784 142.18 735.784 138.86V123.2C735.784 122.64 735.964 122.18 736.324 121.82ZM763.53 135.32C763.53 130.72 764.61 127.18 766.77 124.7C768.93 122.18 771.97 120.92 775.89 120.92C777.73 120.92 779.35 121.2 780.75 121.76C782.15 122.32 783.25 123.02 784.05 123.86C784.89 124.7 785.55 125.68 786.03 126.8C786.55 127.88 786.89 128.9 787.05 129.86C787.25 130.78 787.35 131.7 787.35 132.62C787.35 133.22 787.33 133.68 787.29 134C787.25 134.32 787.17 134.7 787.05 135.14C786.93 135.58 786.69 135.92 786.33 136.16C785.97 136.36 785.51 136.46 784.95 136.46H767.43C767.43 139.46 768.23 141.84 769.83 143.6C771.47 145.36 773.69 146.24 776.49 146.24C779.01 146.24 781.41 145.38 783.69 143.66C784.05 143.42 784.41 143.3 784.77 143.3C785.25 143.3 785.65 143.48 785.97 143.84C786.33 144.16 786.51 144.56 786.51 145.04C786.51 145.52 786.29 145.98 785.85 146.42C783.61 148.66 780.49 149.78 776.49 149.78C772.37 149.78 769.17 148.6 766.89 146.24C764.65 143.84 763.53 140.2 763.53 135.32ZM783.57 133.1C783.57 127.3 781.01 124.4 775.89 124.4C773.33 124.4 771.33 125.18 769.89 126.74C768.45 128.26 767.63 130.38 767.43 133.1H783.57Z" fill="#535FD7"/>
<defs>
<linearGradient id="paint0_linear" x1="1018.83" y1="524.057" x2="1017.46" y2="360" gradientUnits="userSpaceOnUse">
<stop stop-color="#822CBE"/>
<stop offset="1" stop-color="#D772FB"/>
</linearGradient>
<clipPath id="clip0">
<rect width="91.2548" height="64.193" fill="white" transform="translate(976.019 123.089)"/>
</clipPath>
<clipPath id="clip1">
<rect width="162" height="162" fill="white" transform="translate(45 362)"/>
</clipPath>
</defs>
</svg>
