<svg width="1207" height="928" viewBox="0 0 1207 928" fill="none" xmlns="http://www.w3.org/2000/svg"><path fill="#4353FE" d="M969 214h163v163H969z"/><g clip-path="url(#a)"><path d="M1075.6 282.282s-7.33 23.125-7.93 25.034c-.22-1.964-5.59-43.468-5.59-43.468-12.49 0-19.16 8.944-22.69 18.38 0 0-8.91 23.179-9.67 25.142-.05-1.799-1.35-24.87-1.35-24.87-.76-11.562-11.29-18.598-19.82-18.598l10.32 62.884c13.08-.054 20.14-8.944 23.83-18.379 0 0 7.87-20.453 8.2-21.38.05.873 5.64 39.759 5.64 39.759 13.14 0 20.2-8.344 24-17.452l18.4-45.432c-12.97 0-19.81 8.89-23.34 18.38z" fill="#fff"/></g><path d="M995.781 427h-5.078l-4.844-17.031a67.857 67.857 0 0 1-.781-3.203c-.312-1.407-.501-2.383-.566-2.93-.13.833-.345 1.914-.645 3.242-.286 1.328-.527 2.318-.722 2.969L978.418 427h-5.078l-3.692-14.297-3.75-14.258h4.766l4.082 16.641c.638 2.669 1.094 5.026 1.367 7.07a48.94 48.94 0 0 1 .645-3.711 55.73 55.73 0 0 1 .781-3.32l4.649-16.68h4.628l4.766 16.758c.456 1.55.938 3.867 1.445 6.953.196-1.862.664-4.232 1.407-7.109l4.062-16.602h4.724L995.781 427zm20.449.391c-3.36 0-5.99-.977-7.89-2.93-1.89-1.966-2.83-4.668-2.83-8.106 0-3.528.88-6.302 2.63-8.32 1.76-2.018 4.18-3.027 7.25-3.027 2.85 0 5.1.866 6.76 2.597 1.65 1.732 2.48 4.115 2.48 7.149v2.48h-14.4c.07 2.097.64 3.711 1.7 4.844 1.07 1.12 2.58 1.68 4.52 1.68 1.27 0 2.46-.117 3.55-.352 1.11-.247 2.29-.651 3.55-1.211v3.731c-1.12.534-2.25.911-3.39 1.133-1.15.221-2.46.332-3.93.332zm-.84-18.907c-1.46 0-2.63.463-3.51 1.387-.88.925-1.4 2.272-1.57 4.043h9.81c-.03-1.784-.46-3.131-1.29-4.043-.84-.924-1.98-1.387-3.44-1.387zm25.49-3.476c2.69 0 4.79.976 6.29 2.93 1.51 1.953 2.26 4.694 2.26 8.222 0 3.542-.76 6.302-2.28 8.281-1.53 1.967-3.64 2.95-6.35 2.95-2.73 0-4.86-.983-6.37-2.95h-.31l-.84 2.559h-3.44v-30.391h4.59v7.227c0 .534-.02 1.328-.07 2.383-.06 1.054-.1 1.725-.12 2.011h.19c1.46-2.148 3.61-3.222 6.45-3.222zm-1.19 3.75c-1.85 0-3.19.547-4.01 1.64-.8 1.081-1.22 2.898-1.25 5.45v.312c0 2.63.42 4.538 1.25 5.723.84 1.172 2.2 1.758 4.09 1.758 1.62 0 2.85-.645 3.69-1.934.84-1.289 1.27-3.151 1.27-5.586 0-4.909-1.68-7.363-5.04-7.363zm25.92.117h-5.28V427h-4.61v-18.125h-3.55v-2.148l3.55-1.407v-1.406c0-2.552.6-4.44 1.8-5.664 1.2-1.237 3.03-1.855 5.49-1.855 1.61 0 3.2.266 4.76.8l-1.21 3.477c-1.13-.365-2.21-.547-3.24-.547-1.04 0-1.8.326-2.28.977-.47.638-.71 1.601-.71 2.89v1.406h5.28v3.477zm8.26 18.125h-4.59v-30.391h4.59V427zm25.76-10.84c0 3.529-.91 6.283-2.72 8.262s-4.33 2.969-7.55 2.969c-2.02 0-3.81-.456-5.36-1.368-1.55-.911-2.74-2.22-3.57-3.925-.83-1.706-1.25-3.685-1.25-5.938 0-3.502.9-6.237 2.7-8.203 1.79-1.966 4.32-2.949 7.59-2.949 3.13 0 5.6 1.009 7.42 3.027 1.83 2.005 2.74 4.714 2.74 8.125zm-15.72 0c0 4.987 1.84 7.481 5.52 7.481 3.65 0 5.47-2.494 5.47-7.481 0-4.935-1.83-7.402-5.51-7.402-1.92 0-3.32.638-4.19 1.914-.86 1.276-1.29 3.105-1.29 5.488zm38.73 10.84l-2.8-10.078c-.33-1.068-.95-3.548-1.83-7.442h-.18c-.75 3.516-1.35 6.01-1.79 7.481L1113.16 427h-5.07l-6.06-21.602h4.69l2.75 10.645c.63 2.63 1.07 4.883 1.33 6.758h.12c.13-.951.32-2.038.58-3.262.28-1.237.51-2.161.71-2.773l3.28-11.368h5.04l3.18 11.368c.2.638.44 1.614.72 2.929.3 1.315.48 2.338.53 3.067h.16c.19-1.602.65-3.841 1.36-6.719l2.8-10.645h4.61l-6.1 21.602h-5.15z" fill="#000"/><g clip-path="url(#b)" fill="#4D4D4D"><path d="M124.001 223.992c-1.994 0-3.72.73-5.177 2.186L80.51 264.492H50.365c-1.996 0-3.721.73-5.179 2.186-1.457 1.457-2.186 3.184-2.186 5.178v44.175c0 1.994.729 3.721 2.186 5.177 1.459 1.457 3.185 2.187 5.179 2.187h30.144l38.313 38.314c1.458 1.456 3.183 2.186 5.177 2.186 1.996 0 3.722-.73 5.179-2.186 1.457-1.456 2.186-3.183 2.186-5.177v-125.18c0-1.994-.729-3.721-2.185-5.178-1.458-1.456-3.183-2.186-5.178-2.186m46.659 86.243c3.261-5.024 4.891-10.449 4.891-16.279s-1.63-11.281-4.891-16.344c-3.262-5.062-7.573-8.628-12.944-10.7-.767-.383-1.727-.575-2.877-.575-1.994 0-3.721.711-5.177 2.128-1.456 1.427-2.188 3.165-2.188 5.236 0 1.611.461 2.972 1.383 4.085a13.457 13.457 0 0 0 3.337 2.877 59.076 59.076 0 0 1 3.912 2.646c1.305.959 2.416 2.321 3.337 4.084.918 1.766 1.38 3.952 1.38 6.56 0 2.609-.461 4.795-1.38 6.56-.921 1.765-2.032 3.125-3.337 4.086a59.467 59.467 0 0 1-3.912 2.646 13.47 13.47 0 0 0-3.337 2.875c-.921 1.115-1.383 2.475-1.383 4.086 0 2.072.732 3.816 2.188 5.235 1.456 1.412 3.183 2.13 5.177 2.13 1.15 0 2.11-.192 2.877-.574 5.371-2.151 9.683-5.738 12.944-10.762"/><path d="M195.219 326.457c6.52-9.928 9.781-20.767 9.781-32.509 0-11.737-3.261-22.57-9.781-32.51-6.52-9.927-15.152-17.161-25.889-21.687a8.284 8.284 0 0 0-2.99-.575c-1.994 0-3.721.729-5.18 2.186-1.456 1.458-2.184 3.183-2.184 5.178 0 2.992 1.495 5.254 4.488 6.789 4.294 2.225 7.209 3.912 8.743 5.062 5.677 4.143 10.106 9.339 13.289 15.591 3.183 6.252 4.774 12.906 4.774 19.969 0 7.056-1.591 13.711-4.774 19.968-3.183 6.254-7.613 11.448-13.289 15.591-1.534 1.151-4.449 2.839-8.743 5.063-2.993 1.535-4.488 3.798-4.488 6.79 0 1.994.728 3.721 2.184 5.177 1.459 1.459 3.222 2.188 5.293 2.188.921 0 1.881-.194 2.877-.575 10.737-4.528 19.369-11.757 25.889-21.69"/></g><path d="M56.137 426l-2.852-7.93H42.367L39.574 426h-4.922l10.684-28.672h5.078L61.098 426h-4.961zm-4.082-11.953l-2.676-7.774a52.394 52.394 0 0 1-.82-2.461 59.072 59.072 0 0 1-.703-2.46c-.352 1.601-.866 3.352-1.544 5.253l-2.578 7.442h8.32zM79.613 426l-.644-2.832h-.235c-.638 1.003-1.55 1.79-2.734 2.363-1.172.573-2.513.86-4.023.86-2.618 0-4.57-.651-5.86-1.953-1.289-1.303-1.933-3.275-1.933-5.918v-14.122h4.629v13.321c0 1.653.338 2.897 1.015 3.73.677.821 1.738 1.231 3.184 1.231 1.927 0 3.34-.573 4.238-1.719.912-1.159 1.367-3.093 1.367-5.801v-10.762h4.61V426h-3.614zm17.442.391c-2.696 0-4.799-.977-6.309-2.93-1.51-1.953-2.265-4.694-2.265-8.223 0-3.541.761-6.295 2.285-8.261 1.536-1.98 3.658-2.969 6.367-2.969 2.838 0 5 1.048 6.484 3.144h.235c-.222-1.549-.332-2.773-.332-3.672v-7.871h4.609V426h-3.594l-.801-2.832h-.214c-1.472 2.148-3.627 3.223-6.465 3.223zm1.23-3.711c1.888 0 3.262-.528 4.121-1.582.86-1.068 1.302-2.793 1.328-5.176v-.645c0-2.721-.442-4.655-1.328-5.8-.885-1.146-2.272-1.719-4.16-1.719-1.614 0-2.858.657-3.73 1.972-.873 1.303-1.309 3.165-1.309 5.586 0 2.396.423 4.226 1.27 5.489.846 1.25 2.115 1.875 3.808 1.875zm20.996 3.32h-4.59v-21.602h4.59V426zm-4.863-27.324c0-.821.221-1.452.664-1.895.456-.442 1.1-.664 1.934-.664.807 0 1.432.222 1.875.664.455.443.683 1.074.683 1.895 0 .781-.228 1.4-.683 1.855-.443.443-1.068.664-1.875.664-.834 0-1.478-.221-1.934-.664-.443-.455-.664-1.074-.664-1.855zm30.605 16.484c0 3.529-.905 6.283-2.714 8.262-1.81 1.979-4.33 2.969-7.559 2.969-2.018 0-3.802-.456-5.352-1.368-1.549-.911-2.74-2.22-3.574-3.925-.833-1.706-1.25-3.685-1.25-5.938 0-3.502.899-6.237 2.696-8.203 1.796-1.966 4.329-2.949 7.597-2.949 3.125 0 5.599 1.009 7.422 3.027 1.823 2.005 2.734 4.714 2.734 8.125zm-15.722 0c0 4.987 1.842 7.481 5.527 7.481 3.646 0 5.469-2.494 5.469-7.481 0-4.935-1.836-7.402-5.508-7.402-1.927 0-3.327.638-4.199 1.914-.86 1.276-1.289 3.105-1.289 5.488zm42.246-7.285h-5.274V426h-4.609v-18.125h-3.555v-2.148l3.555-1.407v-1.406c0-2.552.599-4.44 1.797-5.664 1.198-1.237 3.027-1.855 5.488-1.855 1.615 0 3.203.266 4.766.8l-1.211 3.477c-1.133-.365-2.214-.547-3.242-.547-1.042 0-1.804.326-2.285.977-.469.638-.704 1.601-.704 2.89v1.406h5.274v3.477zM179.809 426h-4.59v-21.602h4.59V426zm-4.864-27.324c0-.821.222-1.452.664-1.895.456-.442 1.101-.664 1.934-.664.807 0 1.432.222 1.875.664.456.443.684 1.074.684 1.895 0 .781-.228 1.4-.684 1.855-.443.443-1.068.664-1.875.664-.833 0-1.478-.221-1.934-.664-.442-.455-.664-1.074-.664-1.855zM191 426h-4.59v-30.391H191V426zm16.016.391c-3.36 0-5.99-.977-7.891-2.93-1.888-1.966-2.832-4.668-2.832-8.106 0-3.528.879-6.302 2.637-8.32 1.758-2.018 4.173-3.027 7.246-3.027 2.851 0 5.104.866 6.758 2.597 1.653 1.732 2.48 4.115 2.48 7.149v2.48H201.02c.065 2.097.631 3.711 1.699 4.844 1.067 1.12 2.571 1.68 4.511 1.68 1.277 0 2.461-.117 3.555-.352 1.107-.247 2.292-.651 3.555-1.211v3.731a14.12 14.12 0 0 1-3.399 1.133c-1.145.221-2.454.332-3.925.332zm-.84-18.907c-1.459 0-2.63.463-3.516 1.387-.872.925-1.393 2.272-1.562 4.043h9.804c-.026-1.784-.455-3.131-1.289-4.043-.833-.924-1.979-1.387-3.437-1.387z" fill="#000"/><path d="M910.768 310.768a2.501 2.501 0 0 0 0-3.536l-15.91-15.91a2.501 2.501 0 0 0-3.536 3.536L905.464 309l-14.142 14.142a2.501 2.501 0 0 0 3.536 3.536l15.91-15.91zM729 311.5h180v-5H729v5zm-280.232-.732a2.501 2.501 0 0 0 0-3.536l-15.91-15.91a2.501 2.501 0 0 0-3.536 3.536L443.464 309l-14.142 14.142a2.501 2.501 0 0 0 3.536 3.536l15.91-15.91zM267 311.5h180v-5H267v5z" fill="#AAA"/><path d="M486.594 407.078c0 2.982-.977 5.267-2.93 6.856-1.953 1.588-4.733 2.382-8.34 2.382h-2.969V427h-4.667v-28.555h8.222c3.568 0 6.237.729 8.008 2.188 1.784 1.458 2.676 3.607 2.676 6.445zm-14.239 5.313h2.481c2.396 0 4.154-.417 5.273-1.25 1.12-.834 1.68-2.136 1.68-3.907 0-1.64-.501-2.864-1.504-3.672-1.002-.807-2.565-1.21-4.687-1.21h-3.243v10.039zm38.614 3.769c0 3.529-.905 6.283-2.715 8.262-1.81 1.979-4.33 2.969-7.559 2.969-2.018 0-3.802-.456-5.351-1.368-1.55-.911-2.741-2.22-3.574-3.925-.834-1.706-1.25-3.685-1.25-5.938 0-3.502.898-6.237 2.695-8.203 1.797-1.966 4.329-2.949 7.597-2.949 3.126 0 5.599 1.009 7.422 3.027 1.823 2.005 2.735 4.714 2.735 8.125zm-15.723 0c0 4.987 1.843 7.481 5.527 7.481 3.646 0 5.469-2.494 5.469-7.481 0-4.935-1.836-7.402-5.508-7.402-1.927 0-3.326.638-4.199 1.914-.859 1.276-1.289 3.105-1.289 5.488zm28.301 11.231c-2.695 0-4.798-.977-6.309-2.93-1.51-1.953-2.265-4.694-2.265-8.223 0-3.541.761-6.295 2.285-8.261 1.536-1.98 3.659-2.969 6.367-2.969 2.839 0 5 1.048 6.484 3.144h.235c-.222-1.549-.332-2.773-.332-3.672v-7.871h4.609V427h-3.594l-.8-2.832h-.215c-1.472 2.148-3.627 3.223-6.465 3.223zm1.23-3.711c1.888 0 3.262-.528 4.121-1.582.86-1.068 1.303-2.793 1.329-5.176v-.645c0-2.721-.443-4.655-1.329-5.8-.885-1.146-2.272-1.719-4.16-1.719-1.614 0-2.858.657-3.73 1.972-.873 1.303-1.309 3.165-1.309 5.586 0 2.396.423 4.226 1.27 5.489.846 1.25 2.116 1.875 3.808 1.875zm25.118 3.711c-3.269 0-5.756-.951-7.461-2.852-1.693-1.914-2.539-4.655-2.539-8.223 0-3.632.885-6.425 2.656-8.378 1.784-1.954 4.355-2.93 7.715-2.93 2.278 0 4.329.423 6.152 1.269l-1.387 3.692c-1.94-.755-3.541-1.133-4.804-1.133-3.737 0-5.606 2.48-5.606 7.441 0 2.422.462 4.245 1.387 5.469.937 1.211 2.304 1.816 4.101 1.816 2.045 0 3.978-.507 5.801-1.523v4.004a9.027 9.027 0 0 1-2.637 1.035c-.924.208-2.05.313-3.378.313zm24.609-.391l-.918-3.008h-.156c-1.042 1.315-2.09 2.214-3.145 2.696-1.055.468-2.409.703-4.062.703-2.123 0-3.783-.573-4.981-1.719-1.185-1.146-1.777-2.767-1.777-4.863 0-2.227.827-3.907 2.48-5.039 1.654-1.133 4.173-1.752 7.559-1.856l3.73-.117v-1.152c0-1.381-.325-2.409-.976-3.086-.638-.691-1.634-1.036-2.988-1.036-1.107 0-2.168.163-3.184.489a23.905 23.905 0 0 0-2.93 1.152l-1.484-3.281a15.702 15.702 0 0 1 3.848-1.387c1.393-.325 2.708-.488 3.945-.488 2.747 0 4.818.599 6.211 1.797 1.406 1.198 2.109 3.079 2.109 5.644V427h-3.281zm-6.836-3.125c1.667 0 3.001-.462 4.004-1.387 1.016-.937 1.523-2.246 1.523-3.926v-1.874l-2.773.117c-2.162.078-3.737.442-4.727 1.093-.976.638-1.465 1.622-1.465 2.95 0 .963.287 1.712.86 2.246.573.521 1.432.781 2.578.781zm31.035-3.027c0 2.109-.768 3.73-2.305 4.863-1.536 1.12-3.737 1.68-6.601 1.68-2.878 0-5.189-.437-6.934-1.309v-3.965c2.539 1.172 4.903 1.758 7.09 1.758 2.826 0 4.238-.853 4.238-2.559 0-.546-.156-1.002-.468-1.367-.313-.364-.827-.742-1.543-1.133-.716-.39-1.713-.833-2.989-1.328-2.487-.963-4.173-1.927-5.058-2.89-.873-.964-1.309-2.214-1.309-3.75 0-1.849.742-3.282 2.227-4.297 1.497-1.029 3.528-1.543 6.094-1.543 2.539 0 4.941.514 7.207 1.543l-1.485 3.457c-2.331-.964-4.29-1.446-5.879-1.446-2.422 0-3.633.691-3.633 2.071 0 .677.313 1.25.938 1.719.638.468 2.018 1.113 4.141 1.933 1.783.69 3.079 1.322 3.886 1.895.808.573 1.407 1.237 1.797 1.992.391.742.586 1.634.586 2.676zm13.027 2.832c1.12 0 2.24-.176 3.36-.528v3.457c-.508.222-1.166.404-1.973.547a12.84 12.84 0 0 1-2.48.235c-4.349 0-6.524-2.292-6.524-6.875v-11.641h-2.949v-2.031l3.164-1.68 1.563-4.57h2.832v4.804h6.152v3.477h-6.152v11.563c0 1.106.273 1.927.82 2.46.56.521 1.289.782 2.187.782zm28.926-14.805h-5.273V427h-4.61v-18.125h-3.554v-2.148l3.554-1.407v-1.406c0-2.552.599-4.44 1.797-5.664 1.198-1.237 3.028-1.855 5.489-1.855 1.614 0 3.203.266 4.765.8l-1.211 3.477c-1.133-.365-2.213-.547-3.242-.547-1.042 0-1.803.326-2.285.977-.469.638-.703 1.601-.703 2.89v1.406h5.273v3.477zm13.125 18.516c-3.359 0-5.989-.977-7.89-2.93-1.888-1.966-2.832-4.668-2.832-8.106 0-3.528.879-6.302 2.636-8.32 1.758-2.018 4.173-3.027 7.246-3.027 2.852 0 5.105.866 6.758 2.597 1.654 1.732 2.481 4.115 2.481 7.149v2.48h-14.395c.065 2.097.632 3.711 1.699 4.844 1.068 1.12 2.572 1.68 4.512 1.68 1.276 0 2.461-.117 3.555-.352 1.107-.247 2.291-.651 3.554-1.211v3.731a14.098 14.098 0 0 1-3.398 1.133c-1.146.221-2.454.332-3.926.332zm-.84-18.907c-1.458 0-2.63.463-3.515 1.387-.873.925-1.393 2.272-1.563 4.043h9.805c-.026-1.784-.456-3.131-1.289-4.043-.833-.924-1.979-1.387-3.438-1.387zm23.887 18.907c-3.359 0-5.989-.977-7.89-2.93-1.889-1.966-2.833-4.668-2.833-8.106 0-3.528.879-6.302 2.637-8.32 1.758-2.018 4.173-3.027 7.246-3.027 2.852 0 5.104.866 6.758 2.597 1.654 1.732 2.481 4.115 2.481 7.149v2.48h-14.395c.065 2.097.632 3.711 1.699 4.844 1.068 1.12 2.572 1.68 4.512 1.68 1.276 0 2.461-.117 3.555-.352 1.106-.247 2.291-.651 3.554-1.211v3.731a14.098 14.098 0 0 1-3.398 1.133c-1.146.221-2.455.332-3.926.332zm-.84-18.907c-1.458 0-2.63.463-3.515 1.387-.873.925-1.394 2.272-1.563 4.043h9.805c-.026-1.784-.456-3.131-1.289-4.043-.834-.924-1.979-1.387-3.438-1.387zm21.739 18.907c-2.696 0-4.799-.977-6.309-2.93-1.51-1.953-2.266-4.694-2.266-8.223 0-3.541.762-6.295 2.286-8.261 1.536-1.98 3.658-2.969 6.367-2.969 2.838 0 5 1.048 6.484 3.144h.234c-.221-1.549-.332-2.773-.332-3.672v-7.871h4.61V427h-3.594l-.801-2.832h-.215c-1.471 2.148-3.626 3.223-6.464 3.223zm1.23-3.711c1.888 0 3.262-.528 4.121-1.582.86-1.068 1.302-2.793 1.328-5.176v-.645c0-2.721-.442-4.655-1.328-5.8-.885-1.146-2.272-1.719-4.16-1.719-1.615 0-2.858.657-3.73 1.972-.873 1.303-1.309 3.165-1.309 5.586 0 2.396.423 4.226 1.269 5.489.847 1.25 2.116 1.875 3.809 1.875z" fill="#000"/><path d="M638.625 214h-101.25C520.599 214 507 227.599 507 244.375v101.25C507 362.401 520.599 376 537.375 376h101.25C655.401 376 669 362.401 669 345.625v-101.25C669 227.599 655.401 214 638.625 214z" fill="#FFA500"/><path d="M547.5 355.75c11.184 0 20.25-9.066 20.25-20.25s-9.066-20.25-20.25-20.25-20.25 9.066-20.25 20.25 9.066 20.25 20.25 20.25z" fill="#fff"/><path d="M527.25 295A60.75 60.75 0 0 1 588 355.75h20.25a81.003 81.003 0 0 0-81-81V295z" fill="#fff"/><path d="M527.25 254.5a101.26 101.26 0 0 1 71.595 29.655A101.263 101.263 0 0 1 628.5 355.75h20.25a121.496 121.496 0 0 0-35.587-85.913 121.496 121.496 0 0 0-85.913-35.587v20.25z" fill="#fff"/><path d="M244.664 510.766c0 2.89-.99 5.117-2.969 6.679-1.966 1.55-4.785 2.325-8.457 2.325h-3.359V531h-3.32v-28.555h7.402c7.135 0 10.703 2.774 10.703 8.321zm-14.785 6.152h2.988c2.943 0 5.072-.475 6.387-1.426 1.315-.95 1.973-2.474 1.973-4.57 0-1.888-.619-3.294-1.856-4.219-1.237-.924-3.164-1.387-5.781-1.387h-3.711v11.602zm23.34-7.324v13.886c0 1.745.397 3.047 1.191 3.907.794.859 2.038 1.289 3.731 1.289 2.239 0 3.873-.612 4.902-1.836 1.042-1.224 1.562-3.223 1.562-5.996v-11.25h3.243V531h-2.676l-.469-2.871h-.176c-.664 1.055-1.588 1.862-2.773 2.422-1.172.56-2.513.84-4.024.84-2.604 0-4.557-.619-5.859-1.856-1.289-1.237-1.933-3.216-1.933-5.937v-14.004h3.281zm31.484-.352c2.813 0 4.994.964 6.543 2.891 1.563 1.914 2.344 4.629 2.344 8.144 0 3.516-.788 6.25-2.363 8.203-1.563 1.941-3.737 2.911-6.524 2.911-1.393 0-2.669-.254-3.828-.762-1.146-.521-2.109-1.315-2.891-2.383h-.234l-.684 2.754h-2.324v-30.391h3.242v7.383c0 1.654-.052 3.138-.156 4.453h.156c1.511-2.135 3.75-3.203 6.719-3.203zm-.469 2.715c-2.213 0-3.808.638-4.785 1.914-.976 1.263-1.465 3.399-1.465 6.406 0 3.008.502 5.163 1.504 6.465 1.003 1.289 2.611 1.934 4.824 1.934 1.993 0 3.477-.723 4.454-2.168.976-1.459 1.464-3.548 1.464-6.27 0-2.786-.488-4.863-1.464-6.23-.977-1.367-2.487-2.051-4.532-2.051zM302.516 531h-3.243v-30.391h3.243V531zm10.117 0h-3.242v-21.406h3.242V531zm-3.516-27.207c0-.742.182-1.283.547-1.621.365-.352.82-.527 1.367-.527.521 0 .97.175 1.348.527.378.351.566.892.566 1.621s-.188 1.276-.566 1.641a1.914 1.914 0 0 1-1.348.527c-.547 0-1.002-.176-1.367-.527-.365-.365-.547-.912-.547-1.641zm24.199 21.367c0 1.992-.742 3.529-2.226 4.61-1.485 1.08-3.568 1.621-6.25 1.621-2.839 0-5.052-.45-6.641-1.348v-3.008c1.029.521 2.129.931 3.301 1.231 1.185.299 2.324.449 3.418.449 1.693 0 2.995-.267 3.906-.801.912-.547 1.367-1.374 1.367-2.48 0-.834-.364-1.543-1.093-2.129-.716-.599-2.123-1.302-4.219-2.11-1.992-.742-3.412-1.386-4.258-1.933-.833-.56-1.458-1.192-1.875-1.895-.404-.703-.605-1.543-.605-2.519 0-1.745.709-3.119 2.129-4.121 1.419-1.016 3.365-1.524 5.839-1.524 2.305 0 4.558.469 6.758 1.406l-1.152 2.637c-2.149-.885-4.095-1.328-5.84-1.328-1.536 0-2.695.241-3.477.723-.781.481-1.171 1.145-1.171 1.992 0 .573.143 1.061.429 1.465.3.403.775.787 1.426 1.152.651.365 1.901.892 3.75 1.582 2.539.925 4.251 1.856 5.137 2.793.898.937 1.347 2.116 1.347 3.535zm19.942 5.84v-13.848c0-1.744-.397-3.047-1.192-3.906-.794-.859-2.037-1.289-3.73-1.289-2.253 0-3.9.612-4.941 1.836-1.029 1.224-1.543 3.229-1.543 6.016V531h-3.243v-30.391h3.243v9.2c0 1.106-.053 2.024-.157 2.753h.196c.638-1.028 1.543-1.835 2.714-2.421 1.185-.599 2.533-.899 4.043-.899 2.618 0 4.577.625 5.879 1.875 1.315 1.237 1.973 3.21 1.973 5.918V531h-3.242zm16.914-21.406h3.476l4.688 12.207c1.029 2.786 1.667 4.798 1.914 6.035h.156c.17-.664.521-1.797 1.055-3.398.547-1.615 2.318-6.563 5.312-14.844h3.477l-9.199 24.375c-.912 2.409-1.979 4.114-3.203 5.117-1.211 1.016-2.702 1.523-4.473 1.523-.99 0-1.966-.11-2.93-.332v-2.597a11.32 11.32 0 0 0 2.403.234c2.226 0 3.815-1.25 4.765-3.75l1.192-3.047-8.633-21.523zm42.031 10.683c0 3.49-.879 6.218-2.637 8.184-1.757 1.953-4.186 2.93-7.285 2.93-1.914 0-3.613-.45-5.097-1.348-1.485-.898-2.631-2.188-3.438-3.867-.807-1.68-1.211-3.646-1.211-5.899 0-3.489.873-6.204 2.617-8.144 1.745-1.953 4.167-2.93 7.266-2.93 2.995 0 5.371.996 7.129 2.988 1.771 1.993 2.656 4.688 2.656 8.086zm-16.308 0c0 2.735.546 4.818 1.64 6.25 1.094 1.433 2.702 2.149 4.824 2.149 2.123 0 3.731-.71 4.825-2.129 1.106-1.432 1.66-3.522 1.66-6.27 0-2.721-.554-4.785-1.66-6.191-1.094-1.419-2.715-2.129-4.864-2.129-2.122 0-3.724.697-4.804 2.09-1.081 1.393-1.621 3.47-1.621 6.23zm25.058-10.683v13.886c0 1.745.397 3.047 1.192 3.907.794.859 2.037 1.289 3.73 1.289 2.24 0 3.874-.612 4.902-1.836 1.042-1.224 1.563-3.223 1.563-5.996v-11.25h3.242V531h-2.676l-.468-2.871h-.176c-.664 1.055-1.589 1.862-2.774 2.422-1.172.56-2.513.84-4.023.84-2.604 0-4.557-.619-5.86-1.856-1.289-1.237-1.933-3.216-1.933-5.937v-14.004h3.281zm31.289-.391c.951 0 1.804.078 2.559.235l-.449 3.007c-.886-.195-1.667-.293-2.344-.293-1.732 0-3.216.703-4.453 2.11-1.224 1.406-1.836 3.157-1.836 5.254V531h-3.242v-21.406h2.675l.371 3.965h.157c.794-1.394 1.751-2.468 2.871-3.223a6.464 6.464 0 0 1 3.691-1.133zM196.07 585.391c-3.164 0-5.664-.964-7.5-2.891-1.823-1.927-2.734-4.603-2.734-8.027 0-3.451.846-6.192 2.539-8.223 1.706-2.031 3.991-3.047 6.855-3.047 2.683 0 4.805.886 6.368 2.656 1.562 1.758 2.343 4.082 2.343 6.973v2.051h-14.746c.065 2.513.697 4.42 1.895 5.722 1.211 1.303 2.91 1.954 5.098 1.954 2.304 0 4.583-.482 6.835-1.446v2.891c-1.145.495-2.233.846-3.261 1.055-1.016.221-2.246.332-3.692.332zm-.879-19.473c-1.718 0-3.092.56-4.121 1.68-1.015 1.119-1.614 2.669-1.797 4.648h11.192c0-2.044-.456-3.607-1.367-4.687-.912-1.094-2.214-1.641-3.907-1.641zm24.258 19.473c-1.393 0-2.669-.254-3.828-.762-1.146-.521-2.109-1.315-2.891-2.383h-.234a28.76 28.76 0 0 1 .234 3.555v8.808h-3.242v-31.015h2.637l.449 2.929h.156c.834-1.171 1.804-2.018 2.911-2.539 1.106-.52 2.376-.781 3.808-.781 2.839 0 5.026.97 6.563 2.91 1.549 1.94 2.324 4.662 2.324 8.164 0 3.516-.788 6.25-2.363 8.203-1.563 1.941-3.737 2.911-6.524 2.911zm-.469-19.434c-2.187 0-3.769.605-4.746 1.816-.976 1.211-1.477 3.138-1.504 5.782v.722c0 3.008.502 5.163 1.504 6.465 1.003 1.289 2.611 1.934 4.825 1.934 1.849 0 3.294-.749 4.336-2.246 1.054-1.498 1.582-3.562 1.582-6.192 0-2.669-.528-4.713-1.582-6.133-1.042-1.432-2.513-2.148-4.415-2.148zM237.262 585h-3.242v-21.406h3.242V585zm-3.516-27.207c0-.742.182-1.283.547-1.621.365-.352.82-.527 1.367-.527.521 0 .97.175 1.348.527.377.351.566.892.566 1.621s-.189 1.276-.566 1.641a1.914 1.914 0 0 1-1.348.527c-.547 0-1.002-.176-1.367-.527-.365-.365-.547-.912-.547-1.641zm24.199 21.367c0 1.992-.742 3.529-2.226 4.61-1.485 1.08-3.568 1.621-6.25 1.621-2.839 0-5.052-.45-6.641-1.348v-3.008c1.029.521 2.129.931 3.301 1.231 1.185.299 2.324.449 3.418.449 1.693 0 2.995-.267 3.906-.801.912-.547 1.367-1.374 1.367-2.48 0-.834-.364-1.543-1.093-2.129-.717-.599-2.123-1.302-4.219-2.11-1.992-.742-3.412-1.386-4.258-1.933-.833-.56-1.458-1.192-1.875-1.895-.404-.703-.605-1.543-.605-2.519 0-1.745.709-3.119 2.128-4.121 1.42-1.016 3.366-1.524 5.84-1.524 2.305 0 4.558.469 6.758 1.406l-1.152 2.637c-2.149-.885-4.095-1.328-5.84-1.328-1.537 0-2.695.241-3.477.723-.781.481-1.172 1.145-1.172 1.992 0 .573.144 1.061.43 1.465.3.403.775.787 1.426 1.152.651.365 1.901.892 3.75 1.582 2.539.925 4.251 1.856 5.137 2.793.898.937 1.347 2.116 1.347 3.535zm23.77-4.883c0 3.49-.879 6.218-2.637 8.184-1.758 1.953-4.186 2.93-7.285 2.93-1.914 0-3.613-.45-5.098-1.348-1.484-.898-2.63-2.188-3.437-3.867-.807-1.68-1.211-3.646-1.211-5.899 0-3.489.872-6.204 2.617-8.144 1.745-1.953 4.167-2.93 7.266-2.93 2.994 0 5.371.996 7.129 2.988 1.77 1.993 2.656 4.688 2.656 8.086zm-16.309 0c0 2.735.547 4.818 1.641 6.25 1.094 1.433 2.702 2.149 4.824 2.149s3.731-.71 4.824-2.129c1.107-1.432 1.66-3.522 1.66-6.27 0-2.721-.553-4.785-1.66-6.191-1.093-1.419-2.715-2.129-4.863-2.129-2.122 0-3.724.697-4.805 2.09-1.08 1.393-1.621 3.47-1.621 6.23zm36.582 7.852h-.176c-1.497 2.174-3.736 3.262-6.718 3.262-2.8 0-4.981-.957-6.543-2.871-1.55-1.915-2.324-4.636-2.324-8.165 0-3.528.781-6.269 2.343-8.222 1.563-1.953 3.737-2.93 6.524-2.93 2.903 0 5.13 1.055 6.679 3.164h.254l-.136-1.543-.079-1.504v-8.711h3.243V585h-2.637l-.43-2.871zm-6.484.547c2.213 0 3.815-.599 4.805-1.797 1.002-1.211 1.503-3.158 1.503-5.84v-.684c0-3.033-.507-5.195-1.523-6.484-1.003-1.302-2.611-1.953-4.824-1.953-1.901 0-3.36.742-4.375 2.227-1.003 1.471-1.504 3.554-1.504 6.25 0 2.734.501 4.798 1.504 6.191 1.002 1.393 2.474 2.09 4.414 2.09zm25.488 2.715c-3.164 0-5.664-.964-7.5-2.891-1.823-1.927-2.734-4.603-2.734-8.027 0-3.451.846-6.192 2.539-8.223 1.706-2.031 3.991-3.047 6.855-3.047 2.683 0 4.805.886 6.368 2.656 1.562 1.758 2.343 4.082 2.343 6.973v2.051h-14.746c.065 2.513.697 4.42 1.895 5.722 1.211 1.303 2.91 1.954 5.097 1.954 2.305 0 4.584-.482 6.836-1.446v2.891c-1.146.495-2.233.846-3.261 1.055-1.016.221-2.246.332-3.692.332zm-.879-19.473c-1.718 0-3.092.56-4.121 1.68-1.015 1.119-1.614 2.669-1.797 4.648h11.192c0-2.044-.456-3.607-1.367-4.687-.912-1.094-2.214-1.641-3.907-1.641zm28.106 13.242c0 1.992-.742 3.529-2.227 4.61-1.484 1.08-3.568 1.621-6.25 1.621-2.838 0-5.052-.45-6.64-1.348v-3.008c1.028.521 2.128.931 3.3 1.231 1.185.299 2.325.449 3.418.449 1.693 0 2.995-.267 3.907-.801.911-.547 1.367-1.374 1.367-2.48 0-.834-.365-1.543-1.094-2.129-.716-.599-2.122-1.302-4.219-2.11-1.992-.742-3.411-1.386-4.258-1.933-.833-.56-1.458-1.192-1.875-1.895-.403-.703-.605-1.543-.605-2.519 0-1.745.71-3.119 2.129-4.121 1.419-1.016 3.366-1.524 5.84-1.524 2.304 0 4.557.469 6.758 1.406l-1.153 2.637c-2.148-.885-4.095-1.328-5.84-1.328-1.536 0-2.695.241-3.476.723-.781.481-1.172 1.145-1.172 1.992 0 .573.143 1.061.43 1.465.299.403.774.787 1.425 1.152.651.365 1.901.892 3.75 1.582 2.539.925 4.252 1.856 5.137 2.793.899.937 1.348 2.116 1.348 3.535zm22.597 3.555c.573 0 1.127-.039 1.661-.117.533-.091.957-.183 1.269-.274v2.481c-.351.169-.872.306-1.562.41-.677.117-1.289.176-1.836.176-4.141 0-6.211-2.181-6.211-6.543v-12.735h-3.067v-1.562l3.067-1.348 1.367-4.57h1.875v4.961h6.211v2.519h-6.211v12.598c0 1.289.306 2.279.918 2.969.612.69 1.452 1.035 2.519 1.035zm25.704-8.438c0 3.49-.879 6.218-2.637 8.184-1.758 1.953-4.186 2.93-7.285 2.93-1.914 0-3.614-.45-5.098-1.348-1.484-.898-2.63-2.188-3.438-3.867-.807-1.68-1.21-3.646-1.21-5.899 0-3.489.872-6.204 2.617-8.144 1.745-1.953 4.166-2.93 7.265-2.93 2.995 0 5.371.996 7.129 2.988 1.771 1.993 2.657 4.688 2.657 8.086zm-16.309 0c0 2.735.547 4.818 1.641 6.25 1.093 1.433 2.701 2.149 4.824 2.149 2.122 0 3.73-.71 4.824-2.129 1.107-1.432 1.66-3.522 1.66-6.27 0-2.721-.553-4.785-1.66-6.191-1.094-1.419-2.715-2.129-4.863-2.129-2.123 0-3.724.697-4.805 2.09-1.081 1.393-1.621 3.47-1.621 6.23zm29.004-10.683h3.476l4.688 12.207c1.029 2.786 1.667 4.798 1.914 6.035h.156c.169-.664.521-1.797 1.055-3.398.547-1.615 2.318-6.563 5.312-14.844h3.477l-9.199 24.375c-.912 2.409-1.979 4.114-3.203 5.117-1.211 1.016-2.702 1.523-4.473 1.523-.99 0-1.966-.11-2.93-.332v-2.597a11.32 11.32 0 0 0 2.403.234c2.226 0 3.815-1.25 4.765-3.75l1.192-3.047-8.633-21.523zm42.031 10.683c0 3.49-.879 6.218-2.637 8.184-1.757 1.953-4.186 2.93-7.285 2.93-1.914 0-3.613-.45-5.097-1.348-1.485-.898-2.631-2.188-3.438-3.867-.807-1.68-1.211-3.646-1.211-5.899 0-3.489.873-6.204 2.617-8.144 1.745-1.953 4.167-2.93 7.266-2.93 2.995 0 5.371.996 7.129 2.988 1.771 1.993 2.656 4.688 2.656 8.086zm-16.308 0c0 2.735.546 4.818 1.64 6.25 1.094 1.433 2.702 2.149 4.824 2.149 2.123 0 3.731-.71 4.825-2.129 1.106-1.432 1.66-3.522 1.66-6.27 0-2.721-.554-4.785-1.66-6.191-1.094-1.419-2.715-2.129-4.864-2.129-2.122 0-3.724.697-4.804 2.09-1.081 1.393-1.621 3.47-1.621 6.23zm25.058-10.683v13.886c0 1.745.397 3.047 1.192 3.907.794.859 2.037 1.289 3.73 1.289 2.24 0 3.874-.612 4.902-1.836 1.042-1.224 1.563-3.223 1.563-5.996v-11.25h3.242V585h-2.676l-.469-2.871h-.175c-.664 1.055-1.589 1.862-2.774 2.422-1.172.56-2.513.84-4.023.84-2.604 0-4.557-.619-5.86-1.856-1.289-1.237-1.933-3.216-1.933-5.937v-14.004h3.281zm31.289-.391c.951 0 1.804.078 2.559.235l-.449 3.007c-.886-.195-1.667-.293-2.344-.293-1.732 0-3.216.703-4.453 2.11-1.224 1.406-1.836 3.157-1.836 5.254V585h-3.242v-21.406h2.675l.371 3.965h.157c.794-1.394 1.751-2.468 2.871-3.223a6.464 6.464 0 0 1 3.691-1.133zm-324.512 76.188c-1.393 0-2.669-.254-3.828-.762-1.146-.521-2.109-1.315-2.89-2.383h-.235c.157 1.25.235 2.435.235 3.555v8.808h-3.243v-31.015h2.637l.449 2.929h.157c.833-1.171 1.803-2.018 2.91-2.539 1.107-.52 2.376-.781 3.808-.781 2.839 0 5.026.97 6.563 2.91 1.549 1.94 2.324 4.662 2.324 8.164 0 3.516-.788 6.25-2.363 8.203-1.563 1.941-3.737 2.911-6.524 2.911zm-.468-19.434c-2.188 0-3.77.605-4.746 1.816-.977 1.211-1.478 3.138-1.504 5.782v.722c0 3.008.501 5.163 1.504 6.465 1.002 1.289 2.61 1.934 4.824 1.934 1.849 0 3.294-.749 4.336-2.246 1.054-1.498 1.582-3.562 1.582-6.192 0-2.669-.528-4.713-1.582-6.133-1.042-1.432-2.513-2.148-4.414-2.148zm33.515 8.32c0 3.49-.879 6.218-2.636 8.184-1.758 1.953-4.187 2.93-7.286 2.93-1.914 0-3.613-.45-5.097-1.348-1.485-.898-2.63-2.188-3.438-3.867-.807-1.68-1.211-3.646-1.211-5.899 0-3.489.873-6.204 2.618-8.144 1.744-1.953 4.166-2.93 7.265-2.93 2.995 0 5.371.996 7.129 2.988 1.771 1.993 2.656 4.688 2.656 8.086zm-16.308 0c0 2.735.547 4.818 1.64 6.25 1.094 1.433 2.702 2.149 4.825 2.149 2.122 0 3.73-.71 4.824-2.129 1.107-1.432 1.66-3.522 1.66-6.27 0-2.721-.553-4.785-1.66-6.191-1.094-1.419-2.715-2.129-4.863-2.129-2.123 0-3.724.697-4.805 2.09-1.081 1.393-1.621 3.47-1.621 6.23zm36.582 7.852h-.176c-1.497 2.174-3.737 3.262-6.719 3.262-2.799 0-4.98-.957-6.543-2.871-1.549-1.915-2.324-4.636-2.324-8.165 0-3.528.781-6.269 2.344-8.222 1.562-1.953 3.737-2.93 6.523-2.93 2.904 0 5.13 1.055 6.68 3.164h.254l-.137-1.543-.078-1.504v-8.711h3.242V639h-2.637l-.429-2.871zm-6.485.547c2.214 0 3.815-.599 4.805-1.797 1.003-1.211 1.504-3.158 1.504-5.84v-.684c0-3.033-.508-5.195-1.523-6.484-1.003-1.302-2.611-1.953-4.825-1.953-1.901 0-3.359.742-4.375 2.227-1.002 1.471-1.504 3.554-1.504 6.25 0 2.734.502 4.798 1.504 6.191 1.003 1.393 2.474 2.09 4.414 2.09zm25 2.715c-3.099 0-5.501-.951-7.207-2.852-1.692-1.914-2.539-4.616-2.539-8.105 0-3.581.86-6.348 2.578-8.301 1.732-1.953 4.193-2.93 7.383-2.93 1.029 0 2.058.111 3.086.332 1.029.222 1.836.482 2.422.781l-.996 2.754a14.558 14.558 0 0 0-2.344-.703c-.846-.195-1.595-.293-2.246-.293-4.349 0-6.523 2.774-6.523 8.321 0 2.63.527 4.648 1.582 6.054 1.067 1.406 2.643 2.11 4.726 2.11 1.784 0 3.614-.385 5.489-1.153v2.871c-1.433.743-3.236 1.114-5.411 1.114zm23.672-.391l-.644-3.047h-.157c-1.067 1.341-2.135 2.253-3.203 2.735-1.054.468-2.376.703-3.965.703-2.122 0-3.789-.547-5-1.641-1.197-1.094-1.796-2.65-1.796-4.668 0-4.323 3.457-6.589 10.371-6.797l3.633-.117v-1.328c0-1.68-.365-2.917-1.094-3.711-.716-.807-1.869-1.211-3.457-1.211-1.784 0-3.802.547-6.055 1.641l-.996-2.481a15.3 15.3 0 0 1 3.457-1.348 15.152 15.152 0 0 1 3.789-.488c2.552 0 4.44.567 5.664 1.699 1.237 1.133 1.856 2.95 1.856 5.45V639h-2.403zm-7.324-2.285c2.018 0 3.6-.554 4.746-1.66 1.159-1.107 1.738-2.657 1.738-4.649v-1.933l-3.242.136c-2.578.092-4.44.495-5.586 1.211-1.133.703-1.699 1.804-1.699 3.301 0 1.172.352 2.064 1.055 2.676.716.612 1.712.918 2.988.918zm30.234-3.555c0 1.992-.742 3.529-2.226 4.61-1.485 1.08-3.568 1.621-6.25 1.621-2.839 0-5.052-.45-6.641-1.348v-3.008c1.029.521 2.129.931 3.301 1.231 1.185.299 2.324.449 3.418.449 1.693 0 2.995-.267 3.906-.801.912-.547 1.367-1.374 1.367-2.48 0-.834-.364-1.543-1.093-2.129-.716-.599-2.123-1.302-4.219-2.11-1.992-.742-3.412-1.386-4.258-1.933-.833-.56-1.458-1.192-1.875-1.895-.404-.703-.605-1.543-.605-2.519 0-1.745.709-3.119 2.129-4.121 1.419-1.016 3.365-1.524 5.839-1.524 2.305 0 4.558.469 6.758 1.406l-1.152 2.637c-2.149-.885-4.095-1.328-5.84-1.328-1.536 0-2.695.241-3.477.723-.781.481-1.171 1.145-1.171 1.992 0 .573.143 1.061.429 1.465.3.403.775.787 1.426 1.152.651.365 1.901.892 3.75 1.582 2.539.925 4.251 1.856 5.137 2.793.898.937 1.347 2.116 1.347 3.535zm12.207 3.555c.573 0 1.127-.039 1.661-.117.533-.091.957-.183 1.269-.274v2.481c-.351.169-.872.306-1.562.41-.677.117-1.289.176-1.836.176-4.141 0-6.211-2.181-6.211-6.543v-12.735h-3.067v-1.562l3.067-1.348 1.367-4.57h1.875v4.961h6.211v2.519h-6.211v12.598c0 1.289.306 2.279.918 2.969.612.69 1.452 1.035 2.519 1.035zM329.664 639v-13.848c0-1.744-.397-3.047-1.191-3.906-.795-.859-2.038-1.289-3.731-1.289-2.252 0-3.9.612-4.941 1.836-1.029 1.224-1.543 3.229-1.543 6.016V639h-3.242v-30.391h3.242v9.2c0 1.106-.052 2.024-.156 2.753h.195c.638-1.028 1.543-1.835 2.715-2.421 1.185-.599 2.532-.899 4.043-.899 2.617 0 4.577.625 5.879 1.875 1.315 1.237 1.972 3.21 1.972 5.918V639h-3.242zm28.398-10.723c0 3.49-.878 6.218-2.636 8.184-1.758 1.953-4.186 2.93-7.285 2.93-1.914 0-3.614-.45-5.098-1.348-1.484-.898-2.63-2.188-3.438-3.867-.807-1.68-1.21-3.646-1.21-5.899 0-3.489.872-6.204 2.617-8.144 1.745-1.953 4.166-2.93 7.265-2.93 2.995 0 5.371.996 7.129 2.988 1.771 1.993 2.656 4.688 2.656 8.086zm-16.308 0c0 2.735.547 4.818 1.641 6.25 1.093 1.433 2.701 2.149 4.824 2.149 2.122 0 3.73-.71 4.824-2.129 1.107-1.432 1.66-3.522 1.66-6.27 0-2.721-.553-4.785-1.66-6.191-1.094-1.419-2.715-2.129-4.863-2.129-2.123 0-3.724.697-4.805 2.09-1.081 1.393-1.621 3.47-1.621 6.23zm35.82 4.883c0 1.992-.742 3.529-2.226 4.61-1.485 1.08-3.568 1.621-6.25 1.621-2.839 0-5.052-.45-6.641-1.348v-3.008c1.029.521 2.129.931 3.301 1.231 1.185.299 2.324.449 3.418.449 1.692 0 2.995-.267 3.906-.801.911-.547 1.367-1.374 1.367-2.48 0-.834-.364-1.543-1.094-2.129-.716-.599-2.122-1.302-4.218-2.11-1.992-.742-3.412-1.386-4.258-1.933-.833-.56-1.458-1.192-1.875-1.895-.404-.703-.606-1.543-.606-2.519 0-1.745.71-3.119 2.129-4.121 1.42-1.016 3.366-1.524 5.84-1.524 2.305 0 4.557.469 6.758 1.406l-1.152 2.637c-2.149-.885-4.095-1.328-5.84-1.328-1.537 0-2.695.241-3.477.723-.781.481-1.172 1.145-1.172 1.992 0 .573.144 1.061.43 1.465.3.403.775.787 1.426 1.152.651.365 1.901.892 3.75 1.582 2.539.925 4.251 1.856 5.137 2.793.898.937 1.347 2.116 1.347 3.535zm12.207 3.555c.573 0 1.127-.039 1.66-.117.534-.091.957-.183 1.27-.274v2.481c-.352.169-.872.306-1.563.41-.677.117-1.289.176-1.836.176-4.14 0-6.21-2.181-6.21-6.543v-12.735h-3.067v-1.562l3.067-1.348 1.367-4.57h1.875v4.961h6.211v2.519h-6.211v12.598c0 1.289.306 2.279.918 2.969.612.69 1.452 1.035 2.519 1.035zM420.562 639l-.644-3.047h-.156c-1.068 1.341-2.136 2.253-3.203 2.735-1.055.468-2.377.703-3.965.703-2.123 0-3.789-.547-5-1.641-1.198-1.094-1.797-2.65-1.797-4.668 0-4.323 3.457-6.589 10.371-6.797l3.633-.117v-1.328c0-1.68-.365-2.917-1.094-3.711-.716-.807-1.868-1.211-3.457-1.211-1.784 0-3.802.547-6.055 1.641l-.996-2.481a15.3 15.3 0 0 1 3.457-1.348 15.152 15.152 0 0 1 3.789-.488c2.552 0 4.44.567 5.664 1.699 1.237 1.133 1.856 2.95 1.856 5.45V639h-2.403zm-7.324-2.285c2.019 0 3.601-.554 4.746-1.66 1.159-1.107 1.739-2.657 1.739-4.649v-1.933l-3.243.136c-2.578.092-4.44.495-5.585 1.211-1.133.703-1.7 1.804-1.7 3.301 0 1.172.352 2.064 1.055 2.676.716.612 1.712.918 2.988.918zm30.235-3.555c0 1.992-.743 3.529-2.227 4.61-1.484 1.08-3.568 1.621-6.25 1.621-2.838 0-5.052-.45-6.641-1.348v-3.008c1.029.521 2.129.931 3.301 1.231 1.185.299 2.324.449 3.418.449 1.693 0 2.995-.267 3.906-.801.912-.547 1.368-1.374 1.368-2.48 0-.834-.365-1.543-1.094-2.129-.716-.599-2.122-1.302-4.219-2.11-1.992-.742-3.411-1.386-4.258-1.933-.833-.56-1.458-1.192-1.875-1.895-.403-.703-.605-1.543-.605-2.519 0-1.745.71-3.119 2.129-4.121 1.419-1.016 3.366-1.524 5.84-1.524 2.304 0 4.557.469 6.757 1.406l-1.152 2.637c-2.148-.885-4.095-1.328-5.84-1.328-1.536 0-2.695.241-3.476.723-.782.481-1.172 1.145-1.172 1.992 0 .573.143 1.061.429 1.465.3.403.775.787 1.426 1.152.651.365 1.901.892 3.75 1.582 2.539.925 4.252 1.856 5.137 2.793.898.937 1.348 2.116 1.348 3.535zm12.285-15.566h3.476l4.688 12.207c1.029 2.786 1.667 4.798 1.914 6.035h.156c.169-.664.521-1.797 1.055-3.398.547-1.615 2.318-6.563 5.312-14.844h3.477l-9.199 24.375c-.912 2.409-1.979 4.114-3.203 5.117-1.211 1.016-2.702 1.523-4.473 1.523-.99 0-1.966-.11-2.93-.332v-2.597a11.32 11.32 0 0 0 2.403.234c2.226 0 3.815-1.25 4.765-3.75l1.192-3.047-8.633-21.523zm42.031 10.683c0 3.49-.879 6.218-2.637 8.184-1.757 1.953-4.186 2.93-7.285 2.93-1.914 0-3.613-.45-5.097-1.348-1.485-.898-2.631-2.188-3.438-3.867-.807-1.68-1.211-3.646-1.211-5.899 0-3.489.872-6.204 2.617-8.144 1.745-1.953 4.167-2.93 7.266-2.93 2.995 0 5.371.996 7.129 2.988 1.771 1.993 2.656 4.688 2.656 8.086zm-16.309 0c0 2.735.547 4.818 1.641 6.25 1.094 1.433 2.702 2.149 4.824 2.149 2.123 0 3.731-.71 4.825-2.129 1.106-1.432 1.66-3.522 1.66-6.27 0-2.721-.554-4.785-1.66-6.191-1.094-1.419-2.715-2.129-4.864-2.129-2.122 0-3.724.697-4.804 2.09-1.081 1.393-1.622 3.47-1.622 6.23zm25.059-10.683v13.886c0 1.745.397 3.047 1.191 3.907.795.859 2.038 1.289 3.731 1.289 2.24 0 3.874-.612 4.902-1.836 1.042-1.224 1.563-3.223 1.563-5.996v-11.25h3.242V639h-2.676l-.469-2.871h-.175c-.664 1.055-1.589 1.862-2.774 2.422-1.172.56-2.513.84-4.023.84-2.604 0-4.558-.619-5.86-1.856-1.289-1.237-1.933-3.216-1.933-5.937v-14.004h3.281zM263.531 693l-.644-3.047h-.157c-1.067 1.341-2.135 2.253-3.203 2.735-1.054.468-2.376.703-3.965.703-2.122 0-3.789-.547-5-1.641-1.197-1.094-1.796-2.65-1.796-4.668 0-4.323 3.457-6.589 10.371-6.797l3.633-.117v-1.328c0-1.68-.365-2.917-1.094-3.711-.716-.807-1.869-1.211-3.457-1.211-1.784 0-3.802.547-6.055 1.641l-.996-2.481a15.3 15.3 0 0 1 3.457-1.348 15.152 15.152 0 0 1 3.789-.488c2.552 0 4.44.567 5.664 1.699 1.237 1.133 1.856 2.95 1.856 5.45V693h-2.403zm-7.324-2.285c2.018 0 3.6-.554 4.746-1.66 1.159-1.107 1.738-2.657 1.738-4.649v-1.933l-3.242.136c-2.578.092-4.44.495-5.586 1.211-1.133.703-1.699 1.804-1.699 3.301 0 1.172.352 2.064 1.055 2.676.716.612 1.712.918 2.988.918zM275.875 693h-3.242v-30.391h3.242V693zm24.355 0l-3.925-12.559c-.248-.768-.71-2.513-1.387-5.234h-.156c-.521 2.279-.977 4.036-1.367 5.273L289.352 693h-3.75l-5.84-21.406h3.398c1.38 5.377 2.429 9.472 3.145 12.285.729 2.812 1.146 4.707 1.25 5.683h.156c.143-.742.371-1.699.684-2.871.325-1.184.605-2.122.839-2.812l3.926-12.285h3.516l3.828 12.285c.729 2.239 1.224 4.121 1.484 5.644h.157c.052-.468.188-1.191.41-2.168.234-.976 1.595-6.23 4.082-15.761h3.359L304.078 693h-3.848zm26.817 0l-.645-3.047h-.156c-1.068 1.341-2.135 2.253-3.203 2.735-1.055.468-2.376.703-3.965.703-2.122 0-3.789-.547-5-1.641-1.198-1.094-1.797-2.65-1.797-4.668 0-4.323 3.457-6.589 10.371-6.797l3.633-.117v-1.328c0-1.68-.364-2.917-1.094-3.711-.716-.807-1.868-1.211-3.457-1.211-1.783 0-3.802.547-6.054 1.641l-.996-2.481a15.281 15.281 0 0 1 3.457-1.348 15.152 15.152 0 0 1 3.789-.488c2.552 0 4.44.567 5.664 1.699 1.237 1.133 1.855 2.95 1.855 5.45V693h-2.402zm-7.324-2.285c2.018 0 3.6-.554 4.746-1.66 1.159-1.107 1.738-2.657 1.738-4.649v-1.933l-3.242.136c-2.578.092-4.44.495-5.586 1.211-1.133.703-1.699 1.804-1.699 3.301 0 1.172.351 2.064 1.054 2.676.717.612 1.713.918 2.989.918zm13.027-19.121h3.477l4.687 12.207c1.029 2.786 1.667 4.798 1.914 6.035h.156c.17-.664.521-1.797 1.055-3.398.547-1.615 2.318-6.563 5.313-14.844h3.476l-9.199 24.375c-.912 2.409-1.979 4.114-3.203 5.117-1.211 1.016-2.702 1.523-4.473 1.523-.989 0-1.966-.11-2.93-.332v-2.597c.717.156 1.517.234 2.403.234 2.226 0 3.815-1.25 4.765-3.75l1.192-3.047-8.633-21.523zm37.363 15.566c0 1.992-.742 3.529-2.226 4.61-1.485 1.08-3.568 1.621-6.25 1.621-2.839 0-5.052-.45-6.641-1.348v-3.008c1.029.521 2.129.931 3.301 1.231 1.185.299 2.324.449 3.418.449 1.693 0 2.995-.267 3.906-.801.912-.547 1.367-1.374 1.367-2.48 0-.834-.364-1.543-1.093-2.129-.717-.599-2.123-1.302-4.219-2.11-1.992-.742-3.412-1.386-4.258-1.933-.833-.56-1.458-1.192-1.875-1.895-.404-.703-.605-1.543-.605-2.519 0-1.745.709-3.119 2.128-4.121 1.42-1.016 3.366-1.524 5.84-1.524 2.305 0 4.558.469 6.758 1.406l-1.152 2.637c-2.149-.885-4.095-1.328-5.84-1.328-1.537 0-2.695.241-3.477.723-.781.481-1.172 1.145-1.172 1.992 0 .573.144 1.061.43 1.465.3.403.775.787 1.426 1.152.651.365 1.901.892 3.75 1.582 2.539.925 4.251 1.856 5.137 2.793.898.937 1.347 2.116 1.347 3.535zm30.254 2.969h-.176c-1.497 2.174-3.737 3.262-6.718 3.262-2.8 0-4.981-.957-6.543-2.871-1.55-1.915-2.325-4.636-2.325-8.165 0-3.528.782-6.269 2.344-8.222 1.563-1.953 3.737-2.93 6.524-2.93 2.903 0 5.13 1.055 6.679 3.164h.254l-.136-1.543-.079-1.504v-8.711h3.243V693h-2.637l-.43-2.871zm-6.484.547c2.213 0 3.815-.599 4.805-1.797 1.002-1.211 1.503-3.158 1.503-5.84v-.684c0-3.033-.507-5.195-1.523-6.484-1.003-1.302-2.611-1.953-4.824-1.953-1.901 0-3.36.742-4.375 2.227-1.003 1.471-1.504 3.554-1.504 6.25 0 2.734.501 4.798 1.504 6.191 1.002 1.393 2.474 2.09 4.414 2.09zm34.922-8.399c0 3.49-.879 6.218-2.637 8.184-1.758 1.953-4.186 2.93-7.285 2.93-1.914 0-3.613-.45-5.098-1.348-1.484-.898-2.63-2.188-3.437-3.867-.808-1.68-1.211-3.646-1.211-5.899 0-3.489.872-6.204 2.617-8.144 1.745-1.953 4.167-2.93 7.266-2.93 2.994 0 5.371.996 7.128 2.988 1.771 1.993 2.657 4.688 2.657 8.086zm-16.309 0c0 2.735.547 4.818 1.641 6.25 1.093 1.433 2.702 2.149 4.824 2.149s3.73-.71 4.824-2.129c1.107-1.432 1.66-3.522 1.66-6.27 0-2.721-.553-4.785-1.66-6.191-1.094-1.419-2.715-2.129-4.863-2.129-2.123 0-3.724.697-4.805 2.09-1.081 1.393-1.621 3.47-1.621 6.23zM678.328 531h-3.281l-5.762-19.121a62.524 62.524 0 0 1-.918-3.203c-.338-1.289-.514-2.064-.527-2.324-.287 1.718-.742 3.6-1.367 5.644L660.887 531h-3.282l-7.597-28.555h3.515l4.512 17.637c.625 2.474 1.081 4.714 1.367 6.719a48.57 48.57 0 0 1 1.563-6.992l5.117-17.364h3.516l5.371 17.52c.625 2.018 1.152 4.297 1.582 6.836.247-1.849.716-4.102 1.406-6.758l4.492-17.598h3.516L678.328 531zm20.664.391c-3.164 0-5.664-.964-7.5-2.891-1.823-1.927-2.734-4.603-2.734-8.027 0-3.451.846-6.192 2.539-8.223 1.706-2.031 3.991-3.047 6.855-3.047 2.683 0 4.805.886 6.368 2.656 1.562 1.758 2.343 4.082 2.343 6.973v2.051h-14.746c.065 2.513.697 4.42 1.895 5.722 1.211 1.303 2.91 1.954 5.097 1.954 2.305 0 4.584-.482 6.836-1.446v2.891c-1.146.495-2.233.846-3.261 1.055-1.016.221-2.246.332-3.692.332zm-.879-19.473c-1.718 0-3.092.56-4.121 1.68-1.015 1.119-1.614 2.669-1.797 4.648h11.192c0-2.044-.456-3.607-1.367-4.687-.912-1.094-2.214-1.641-3.907-1.641zm16.895-9.473l.293.43c-.339 1.302-.827 2.819-1.465 4.551a65.28 65.28 0 0 1-1.992 4.804h-2.383c.911-3.71 1.575-6.972 1.992-9.785h3.555zM722.449 531h-3.242v-30.391h3.242V531zm10.117 0h-3.242v-30.391h3.242V531zm20.313-21.406v13.886c0 1.745.397 3.047 1.191 3.907.795.859 2.038 1.289 3.731 1.289 2.239 0 3.873-.612 4.902-1.836 1.042-1.224 1.563-3.223 1.563-5.996v-11.25h3.242V531h-2.676l-.469-2.871h-.175c-.665 1.055-1.589 1.862-2.774 2.422-1.172.56-2.513.84-4.023.84-2.605 0-4.558-.619-5.86-1.856-1.289-1.237-1.933-3.216-1.933-5.937v-14.004h3.281zm31.484 21.797c-1.393 0-2.669-.254-3.828-.762-1.146-.521-2.109-1.315-2.89-2.383h-.235c.156 1.25.235 2.435.235 3.555v8.808h-3.243v-31.015h2.637l.449 2.929h.157c.833-1.171 1.803-2.018 2.91-2.539 1.106-.52 2.376-.781 3.808-.781 2.839 0 5.026.97 6.563 2.91 1.549 1.94 2.324 4.662 2.324 8.164 0 3.516-.788 6.25-2.363 8.203-1.563 1.941-3.737 2.911-6.524 2.911zm-.468-19.434c-2.188 0-3.77.605-4.747 1.816-.976 1.211-1.477 3.138-1.503 5.782v.722c0 3.008.501 5.163 1.503 6.465 1.003 1.289 2.611 1.934 4.825 1.934 1.849 0 3.294-.749 4.336-2.246 1.054-1.498 1.582-3.562 1.582-6.192 0-2.669-.528-4.713-1.582-6.133-1.042-1.432-2.513-2.148-4.414-2.148zm29.609 16.172h-.176c-1.497 2.174-3.737 3.262-6.719 3.262-2.799 0-4.98-.957-6.543-2.871-1.549-1.915-2.324-4.636-2.324-8.165 0-3.528.781-6.269 2.344-8.222 1.562-1.953 3.737-2.93 6.523-2.93 2.904 0 5.131 1.055 6.68 3.164h.254l-.137-1.543-.078-1.504v-8.711h3.242V531h-2.636l-.43-2.871zm-6.484.547c2.213 0 3.815-.599 4.804-1.797 1.003-1.211 1.504-3.158 1.504-5.84v-.684c0-3.033-.508-5.195-1.523-6.484-1.003-1.302-2.611-1.953-4.825-1.953-1.901 0-3.359.742-4.375 2.227-1.002 1.471-1.503 3.554-1.503 6.25 0 2.734.501 4.798 1.503 6.191 1.003 1.393 2.474 2.09 4.415 2.09zM836.629 531l-.645-3.047h-.156c-1.068 1.341-2.135 2.253-3.203 2.735-1.055.468-2.376.703-3.965.703-2.122 0-3.789-.547-5-1.641-1.198-1.094-1.797-2.65-1.797-4.668 0-4.323 3.457-6.589 10.371-6.797l3.633-.117v-1.328c0-1.68-.364-2.917-1.094-3.711-.716-.807-1.868-1.211-3.457-1.211-1.783 0-3.802.547-6.054 1.641l-.996-2.481a15.281 15.281 0 0 1 3.457-1.348 15.152 15.152 0 0 1 3.789-.488c2.552 0 4.44.567 5.664 1.699 1.237 1.133 1.855 2.95 1.855 5.45V531h-2.402zm-7.324-2.285c2.018 0 3.6-.554 4.746-1.66 1.159-1.107 1.738-2.657 1.738-4.649v-1.933l-3.242.136c-2.578.092-4.44.495-5.586 1.211-1.133.703-1.699 1.804-1.699 3.301 0 1.172.351 2.064 1.054 2.676.717.612 1.713.918 2.989.918zm23.34 0c.572 0 1.126-.039 1.66-.117.534-.091.957-.183 1.269-.274v2.481c-.351.169-.872.306-1.562.41-.677.117-1.289.176-1.836.176-4.141 0-6.211-2.181-6.211-6.543v-12.735h-3.067v-1.562l3.067-1.348 1.367-4.57h1.875v4.961h6.211v2.519h-6.211v12.598c0 1.289.306 2.279.918 2.969.612.69 1.452 1.035 2.52 1.035zm16.269 2.676c-3.164 0-5.664-.964-7.5-2.891-1.823-1.927-2.734-4.603-2.734-8.027 0-3.451.846-6.192 2.539-8.223 1.705-2.031 3.991-3.047 6.855-3.047 2.683 0 4.805.886 6.367 2.656 1.563 1.758 2.344 4.082 2.344 6.973v2.051h-14.746c.065 2.513.697 4.42 1.895 5.722 1.211 1.303 2.91 1.954 5.097 1.954 2.305 0 4.584-.482 6.836-1.446v2.891c-1.146.495-2.233.846-3.262 1.055-1.015.221-2.246.332-3.691.332zm-.879-19.473c-1.719 0-3.092.56-4.121 1.68-1.016 1.119-1.615 2.669-1.797 4.648h11.192c0-2.044-.456-3.607-1.368-4.687-.911-1.094-2.213-1.641-3.906-1.641zm21.289-2.324h3.477l4.687 12.207c1.029 2.786 1.667 4.798 1.914 6.035h.157c.169-.664.52-1.797 1.054-3.398.547-1.615 2.318-6.563 5.313-14.844h3.476l-9.199 24.375c-.911 2.409-1.979 4.114-3.203 5.117-1.211 1.016-2.702 1.523-4.473 1.523a13 13 0 0 1-2.929-.332v-2.597c.716.156 1.517.234 2.402.234 2.227 0 3.815-1.25 4.766-3.75l1.191-3.047-8.633-21.523zm42.031 10.683c0 3.49-.878 6.218-2.636 8.184-1.758 1.953-4.186 2.93-7.285 2.93-1.914 0-3.614-.45-5.098-1.348-1.484-.898-2.63-2.188-3.438-3.867-.807-1.68-1.21-3.646-1.21-5.899 0-3.489.872-6.204 2.617-8.144 1.744-1.953 4.166-2.93 7.265-2.93 2.995 0 5.371.996 7.129 2.988 1.771 1.993 2.656 4.688 2.656 8.086zm-16.308 0c0 2.735.547 4.818 1.641 6.25 1.093 1.433 2.701 2.149 4.824 2.149 2.122 0 3.73-.71 4.824-2.129 1.107-1.432 1.66-3.522 1.66-6.27 0-2.721-.553-4.785-1.66-6.191-1.094-1.419-2.715-2.129-4.863-2.129-2.123 0-3.724.697-4.805 2.09-1.081 1.393-1.621 3.47-1.621 6.23zm25.058-10.683v13.886c0 1.745.398 3.047 1.192 3.907.794.859 2.038 1.289 3.73 1.289 2.24 0 3.874-.612 4.903-1.836 1.041-1.224 1.562-3.223 1.562-5.996v-11.25h3.242V531h-2.675l-.469-2.871h-.176c-.664 1.055-1.588 1.862-2.773 2.422-1.172.56-2.513.84-4.024.84-2.604 0-4.557-.619-5.859-1.856-1.289-1.237-1.934-3.216-1.934-5.937v-14.004h3.281zm31.29-.391c.95 0 1.803.078 2.558.235l-.449 3.007c-.886-.195-1.667-.293-2.344-.293-1.732 0-3.216.703-4.453 2.11-1.224 1.406-1.836 3.157-1.836 5.254V531h-3.242v-21.406h2.676l.371 3.965h.156c.794-1.394 1.751-2.468 2.871-3.223a6.465 6.465 0 0 1 3.692-1.133zm-325.84 69.957c0 1.992-.743 3.529-2.227 4.61-1.484 1.08-3.568 1.621-6.25 1.621-2.838 0-5.052-.45-6.64-1.348v-3.008c1.028.521 2.128.931 3.3 1.231 1.185.299 2.324.449 3.418.449 1.693 0 2.995-.267 3.906-.801.912-.547 1.368-1.374 1.368-2.48 0-.834-.365-1.543-1.094-2.129-.716-.599-2.122-1.302-4.219-2.11-1.992-.742-3.411-1.386-4.258-1.933-.833-.56-1.458-1.192-1.875-1.895-.403-.703-.605-1.543-.605-2.519 0-1.745.71-3.119 2.129-4.121 1.419-1.016 3.366-1.524 5.84-1.524 2.304 0 4.557.469 6.757 1.406l-1.152 2.637c-2.148-.885-4.095-1.328-5.84-1.328-1.536 0-2.695.241-3.476.723-.782.481-1.172 1.145-1.172 1.992 0 .573.143 1.061.43 1.465.299.403.774.787 1.425 1.152.651.365 1.901.892 3.75 1.582 2.539.925 4.252 1.856 5.137 2.793.898.937 1.348 2.116 1.348 3.535zm8.535 5.84h-3.242v-21.406h3.242V585zm-3.516-27.207c0-.742.183-1.283.547-1.621.365-.352.82-.527 1.367-.527.521 0 .97.175 1.348.527.378.351.566.892.566 1.621s-.188 1.276-.566 1.641a1.914 1.914 0 0 1-1.348.527c-.547 0-1.002-.176-1.367-.527-.364-.365-.547-.912-.547-1.641zm17.305 24.922c.573 0 1.126-.039 1.66-.117.534-.091.957-.183 1.27-.274v2.481c-.352.169-.873.306-1.563.41-.677.117-1.289.176-1.836.176-4.14 0-6.211-2.181-6.211-6.543v-12.735h-3.066v-1.562l3.066-1.348 1.367-4.57h1.875v4.961h6.211v2.519h-6.211v12.598c0 1.289.306 2.279.918 2.969.612.69 1.452 1.035 2.52 1.035zm16.269 2.676c-3.164 0-5.664-.964-7.5-2.891-1.822-1.927-2.734-4.603-2.734-8.027 0-3.451.846-6.192 2.539-8.223 1.706-2.031 3.991-3.047 6.856-3.047 2.682 0 4.804.886 6.367 2.656 1.562 1.758 2.344 4.082 2.344 6.973v2.051h-14.747c.066 2.513.697 4.42 1.895 5.722 1.211 1.303 2.91 1.954 5.098 1.954 2.304 0 4.583-.482 6.836-1.446v2.891c-1.146.495-2.234.846-3.262 1.055-1.016.221-2.246.332-3.692.332zm-.878-19.473c-1.719 0-3.093.56-4.122 1.68-1.015 1.119-1.614 2.669-1.796 4.648h11.191c0-2.044-.456-3.607-1.367-4.687-.912-1.094-2.214-1.641-3.906-1.641zM721.121 585l-.644-3.047h-.157c-1.067 1.341-2.135 2.253-3.203 2.735-1.055.468-2.376.703-3.965.703-2.122 0-3.789-.547-5-1.641-1.198-1.094-1.797-2.65-1.797-4.668 0-4.323 3.457-6.589 10.372-6.797l3.632-.117v-1.328c0-1.68-.364-2.917-1.093-3.711-.717-.807-1.869-1.211-3.457-1.211-1.784 0-3.802.547-6.055 1.641l-.996-2.481a15.281 15.281 0 0 1 3.457-1.348 15.152 15.152 0 0 1 3.789-.488c2.552 0 4.44.567 5.664 1.699 1.237 1.133 1.855 2.95 1.855 5.45V585h-2.402zm-7.324-2.285c2.018 0 3.6-.554 4.746-1.66 1.159-1.107 1.738-2.657 1.738-4.649v-1.933l-3.242.136c-2.578.092-4.44.495-5.586 1.211-1.133.703-1.699 1.804-1.699 3.301 0 1.172.351 2.064 1.055 2.676.716.612 1.712.918 2.988.918zm30.234-3.555c0 1.992-.742 3.529-2.226 4.61-1.485 1.08-3.568 1.621-6.25 1.621-2.839 0-5.052-.45-6.641-1.348v-3.008c1.029.521 2.129.931 3.301 1.231 1.185.299 2.324.449 3.418.449 1.693 0 2.995-.267 3.906-.801.912-.547 1.367-1.374 1.367-2.48 0-.834-.364-1.543-1.094-2.129-.716-.599-2.122-1.302-4.218-2.11-1.992-.742-3.412-1.386-4.258-1.933-.833-.56-1.458-1.192-1.875-1.895-.404-.703-.606-1.543-.606-2.519 0-1.745.71-3.119 2.129-4.121 1.42-1.016 3.366-1.524 5.84-1.524 2.305 0 4.558.469 6.758 1.406l-1.152 2.637c-2.149-.885-4.095-1.328-5.84-1.328-1.537 0-2.695.241-3.477.723-.781.481-1.172 1.145-1.172 1.992 0 .573.144 1.061.43 1.465.3.403.775.787 1.426 1.152.651.365 1.901.892 3.75 1.582 2.539.925 4.251 1.856 5.137 2.793.898.937 1.347 2.116 1.347 3.535zm29.492 0c0 1.992-.742 3.529-2.226 4.61-1.485 1.08-3.568 1.621-6.25 1.621-2.839 0-5.052-.45-6.641-1.348v-3.008c1.029.521 2.129.931 3.301 1.231 1.185.299 2.324.449 3.418.449 1.693 0 2.995-.267 3.906-.801.912-.547 1.367-1.374 1.367-2.48 0-.834-.364-1.543-1.093-2.129-.716-.599-2.123-1.302-4.219-2.11-1.992-.742-3.412-1.386-4.258-1.933-.833-.56-1.458-1.192-1.875-1.895-.404-.703-.605-1.543-.605-2.519 0-1.745.709-3.119 2.129-4.121 1.419-1.016 3.365-1.524 5.839-1.524 2.305 0 4.558.469 6.758 1.406l-1.152 2.637c-2.149-.885-4.095-1.328-5.84-1.328-1.536 0-2.695.241-3.477.723-.781.481-1.171 1.145-1.171 1.992 0 .573.143 1.061.429 1.465.3.403.775.787 1.426 1.152.651.365 1.901.892 3.75 1.582 2.539.925 4.251 1.856 5.137 2.793.898.937 1.347 2.116 1.347 3.535zm23.77-4.883c0 3.49-.879 6.218-2.637 8.184-1.758 1.953-4.186 2.93-7.285 2.93-1.914 0-3.613-.45-5.098-1.348-1.484-.898-2.63-2.188-3.437-3.867-.807-1.68-1.211-3.646-1.211-5.899 0-3.489.872-6.204 2.617-8.144 1.745-1.953 4.167-2.93 7.266-2.93 2.995 0 5.371.996 7.129 2.988 1.771 1.993 2.656 4.688 2.656 8.086zm-16.309 0c0 2.735.547 4.818 1.641 6.25 1.094 1.433 2.702 2.149 4.824 2.149 2.123 0 3.731-.71 4.824-2.129 1.107-1.432 1.661-3.522 1.661-6.27 0-2.721-.554-4.785-1.661-6.191-1.093-1.419-2.714-2.129-4.863-2.129-2.122 0-3.724.697-4.805 2.09-1.08 1.393-1.621 3.47-1.621 6.23zm40.489 0c0 3.49-.879 6.218-2.637 8.184-1.758 1.953-4.186 2.93-7.285 2.93-1.914 0-3.613-.45-5.098-1.348-1.484-.898-2.63-2.188-3.437-3.867-.808-1.68-1.211-3.646-1.211-5.899 0-3.489.872-6.204 2.617-8.144 1.745-1.953 4.167-2.93 7.266-2.93 2.994 0 5.371.996 7.128 2.988 1.771 1.993 2.657 4.688 2.657 8.086zm-16.309 0c0 2.735.547 4.818 1.641 6.25 1.093 1.433 2.702 2.149 4.824 2.149s3.73-.71 4.824-2.129c1.107-1.432 1.66-3.522 1.66-6.27 0-2.721-.553-4.785-1.66-6.191-1.094-1.419-2.715-2.129-4.863-2.129-2.123 0-3.724.697-4.805 2.09-1.081 1.393-1.621 3.47-1.621 6.23zM841.824 585v-13.848c0-1.744-.397-3.047-1.191-3.906s-2.038-1.289-3.731-1.289c-2.239 0-3.88.605-4.922 1.816-1.041 1.211-1.562 3.21-1.562 5.997V585h-3.242v-21.406h2.636l.528 2.929h.156c.664-1.054 1.595-1.868 2.793-2.441 1.198-.586 2.533-.879 4.004-.879 2.578 0 4.518.625 5.82 1.875 1.302 1.237 1.953 3.223 1.953 5.957V585h-3.242zm33.477 0l-.645-3.047h-.156c-1.068 1.341-2.135 2.253-3.203 2.735-1.055.468-2.376.703-3.965.703-2.122 0-3.789-.547-5-1.641-1.198-1.094-1.797-2.65-1.797-4.668 0-4.323 3.457-6.589 10.371-6.797l3.633-.117v-1.328c0-1.68-.365-2.917-1.094-3.711-.716-.807-1.868-1.211-3.457-1.211-1.784 0-3.802.547-6.054 1.641l-.996-2.481a15.281 15.281 0 0 1 3.457-1.348 15.152 15.152 0 0 1 3.789-.488c2.552 0 4.44.567 5.664 1.699 1.237 1.133 1.855 2.95 1.855 5.45V585h-2.402zm-7.324-2.285c2.018 0 3.6-.554 4.746-1.66 1.159-1.107 1.738-2.657 1.738-4.649v-1.933l-3.242.136c-2.578.092-4.44.495-5.586 1.211-1.133.703-1.699 1.804-1.699 3.301 0 1.172.351 2.064 1.054 2.676.716.612 1.713.918 2.989.918zm30.234-3.555c0 1.992-.742 3.529-2.227 4.61-1.484 1.08-3.567 1.621-6.25 1.621-2.838 0-5.052-.45-6.64-1.348v-3.008a16.12 16.12 0 0 0 3.301 1.231c1.184.299 2.324.449 3.417.449 1.693 0 2.995-.267 3.907-.801.911-.547 1.367-1.374 1.367-2.48 0-.834-.365-1.543-1.094-2.129-.716-.599-2.122-1.302-4.219-2.11-1.992-.742-3.411-1.386-4.257-1.933-.834-.56-1.459-1.192-1.875-1.895-.404-.703-.606-1.543-.606-2.519 0-1.745.71-3.119 2.129-4.121 1.419-1.016 3.366-1.524 5.84-1.524 2.305 0 4.557.469 6.758 1.406l-1.153 2.637c-2.148-.885-4.095-1.328-5.839-1.328-1.537 0-2.696.241-3.477.723-.781.481-1.172 1.145-1.172 1.992 0 .573.143 1.061.43 1.465.299.403.775.787 1.426 1.152.651.365 1.901.892 3.75 1.582 2.539.925 4.251 1.856 5.136 2.793.899.937 1.348 2.116 1.348 3.535zm12.285-15.566h3.477l4.687 12.207c1.029 2.786 1.667 4.798 1.914 6.035h.156c.17-.664.521-1.797 1.055-3.398.547-1.615 2.318-6.563 5.313-14.844h3.476l-9.199 24.375c-.911 2.409-1.979 4.114-3.203 5.117-1.211 1.016-2.702 1.523-4.473 1.523a13 13 0 0 1-2.929-.332v-2.597a11.31 11.31 0 0 0 2.402.234c2.226 0 3.815-1.25 4.766-3.75l1.191-3.047-8.633-21.523zm42.031 10.683c0 3.49-.879 6.218-2.636 8.184-1.758 1.953-4.187 2.93-7.286 2.93-1.914 0-3.613-.45-5.097-1.348-1.485-.898-2.63-2.188-3.438-3.867-.807-1.68-1.211-3.646-1.211-5.899 0-3.489.873-6.204 2.618-8.144 1.744-1.953 4.166-2.93 7.265-2.93 2.995 0 5.371.996 7.129 2.988 1.771 1.993 2.656 4.688 2.656 8.086zm-16.308 0c0 2.735.547 4.818 1.64 6.25 1.094 1.433 2.702 2.149 4.825 2.149 2.122 0 3.73-.71 4.824-2.129 1.107-1.432 1.66-3.522 1.66-6.27 0-2.721-.553-4.785-1.66-6.191-1.094-1.419-2.715-2.129-4.863-2.129-2.123 0-3.724.697-4.805 2.09-1.081 1.393-1.621 3.47-1.621 6.23zm25.058-10.683v13.886c0 1.745.397 3.047 1.192 3.907.794.859 2.038 1.289 3.73 1.289 2.24 0 3.874-.612 4.903-1.836 1.041-1.224 1.562-3.223 1.562-5.996v-11.25h3.242V585h-2.676l-.468-2.871h-.176c-.664 1.055-1.589 1.862-2.774 2.422-1.171.56-2.513.84-4.023.84-2.604 0-4.557-.619-5.859-1.856-1.289-1.237-1.934-3.216-1.934-5.937v-14.004h3.281zm31.289-.391c.951 0 1.804.078 2.559.235l-.449 3.007c-.886-.195-1.667-.293-2.344-.293-1.732 0-3.216.703-4.453 2.11-1.224 1.406-1.836 3.157-1.836 5.254V585h-3.242v-21.406h2.676l.371 3.965h.156c.794-1.394 1.751-2.468 2.871-3.223a6.464 6.464 0 0 1 3.691-1.133zm-312.5 56.91h-5.449V639h-3.242v-18.887h-3.828v-1.465l3.828-1.171v-1.192c0-5.26 2.298-7.89 6.895-7.89 1.132 0 2.46.227 3.984.683l-.84 2.598c-1.25-.404-2.318-.606-3.203-.606-1.224 0-2.129.41-2.715 1.231-.586.807-.879 2.109-.879 3.906v1.387h5.449v2.519zm12.95 19.278c-3.164 0-5.664-.964-7.5-2.891-1.823-1.927-2.735-4.603-2.735-8.027 0-3.451.847-6.192 2.539-8.223 1.706-2.031 3.991-3.047 6.856-3.047 2.682 0 4.804.886 6.367 2.656 1.562 1.758 2.344 4.082 2.344 6.973v2.051h-14.746c.065 2.513.696 4.42 1.894 5.722 1.211 1.303 2.91 1.954 5.098 1.954 2.305 0 4.583-.482 6.836-1.446v2.891c-1.146.495-2.233.846-3.262 1.055-1.016.221-2.246.332-3.691.332zm-.879-19.473c-1.719 0-3.093.56-4.121 1.68-1.016 1.119-1.615 2.669-1.797 4.648h11.191c0-2.044-.456-3.607-1.367-4.687-.911-1.094-2.214-1.641-3.906-1.641zm23.34 19.473c-3.165 0-5.665-.964-7.5-2.891-1.823-1.927-2.735-4.603-2.735-8.027 0-3.451.847-6.192 2.539-8.223 1.706-2.031 3.991-3.047 6.856-3.047 2.682 0 4.804.886 6.367 2.656 1.562 1.758 2.344 4.082 2.344 6.973v2.051h-14.746c.065 2.513.696 4.42 1.894 5.722 1.211 1.303 2.91 1.954 5.098 1.954 2.304 0 4.583-.482 6.836-1.446v2.891c-1.146.495-2.233.846-3.262 1.055-1.016.221-2.246.332-3.691.332zm-.879-19.473c-1.719 0-3.093.56-4.121 1.68-1.016 1.119-1.615 2.669-1.797 4.648h11.191c0-2.044-.456-3.607-1.367-4.687-.912-1.094-2.214-1.641-3.906-1.641zm28.867 16.211h-.176c-1.497 2.174-3.737 3.262-6.719 3.262-2.799 0-4.98-.957-6.543-2.871-1.549-1.915-2.324-4.636-2.324-8.165 0-3.528.781-6.269 2.344-8.222 1.562-1.953 3.737-2.93 6.523-2.93 2.904 0 5.131 1.055 6.68 3.164h.254l-.137-1.543-.078-1.504v-8.711h3.242V639h-2.636l-.43-2.871zm-6.485.547c2.214 0 3.816-.599 4.805-1.797 1.003-1.211 1.504-3.158 1.504-5.84v-.684c0-3.033-.508-5.195-1.523-6.484-1.003-1.302-2.611-1.953-4.825-1.953-1.901 0-3.359.742-4.375 2.227-1.002 1.471-1.504 3.554-1.504 6.25 0 2.734.502 4.798 1.504 6.191 1.003 1.393 2.474 2.09 4.414 2.09zM767.059 639h-3.243v-21.406h3.243V639zm-3.516-27.207c0-.742.182-1.283.547-1.621.364-.352.82-.527 1.367-.527.521 0 .97.175 1.348.527.377.351.566.892.566 1.621s-.189 1.276-.566 1.641a1.914 1.914 0 0 1-1.348.527c-.547 0-1.003-.176-1.367-.527-.365-.365-.547-.912-.547-1.641zm24.199 21.367c0 1.992-.742 3.529-2.226 4.61-1.485 1.08-3.568 1.621-6.25 1.621-2.839 0-5.052-.45-6.641-1.348v-3.008c1.029.521 2.129.931 3.301 1.231 1.185.299 2.324.449 3.418.449 1.692 0 2.995-.267 3.906-.801.911-.547 1.367-1.374 1.367-2.48 0-.834-.364-1.543-1.094-2.129-.716-.599-2.122-1.302-4.218-2.11-1.993-.742-3.412-1.386-4.258-1.933-.833-.56-1.458-1.192-1.875-1.895-.404-.703-.606-1.543-.606-2.519 0-1.745.71-3.119 2.129-4.121 1.42-1.016 3.366-1.524 5.84-1.524 2.305 0 4.557.469 6.758 1.406l-1.152 2.637c-2.149-.885-4.095-1.328-5.84-1.328-1.537 0-2.696.241-3.477.723-.781.481-1.172 1.145-1.172 1.992 0 .573.144 1.061.43 1.465.3.403.775.787 1.426 1.152.651.365 1.901.892 3.75 1.582 2.539.925 4.251 1.856 5.137 2.793.898.937 1.347 2.116 1.347 3.535zm18.731-15.566v13.886c0 1.745.397 3.047 1.191 3.907.794.859 2.038 1.289 3.731 1.289 2.239 0 3.873-.612 4.902-1.836 1.042-1.224 1.562-3.223 1.562-5.996v-11.25h3.243V639h-2.676l-.469-2.871h-.176c-.664 1.055-1.588 1.862-2.773 2.422-1.172.56-2.513.84-4.024.84-2.604 0-4.557-.619-5.859-1.856-1.289-1.237-1.934-3.216-1.934-5.937v-14.004h3.282zm31.484 21.797c-1.393 0-2.669-.254-3.828-.762-1.146-.521-2.109-1.315-2.891-2.383h-.234a28.76 28.76 0 0 1 .234 3.555v8.808h-3.242v-31.015h2.637l.449 2.929h.156c.834-1.171 1.804-2.018 2.91-2.539 1.107-.52 2.377-.781 3.809-.781 2.839 0 5.026.97 6.563 2.91 1.549 1.94 2.324 4.662 2.324 8.164 0 3.516-.788 6.25-2.364 8.203-1.562 1.941-3.737 2.911-6.523 2.911zm-.469-19.434c-2.187 0-3.769.605-4.746 1.816-.976 1.211-1.478 3.138-1.504 5.782v.722c0 3.008.502 5.163 1.504 6.465 1.003 1.289 2.611 1.934 4.824 1.934 1.849 0 3.295-.749 4.336-2.246 1.055-1.498 1.582-3.562 1.582-6.192 0-2.669-.527-4.713-1.582-6.133-1.041-1.432-2.513-2.148-4.414-2.148zm29.61 16.172h-.176c-1.498 2.174-3.737 3.262-6.719 3.262-2.799 0-4.98-.957-6.543-2.871-1.549-1.915-2.324-4.636-2.324-8.165 0-3.528.781-6.269 2.344-8.222 1.562-1.953 3.737-2.93 6.523-2.93 2.904 0 5.13 1.055 6.68 3.164h.254l-.137-1.543-.078-1.504v-8.711h3.242V639h-2.637l-.429-2.871zm-6.485.547c2.214 0 3.815-.599 4.805-1.797 1.003-1.211 1.504-3.158 1.504-5.84v-.684c0-3.033-.508-5.195-1.524-6.484-1.002-1.302-2.61-1.953-4.824-1.953-1.901 0-3.359.742-4.375 2.227-1.002 1.471-1.504 3.554-1.504 6.25 0 2.734.502 4.798 1.504 6.191 1.003 1.393 2.474 2.09 4.414 2.09zm29.61 2.324l-.645-3.047h-.156c-1.068 1.341-2.136 2.253-3.203 2.735-1.055.468-2.377.703-3.965.703-2.122 0-3.789-.547-5-1.641-1.198-1.094-1.797-2.65-1.797-4.668 0-4.323 3.457-6.589 10.371-6.797l3.633-.117v-1.328c0-1.68-.365-2.917-1.094-3.711-.716-.807-1.868-1.211-3.457-1.211-1.784 0-3.802.547-6.055 1.641l-.996-2.481a15.3 15.3 0 0 1 3.457-1.348 15.152 15.152 0 0 1 3.789-.488c2.553 0 4.441.567 5.665 1.699 1.237 1.133 1.855 2.95 1.855 5.45V639h-2.402zm-7.325-2.285c2.019 0 3.601-.554 4.747-1.66 1.158-1.107 1.738-2.657 1.738-4.649v-1.933l-3.242.136c-2.579.092-4.44.495-5.586 1.211-1.133.703-1.7 1.804-1.7 3.301 0 1.172.352 2.064 1.055 2.676.716.612 1.712.918 2.988.918zm23.34 0c.573 0 1.127-.039 1.66-.117.534-.091.957-.183 1.27-.274v2.481c-.352.169-.872.306-1.563.41a10.88 10.88 0 0 1-1.835.176c-4.141 0-6.211-2.181-6.211-6.543v-12.735h-3.067v-1.562l3.067-1.348 1.367-4.57h1.875v4.961h6.211v2.519h-6.211v12.598c0 1.289.306 2.279.918 2.969.612.69 1.452 1.035 2.519 1.035zm16.27 2.676c-3.164 0-5.664-.964-7.5-2.891-1.823-1.927-2.735-4.603-2.735-8.027 0-3.451.847-6.192 2.539-8.223 1.706-2.031 3.991-3.047 6.856-3.047 2.682 0 4.805.886 6.367 2.656 1.563 1.758 2.344 4.082 2.344 6.973v2.051h-14.746c.065 2.513.696 4.42 1.894 5.722 1.211 1.303 2.911 1.954 5.098 1.954 2.305 0 4.583-.482 6.836-1.446v2.891c-1.146.495-2.233.846-3.262 1.055-1.015.221-2.246.332-3.691.332zm-.879-19.473c-1.719 0-3.093.56-4.121 1.68-1.016 1.119-1.615 2.669-1.797 4.648h11.191c0-2.044-.455-3.607-1.367-4.687-.911-1.094-2.213-1.641-3.906-1.641zm28.867 16.211h-.176c-1.497 2.174-3.737 3.262-6.718 3.262-2.8 0-4.981-.957-6.543-2.871-1.55-1.915-2.325-4.636-2.325-8.165 0-3.528.782-6.269 2.344-8.222 1.563-1.953 3.737-2.93 6.524-2.93 2.903 0 5.13 1.055 6.679 3.164h.254l-.137-1.543-.078-1.504v-8.711h3.242V639h-2.636l-.43-2.871zm-6.484.547c2.213 0 3.815-.599 4.804-1.797 1.003-1.211 1.504-3.158 1.504-5.84v-.684c0-3.033-.508-5.195-1.523-6.484-1.003-1.302-2.611-1.953-4.824-1.953-1.901 0-3.36.742-4.375 2.227-1.003 1.471-1.504 3.554-1.504 6.25 0 2.734.501 4.798 1.504 6.191 1.002 1.393 2.474 2.09 4.414 2.09z" fill="#000"/><path d="M733.44 233.88c.4-.4.86-.6 1.38-.6.52 0 .96.2 1.32.6.4.36.6.8.6 1.32v1.92c.64-1.12 1.68-2.1 3.12-2.94 1.48-.84 3.16-1.26 5.04-1.26 4 0 7.08 1.2 9.24 3.6 2.2 2.4 3.3 6 3.3 10.8 0 4.8-1.1 8.42-3.3 10.86-2.16 2.4-5.24 3.6-9.24 3.6-1.88 0-3.54-.4-4.98-1.2-1.4-.84-2.46-1.84-3.18-3v13.56c0 .52-.2.96-.6 1.32-.36.4-.8.6-1.32.6s-.98-.2-1.38-.6c-.36-.36-.54-.8-.54-1.32V235.2c0-.52.18-.96.54-1.32zm5.46 5.22c-1.52 1.8-2.28 4.54-2.28 8.22 0 3.68.76 6.44 2.28 8.28 1.52 1.8 3.52 2.7 6 2.7 5.76 0 8.64-3.66 8.64-10.98 0-7.28-2.92-10.92-8.76-10.92-2.4 0-4.36.9-5.88 2.7zm26.027-2.58c2.2-2.4 5.3-3.6 9.3-3.6 4 0 7.1 1.2 9.3 3.6 2.2 2.4 3.3 6 3.3 10.8 0 4.8-1.1 8.42-3.3 10.86-2.2 2.4-5.3 3.6-9.3 3.6-3.96 0-7.06-1.2-9.3-3.6-2.2-2.44-3.3-6.06-3.3-10.86s1.1-8.4 3.3-10.8zm.6 10.8c0 7.32 2.9 10.98 8.7 10.98 5.8 0 8.7-3.66 8.7-10.98 0-7.28-2.9-10.92-8.7-10.92-5.8 0-8.7 3.64-8.7 10.92zm45.734 2.64v-8.28c-.08-.16-.18-.34-.3-.54-.12-.24-.42-.66-.9-1.26-.44-.64-.94-1.18-1.5-1.62-.56-.48-1.32-.9-2.28-1.26-.92-.4-1.9-.6-2.94-.6-5.64 0-8.46 3.64-8.46 10.92 0 7.32 2.82 10.98 8.46 10.98 2.4 0 4.32-.7 5.76-2.1 1.44-1.4 2.16-3.48 2.16-6.24zm-8.16-17.04c1.8 0 3.42.38 4.86 1.14 1.44.76 2.54 1.68 3.3 2.76V220.2c0-.56.18-1.02.54-1.38.36-.36.82-.54 1.38-.54.56 0 1.02.18 1.38.54.36.36.54.82.54 1.38v29.76c0 3.84-1.08 6.78-3.24 8.82-2.12 2-4.96 3-8.52 3-3.96 0-7-1.2-9.12-3.6-2.12-2.4-3.18-6.02-3.18-10.86 0-9.6 4.02-14.4 12.06-14.4z" fill="#333"/><path d="M824.28 258.18c-2.12-2.4-3.18-6.02-3.18-10.86s1.06-8.44 3.18-10.8c2.16-2.4 5.22-3.6 9.18-3.6 2.32 0 4.26.44 5.82 1.32 1.56.88 2.7 1.82 3.42 2.82.28.4.42.78.42 1.14 0 .52-.18.94-.54 1.26-.32.32-.72.48-1.2.48-.52 0-1-.24-1.44-.72-1.64-1.88-3.8-2.82-6.48-2.82-5.64 0-8.46 3.64-8.46 10.92 0 7.32 2.82 10.98 8.46 10.98 2.32 0 4.64-.86 6.96-2.58.4-.28.78-.42 1.14-.42.48 0 .88.18 1.2.54.36.32.54.72.54 1.2 0 .52-.26 1.02-.78 1.5-2.64 2.16-5.66 3.24-9.06 3.24-3.96 0-7.02-1.2-9.18-3.6zm25.044-24.36c.4-.36.86-.54 1.38-.54.52 0 .96.2 1.32.6.4.36.6.8.6 1.32v15.66c0 2.24.52 4.02 1.56 5.34 1.04 1.28 2.96 1.92 5.76 1.92s4.72-.64 5.76-1.92c1.04-1.32 1.56-3.1 1.56-5.34V235.2c0-.52.18-.96.54-1.32.4-.4.88-.6 1.44-.6.52 0 .96.2 1.32.6.36.36.54.8.54 1.32v15.66c0 3.32-.8 5.98-2.4 7.98-1.6 1.96-4.52 2.94-8.76 2.94s-7.16-.98-8.76-2.94c-1.6-2-2.4-4.66-2.4-7.98V235.2c0-.56.18-1.02.54-1.38zm27.206 13.5c0-4.6 1.08-8.14 3.24-10.62 2.16-2.52 5.2-3.78 9.12-3.78 1.84 0 3.46.28 4.86.84 1.4.56 2.5 1.26 3.3 2.1.84.84 1.5 1.82 1.98 2.94.52 1.08.86 2.1 1.02 3.06.2.92.3 1.84.3 2.76 0 .6-.02 1.06-.06 1.38-.04.32-.12.7-.24 1.14-.12.44-.36.78-.72 1.02-.36.2-.82.3-1.38.3h-17.52c0 3 .8 5.38 2.4 7.14 1.64 1.76 3.86 2.64 6.66 2.64 2.52 0 4.92-.86 7.2-2.58.36-.24.72-.36 1.08-.36.48 0 .88.18 1.2.54.36.32.54.72.54 1.2s-.22.94-.66 1.38c-2.24 2.24-5.36 3.36-9.36 3.36-4.12 0-7.32-1.18-9.6-3.54-2.24-2.4-3.36-6.04-3.36-10.92zm20.04-2.22c0-5.8-2.56-8.7-7.68-8.7-2.56 0-4.56.78-6 2.34-1.44 1.52-2.26 3.64-2.46 6.36h16.14z" fill="#535FD7"/><path fill-rule="evenodd" clip-rule="evenodd" d="M1086.28 717.308c.04.47-.31.667-.22 1.166-.64-.64-.75-.467-1.42.062-.26-1.31 1.01-.35 1.64-1.227v-.001zm.39 1.009c.66.058 1.4-2.051 2.32-.53-1.05.581-1.48.785-1.51 1.857-.35-.237-.61-.701-1.27-.183.13-.482.47-.81.39-1.44.27-.038.2.251.07.296zm-7.41 3.9c1.37 1.327-1.12.671-1.75 1.334.02-.328.41-.417.07-.971.61.074 2 .765 1.68-.363zm-66.2 66.627c1.16-2.764 3.99-3.013 5.87-4.806-.34 1.648-4.48 2.914-5.87 4.806zm107.82-87.99c.34-.009.66.007.65.574 1.6-.145 1.85-1.535 3.32-1.765-.2-.75-.48-1.372-1.06-1.54-.35.976-1.01 2.462-2.04 1.279.06.608 0 1.11-.33 1.374-.06-.324-.54-.34-.54.078zm3.84-.9c1.22-.011.49-2.465-.17-1.379-.08-.419-.18-.809-.65-.618.05 1.023.77.975.82 1.997zm-13.12 3.443c-.64-.33-2.36.07-2.12 1.14.44-.582 2.25-.105 2.12-1.14zm-3.57 2.162c-.31 1.111-1.92 1.202-2.72 1.953-.82-1.025 1.56-1.665 2.72-1.953zm3.96 1.393c.31-1.669 1.91-2.212 3.37-2.709 1.46-.464 2.79-.92 2.55-2.551-1.18.808-.98.68-2.25.353.56 2.094-.94.577-1.1 1.938-.36.067-.36-.55-.68-.575-.8.69-.53 1.46-2.08 1.106 0 1.713-1.84.693-2.76 1.947l.14.68c.17-.016.33-.014.34.286.7-.45.74-1.454 1.65-1.731.14.674.83.286.82 1.256zm-11.94 4.733c.31.973.99 1.158 1.45 1.794l1.34-.196c-.27-1 .62-1.134 1.19-1.513.32.735.95 1.242.62 1.915.25-1.09.77-2.35-.12-2.991.75.583.51-.433.88-.798-.43-.242-3.26.454-1.15.837-2.06-.338-2.45 1.122-4.21.952zM948.497 811.2c1.217-.565 1.073-.422 2.056-.726.117.488-1.717 1.91-2.055.726h-.001zm116.283-57.995c-.32.408-.81.695-1.78 1.138-.11-.909 2.73-2.02 3.09-1.749l-1.31.61v.001zm-16.1 14.033c-2.54.918-3.91 2.437-6.35 3.42 1.17-1.372 4.34-4.009 6.35-3.42zm-13.18 7.694c.52-.248 2.5-.827 2.74-2.327-.89.927-5.36 3.555-2.74 2.327zm-115.864 54.073c-2.447.295-7.182 3.644-10.636 3.447 3.734-1.54 5.803-2.468 9.583-4.44-.35-.665-1.069.352-1.57.377 11.511-6.164 19.076-9.752 28.56-14.932.626-.598-.1-1.221.045-1.565l4.778-2.625c.58 1.654 1.494 1.134 2.28 1.452.736-.13-.933-1.31-.196-1.438-.392-.631-.925-.323-1.466.032 5.814-4.096 14.874-9.157 23.327-14.395-.183-.672 1.428-.582.606-1.526 4.471.17 6.283-3.71 10.108-5.069-1.024-.674.903-.329 1.046-1.782.561-.34.398.065.56.462 12.477-7.788 25.679-15.74 33.759-22.168 2.09-.443 4.1-1.433 6.12-3.643 4.01-2.1 8.71-3.95 11.29-8.047.34.477.11.661-.15.832 2.04-.526 5.13-2.214 7.15-3.851.5-.286-.66-.633-.72-1.532.4-.407 1.69-.333 1.47-1.066 1.53.533-1.3.67-.34 1.663 1.86.003 3.08-1.57 4.17-3.087 7.49-2.091 14.77-8.342 20.12-10.717.1-1.018-1.28-.197-.6-.856.45-.043.35-.423.23-.82.97-.117.26.992 1.08 1.394 4.18-2.759 6.34-3.386 8.96-6.161-.15 1.391.43-.122.95.396.65-1.205.8-2.764 2.44-3.317.4 1.057-1.35 1.172-1.68 2.347 1.69-.61 3.29-1.13 4.81-2.02 1.54-.849 3-2.062 4.4-4.122-.65-1.302-1.38.924-1.79-.516 1.4-1.72 2.59-2.698 4.49-2.41.04.372-.44.356-.32.79-.09-.589 2.67-1.264 2.16-3.043 1.49.614 2.36-.245 2.13-2.33.81.24 1.85-.084 2.39.759.22-.372-.26-.777.52-1.194-1.37-1.225-1.99-.505-4.02.384-.32.756.31.552.43 1.637-1.18.043-.53-1.13-1.72-1.288-1.92.894-1.67 1.932-3.74 2.448-.14-2.502 2.44-2.388 3.82-3.174.24-.7 1.44-2.057 1.38-2.126.2-.795.63.195.51.913 2.33-1.09 1.99-2.637 2.03-4.055.86.168 1.13.79 1.02 1.85 1.93-1.394 5.54-1.257 5.25-5.064.33.153.45.698.95.474.1-1.76 2.23-.13 2.28-2.56 1.33 1.203 2.86-.78 3.95-1.472l.31 1.665c1.56-.656 2.68-1.71 4.07-2.472-1.14-1.408-2.44 1.312-3.98 1.42 1.81-1.77 3.67-3.056 5.62-4.238 2.06-1.229 4.15-2.407 6.26-3.534-2.62 2.385-4.98 3.355-7.79 5.304.79.755 1.27-.957 1.99.027 1.35-1.781 5.05-3.918 6.35-3.344.68-1.975 3.26-2.41 5.58-4.079 1.07.556-.76.871-.71 1.452.2 1.11 1.24-1.174 1.2.54-1.32.243-1.21.6-1.78-.473.15 1.502-.75.341-.66 1.783-.59.23-.59-.417-.68-.943-.09.955-.07 2.082-1.26 1.517.31 1.944 2.72.351 2.79-.672 1.47.234 3.19-.042 4.47-1.143.63 0 .69.803.72 1.645.09-.968 2.4.767 1.85 1.897 1.9 1.111 2.23.47 3.76 1.414-.8.97.26.402-.45 1.735.29.944 1.16 1.053 1.75 1.567.28 1.474-.81 1.454-.96 2.453 1.17-.056-.3 1.566 1.41.915-.37.866-1.17 1.418.09 1.693.27 1.257-.98.816-.97 1.776.1 1.19.84 1.455.94 2.646.15.808-.44.772-.17 1.714a46.088 46.088 0 0 1-7.19 6.15c-2.57 1.913-5.29 3.52-8.06 4.92-8.65 4.406-17.43 9.548-26.24 14.22-2.67 1.363-5.54 2.934-8.44 4.319-2.89 1.517-5.82 2.906-8.58 4.295-9.48 4.708-16.61 8.833-24.12 13.26a1923.01 1923.01 0 0 0-26.17 15.75c-8.66 5.289-18.61 12.741-28.05 17.524-4.33 2.181.38-.933 1.2-1.469 8.93-5.855 16.61-10.188 25.28-16.377-1.29.17-3.39 1.354-4.59 2.472 6.63-6.098 16.32-10.818 24.03-15.35.12 1.027-.69.632-1.48 1.452 3.47-.568 5.15-3.193 8.95-4.548-1.61-.944-2.33 1.261-4.58 1.742-.36.14-.78.544-1.03.109l.88-.416c6.74-5.078 14.61-8.554 20.78-12.99-4.99 2.131-10.98 4.224-15.91 8.891.02-.336.03-.673-.27-.62-4.92 2.752-9.63 5.322-13.9 8.07 5.39-4.437 11.67-7.613 17.94-11.723-3.6.757-6.57 3.633-10.87 5.308-.55.08-.23.638-.02 1.13-3.33.506-6.08 2.426-8.84 3.896-20.94 11.34-38.17 23.572-62.137 37.967-.992.6-2.029 1.017-3.353 1.935-1.03.72-2.597.697-3.697 1.346-2.794 1.66-4.98 5.026-8.279 4.336-.71.633-2.776 1.466-1.976.73 3.118-2.91 6.834-4.088 9.526-5.82 11.3-7.256 22.617-13.326 32.336-19.826-9.389 3.803-17.537 11.073-25.737 15.245-3.808 1.93-8.214 4.851-11.823 6.398-16.408 7.09-31.122 19.111-49.245 24.116.565-1.252 1.374-1.488 1.71-1.953h.001zm181.074-119.356c-.4.23-.71-1.597.03-1.31 0 .265-.18.382-.13.691 1.16.241.12-1.326 1.02-1.297-.38 1.427.61-.237 1.46-.14-.77 1.093-1.68 1.503-2.38 2.056zm-15.52 11.232c-.6-.406-.97.55-2.03.552.35-1.43 1.48-1.363 1.6-2.527.9.253.49 1.59.43 1.975zm-3.95 1.635c-.19.116-.28-.057-.37-.243-.21.587.28 2.246-.76 1.594-.29-.809.94-.625.14-1.768.46-.246.8-.154.99.417zm.69-.476c.68.278-.43 2.235-1.03 1.703-.35-1.022.85-1.021 1.03-1.703zm-3.63 2.602l-.35-.996c.49-.078 1.18-.766 1.26.32-.47.11-.4.588-.91.676zm-5.96 2.317c-.3.005-.42-.563-.75-.469.03-.743 1.39-.654 1.33-1.457.95.507-.07 1.71-.84 1.305l.26.62v.001zm1.54-.212c.57.097 2.61-.736 2.32-2.053.68.637.78.455 1.47-.129.51.89-.3.89-.07 1.59-1.73-.578-2.59 2.64-3.72.592zm-15.73 8.116c-.79.676-.81-1.317-1.23-1.939.71-.303 1.36 1.395 1.23 1.939zm-8.42 5.748c.13-.651.65-1.094 1.42-1.398.19.86-.98 1.611-1.42 1.398zm17.86-7.227c.01-.303.01-.61-.22-1.058 1.16 1.292 2.54-3.003 3.33.137-1.66-1.356-1.73 1.885-3.11.92v.001zm-20.34 9.095c.15-.814 1.34-1.32 1.91-2.383-.12.537-.39.996-.1 1.752-1.05.012-.96 1.085-1.81.63v.001zm17.79-6.92c-.27-.093-.54-.182-.88-.034-.53-.815.23-.847-.02-1.498.55.128 1.1.892.9 1.532zm1.27-1.625c.32.69-.82.492-1.11.812-.14-.664.21-1.03-.15-1.826.89-.092.9.9 1.26 1.014zm-34 17.575c-.28-1.25 1.81-1.314 2.29-2.18.24 1.778-1.27 1.027-2.29 2.18zm1.97 4.454c.02-.33-.15-.753-.46-1.247l1.33-.56c.64 1.492-.67.743-.87 1.807zm-99.771 61.991c1.56-2.227 5.837-3.105 9.992-6.012-1.692 1.83-6.89 4.085-9.992 6.012zm100.271-46.526c.58 1.359-1.84 1.24-2.52 1.978-1.38-.131 2.46-1.15 2.52-1.978zm-11.67 9.976c-.06-1.109 2.58-.943 2.53-2.053 1.1.667-2.21 2.036-2.53 2.053zm-.63 1.341c-1.33-1.817-3.37 2.288-.39-.18.11.178.23.343.39.18zm-16.15 9.913c1.51-1.15 4.1-4.16 6.35-3.42-2.17 1.03-4.86 2.794-6.35 3.42zm-31.671 18.403c1.681-1.28 4.42-2.905 6.201-3.794-.098.955-2.101 1.98-3.795 2.91-1.27.704-4.163 2.275-2.406.884z" fill="url(#c)"/><defs><linearGradient id="c" x1="1127.23" y1="709.108" x2="1037.52" y2="858.864" gradientUnits="userSpaceOnUse"><stop stop-color="#2FEAFC"/><stop offset="1" stop-color="#2FEAFC" stop-opacity="0"/></linearGradient><clipPath id="a"><path fill="#fff" transform="translate(1008.02 263.089)" d="M0 0h91.255v64.193H0z"/></clipPath><clipPath id="b"><path fill="#fff" transform="translate(45 216)" d="M0 0h162v162H0z"/></clipPath></defs></svg>