<svg width="1207" height="928" viewBox="0 0 1207 928" fill="none" xmlns="http://www.w3.org/2000/svg"><path fill="#fff" fill-opacity=".9" d="M0 0h1207v928H0z"/><path fill="#4353FE" d="M937 74h163v163H937z"/><g clip-path="url(#a)"><path d="M1043.6 142.282s-7.33 23.125-7.93 25.034c-.22-1.964-5.59-43.468-5.59-43.468-12.49 0-19.16 8.944-22.69 18.38 0 0-8.906 23.179-9.666 25.142-.054-1.799-1.357-24.87-1.357-24.87-.76-11.562-11.291-18.598-19.815-18.598l10.315 62.884c13.083-.054 20.143-8.944 23.833-18.379 0 0 7.87-20.453 8.2-21.38.05.873 5.64 39.759 5.64 39.759 13.14 0 20.2-8.344 24-17.452l18.4-45.432c-12.97 0-19.81 8.89-23.34 18.38z" fill="#fff"/></g><path d="M963.781 287h-5.078l-4.844-17.031a67.857 67.857 0 0 1-.781-3.203c-.312-1.407-.501-2.383-.566-2.93-.13.833-.345 1.914-.645 3.242-.286 1.328-.527 2.318-.722 2.969L946.418 287h-5.078l-3.692-14.297-3.75-14.258h4.766l4.082 16.641c.638 2.669 1.094 5.026 1.367 7.07a48.94 48.94 0 0 1 .645-3.711 55.73 55.73 0 0 1 .781-3.32l4.649-16.68h4.628l4.766 16.758c.456 1.55.938 3.867 1.445 6.953.196-1.862.664-4.232 1.407-7.109l4.062-16.602h4.727L963.781 287zm20.449.391c-3.359 0-5.989-.977-7.89-2.93-1.888-1.966-2.832-4.668-2.832-8.106 0-3.528.879-6.302 2.637-8.32 1.757-2.018 4.173-3.027 7.246-3.027 2.851 0 5.104.866 6.757 2.597 1.654 1.732 2.481 4.115 2.481 7.149v2.48h-14.395c.065 2.097.632 3.711 1.7 4.844 1.067 1.12 2.571 1.68 4.511 1.68 1.276 0 2.461-.117 3.555-.352 1.107-.247 2.292-.651 3.555-1.211v3.731a14.12 14.12 0 0 1-3.399 1.133c-1.146.221-2.454.332-3.926.332zm-.839-18.907c-1.459 0-2.631.463-3.516 1.387-.872.925-1.393 2.272-1.563 4.043h9.805c-.026-1.784-.456-3.131-1.289-4.043-.833-.924-1.979-1.387-3.437-1.387zm25.489-3.476c2.69 0 4.79.976 6.29 2.93 1.51 1.953 2.26 4.694 2.26 8.222 0 3.542-.76 6.302-2.28 8.281-1.53 1.967-3.64 2.95-6.35 2.95-2.73 0-4.86-.983-6.37-2.95h-.31l-.84 2.559h-3.436v-30.391h4.586v7.227c0 .534-.02 1.328-.07 2.383-.06 1.054-.1 1.725-.12 2.011h.19c1.46-2.148 3.61-3.222 6.45-3.222zm-1.19 3.75c-1.85 0-3.19.547-4.01 1.64-.8 1.081-1.22 2.898-1.25 5.45v.312c0 2.63.42 4.538 1.25 5.723.84 1.172 2.2 1.758 4.09 1.758 1.62 0 2.85-.645 3.69-1.934.84-1.289 1.27-3.151 1.27-5.586 0-4.909-1.68-7.363-5.04-7.363zm25.92.117h-5.28V287h-4.61v-18.125h-3.55v-2.148l3.55-1.407v-1.406c0-2.552.6-4.44 1.8-5.664 1.2-1.237 3.03-1.855 5.49-1.855 1.61 0 3.2.266 4.76.8l-1.21 3.477c-1.13-.365-2.21-.547-3.24-.547-1.04 0-1.8.326-2.28.977-.47.638-.71 1.601-.71 2.89v1.406h5.28v3.477zm8.26 18.125h-4.59v-30.391h4.59V287zm25.76-10.84c0 3.529-.91 6.283-2.72 8.262s-4.33 2.969-7.55 2.969c-2.02 0-3.81-.456-5.36-1.368-1.55-.911-2.74-2.22-3.57-3.925-.83-1.706-1.25-3.685-1.25-5.938 0-3.502.9-6.237 2.7-8.203 1.79-1.966 4.32-2.949 7.59-2.949 3.13 0 5.6 1.009 7.42 3.027 1.83 2.005 2.74 4.714 2.74 8.125zm-15.72 0c0 4.987 1.84 7.481 5.52 7.481 3.65 0 5.47-2.494 5.47-7.481 0-4.935-1.83-7.402-5.51-7.402-1.92 0-3.32.638-4.19 1.914-.86 1.276-1.29 3.105-1.29 5.488zm38.73 10.84l-2.8-10.078c-.33-1.068-.95-3.548-1.83-7.442h-.18c-.75 3.516-1.35 6.01-1.79 7.481L1081.16 287h-5.07l-6.06-21.602h4.69l2.75 10.645c.63 2.63 1.07 4.883 1.33 6.758h.12c.13-.951.32-2.038.58-3.262.28-1.237.51-2.161.71-2.773l3.28-11.368h5.04l3.18 11.368c.2.638.44 1.614.72 2.929.3 1.315.48 2.338.53 3.067h.16c.19-1.602.65-3.841 1.36-6.719l2.8-10.645h4.61l-6.1 21.602h-5.15z" fill="#000"/><path d="M1063.96 360h-89.92c-19.905 0-36.04 16.135-36.04 36.04v89.92c0 19.905 16.135 36.04 36.04 36.04h89.92c19.9 0 36.04-16.135 36.04-36.04v-89.92c0-19.905-16.14-36.04-36.04-36.04z" fill="url(#b)"/><path d="M1014.05 501.826c-4.83-1.728-5.87-4.077-7.85-17.842-2.3-16-2.81-25.904-1.47-29.041 1.77-4.158 6.57-6.518 13.3-6.545 6.67-.027 11.52 2.354 13.3 6.545 1.34 3.132.84 13.041-1.47 29.041-1.57 11.178-2.43 14.002-4.59 15.903-2.97 2.63-7.18 3.359-11.18 1.944l-.04-.005zm-20.641-16.416c-16.686-8.208-27.378-22.097-31.266-40.576-.972-4.768-1.134-16.146-.216-20.52 2.43-11.745 7.074-20.93 14.796-29.052 11.124-11.729 25.437-17.928 41.367-17.928 15.77 0 30.02 6.086 40.88 17.464 8.26 8.586 12.9 17.674 15.28 29.646.81 3.985.81 14.85.05 19.332-2.48 14.169-10.37 27.075-21.87 35.748-4.1 3.099-14.15 8.51-15.77 8.51-.59 0-.64-.616-.37-3.105.48-3.996.97-4.828 3.24-5.778 3.61-1.512 9.77-5.897 13.55-9.688 6.53-6.48 11.34-14.958 13.55-23.868 1.41-5.562 1.25-17.928-.32-23.652-4.91-18.198-19.76-32.346-37.96-36.126-5.29-1.08-14.91-1.08-20.25 0-18.417 3.78-33.645 18.63-38.289 37.314-1.242 5.076-1.242 17.442 0 22.518 3.078 12.366 11.07 23.706 21.546 30.456 2.052 1.35 4.536 2.754 5.562 3.186 2.268.972 2.754 1.782 3.191 5.778.27 2.43.21 3.132-.383 3.132-.378 0-3.132-1.188-6.048-2.592l-.27-.199zm.216-21.968c-5.616-4.482-10.584-12.43-12.636-20.228-1.242-4.709-1.242-13.662.054-18.36 3.402-12.679 12.744-22.507 25.707-27.124 4.43-1.566 14.25-1.917 19.71-.713 18.79 4.185 32.13 23.004 29.54 41.672-1.03 7.522-3.62 13.7-8.21 19.44-2.27 2.9-7.78 7.765-8.75 7.765-.16 0-.32-1.836-.32-4.072v-4.082l2.8-3.348c10.59-12.679 9.83-30.391-1.72-42.012-4.49-4.525-9.67-7.182-16.37-8.408-4.32-.799-5.23-.799-9.77-.054-6.89 1.123-12.22 3.791-16.957 8.478-11.61 11.502-12.366 29.306-1.782 41.996l2.787 3.348v4.104c0 2.268-.178 4.104-.4 4.104-.216 0-1.782-1.08-3.456-2.43l-.227-.076zm18.735-22.048c-4.8-2.235-7.39-6.453-7.45-11.95 0-4.941 2.76-9.25 7.51-11.772 3.02-1.588 8.37-1.588 11.39.011 3.3 1.712 6 5.033 7.02 8.499 3.13 10.649-8.15 19.98-18.36 15.212h-.11z" fill="#fff"/><path d="M1018.94 443.489c7.44 0 13.47-6.029 13.47-13.467 0-7.438-6.03-13.468-13.47-13.468s-13.47 6.03-13.47 13.468 6.03 13.467 13.47 13.467zm1.29 5.217c.94.124 2.79.367 4.51.918 1.73.54 3.29 1.388 4.51 2.257 1.19.864 2.06 1.76 2.6 2.851s.81 2.387.97 4.509c.11 2.128.11 5.076-.38 10.584-.49 5.492-1.46 13.543-2.21 18.7-.76 5.184-1.3 7.452-2 9.126-.7 1.728-1.62 2.862-2.65 3.672-1.02.81-2.21 1.296-3.35 1.566-1.13.27-2.16.27-3.13.27-.97 0-1.89 0-3.13-.27s-2.86-.756-4.05-1.728c-1.24-.972-2.05-2.376-2.7-4.212-.65-1.836-1.13-4.05-1.78-8.478-.65-4.428-1.51-11.016-2.05-16.038-.54-5.022-.76-8.478-.8-10.8-.06-2.322.05-3.472.32-4.59.27-1.08.7-2.106 1.3-2.97.59-.864 1.37-1.62 2.16-2.214a8.7 8.7 0 0 1 2.51-1.36c.94-.378 2.07-.702 3.46-.972 1.4-.27 3.02-.54 3.86-.648.83-.125.83-.125 1.76 0l.27-.173z" fill="#fff"/><path d="M894.176 573l-2.852-7.93h-10.918l-2.793 7.93h-4.922l10.684-28.672h5.078L899.137 573h-4.961zm-4.082-11.953l-2.676-7.774a52.118 52.118 0 0 1-.82-2.461 57.937 57.937 0 0 1-.703-2.46c-.352 1.601-.866 3.352-1.543 5.253l-2.579 7.442h8.321zm23.281 12.344c-2.734 0-4.857-.983-6.367-2.95h-.274c.183 1.823.274 2.93.274 3.321v8.847h-4.59v-31.211h3.711c.104.404.319 1.368.644 2.891h.235c1.432-2.187 3.581-3.281 6.445-3.281 2.695 0 4.792.976 6.289 2.93 1.511 1.953 2.266 4.694 2.266 8.222 0 3.529-.768 6.283-2.305 8.262-1.523 1.979-3.633 2.969-6.328 2.969zm-1.113-18.633c-1.823 0-3.158.534-4.004 1.601-.834 1.068-1.25 2.774-1.25 5.118v.683c0 2.63.416 4.538 1.25 5.723.833 1.172 2.194 1.758 4.082 1.758 1.588 0 2.812-.651 3.672-1.953.859-1.303 1.289-3.158 1.289-5.567 0-2.422-.43-4.251-1.289-5.488-.847-1.25-2.097-1.875-3.75-1.875zm26.035 18.633c-2.735 0-4.857-.983-6.367-2.95h-.274c.183 1.823.274 2.93.274 3.321v8.847h-4.59v-31.211h3.711c.104.404.319 1.368.644 2.891h.235c1.432-2.187 3.58-3.281 6.445-3.281 2.695 0 4.792.976 6.289 2.93 1.51 1.953 2.266 4.694 2.266 8.222 0 3.529-.769 6.283-2.305 8.262-1.523 1.979-3.633 2.969-6.328 2.969zm-1.113-18.633c-1.823 0-3.158.534-4.004 1.601-.834 1.068-1.25 2.774-1.25 5.118v.683c0 2.63.416 4.538 1.25 5.723.833 1.172 2.194 1.758 4.082 1.758 1.588 0 2.812-.651 3.672-1.953.859-1.303 1.289-3.158 1.289-5.567 0-2.422-.43-4.251-1.289-5.488-.847-1.25-2.097-1.875-3.75-1.875zM956.852 573h-4.59v-30.391h4.59V573zm16.015.391c-3.359 0-5.989-.977-7.89-2.93-1.888-1.966-2.832-4.668-2.832-8.106 0-3.528.878-6.302 2.636-8.32 1.758-2.018 4.173-3.027 7.246-3.027 2.852 0 5.105.866 6.758 2.597 1.654 1.732 2.481 4.115 2.481 7.149v2.48h-14.395c.065 2.097.632 3.711 1.699 4.844 1.068 1.12 2.572 1.68 4.512 1.68 1.276 0 2.461-.117 3.555-.352 1.106-.247 2.291-.651 3.554-1.211v3.731a14.098 14.098 0 0 1-3.398 1.133c-1.146.221-2.454.332-3.926.332zm-.84-18.907c-1.458 0-2.63.463-3.515 1.387-.873.925-1.394 2.272-1.563 4.043h9.805c-.026-1.784-.456-3.131-1.289-4.043-.833-.924-1.979-1.387-3.438-1.387zm44.243-1.406c0 2.982-.98 5.267-2.93 6.856-1.96 1.588-4.74 2.382-8.34 2.382h-2.97V573h-4.671v-28.555h8.221c3.57 0 6.24.729 8.01 2.188 1.78 1.458 2.68 3.607 2.68 6.445zm-14.24 5.313h2.48c2.39 0 4.15-.417 5.27-1.25 1.12-.834 1.68-2.136 1.68-3.907 0-1.64-.5-2.864-1.5-3.672-1.01-.807-2.57-1.21-4.69-1.21h-3.24v10.039zm38.61 3.769c0 3.529-.9 6.283-2.71 8.262s-4.33 2.969-7.56 2.969c-2.02 0-3.8-.456-5.35-1.368-1.55-.911-2.75-2.22-3.58-3.925-.83-1.706-1.25-3.685-1.25-5.938 0-3.502.9-6.237 2.7-8.203 1.79-1.966 4.33-2.949 7.59-2.949 3.13 0 5.6 1.009 7.43 3.027 1.82 2.005 2.73 4.714 2.73 8.125zm-15.72 0c0 4.987 1.84 7.481 5.53 7.481 3.64 0 5.46-2.494 5.46-7.481 0-4.935-1.83-7.402-5.5-7.402-1.93 0-3.33.638-4.2 1.914-.86 1.276-1.29 3.105-1.29 5.488zm28.3 11.231c-2.7 0-4.8-.977-6.31-2.93-1.51-1.953-2.27-4.694-2.27-8.223 0-3.541.77-6.295 2.29-8.261 1.54-1.98 3.66-2.969 6.37-2.969 2.84 0 5 1.048 6.48 3.144h.24c-.23-1.549-.34-2.773-.34-3.672v-7.871h4.61V573h-3.59l-.8-2.832h-.22c-1.47 2.148-3.62 3.223-6.46 3.223zm1.23-3.711c1.89 0 3.26-.528 4.12-1.582.86-1.068 1.3-2.793 1.33-5.176v-.645c0-2.721-.44-4.655-1.33-5.8-.89-1.146-2.27-1.719-4.16-1.719-1.61 0-2.86.657-3.73 1.972-.87 1.303-1.31 3.165-1.31 5.586 0 2.396.42 4.226 1.27 5.489.85 1.25 2.12 1.875 3.81 1.875zm25.12 3.711c-3.27 0-5.76-.951-7.46-2.852-1.7-1.914-2.54-4.655-2.54-8.223 0-3.632.88-6.425 2.65-8.378 1.79-1.954 4.36-2.93 7.72-2.93 2.28 0 4.33.423 6.15 1.269l-1.39 3.692c-1.94-.755-3.54-1.133-4.8-1.133-3.74 0-5.61 2.48-5.61 7.441 0 2.422.47 4.245 1.39 5.469.94 1.211 2.3 1.816 4.1 1.816 2.05 0 3.98-.507 5.8-1.523v4.004c-.82.482-1.7.827-2.63 1.035-.93.208-2.06.313-3.38.313zm24.61-.391l-.92-3.008h-.16c-1.04 1.315-2.09 2.214-3.14 2.696-1.06.468-2.41.703-4.07.703-2.12 0-3.78-.573-4.98-1.719-1.18-1.146-1.77-2.767-1.77-4.863 0-2.227.82-3.907 2.48-5.039 1.65-1.133 4.17-1.752 7.56-1.856l3.73-.117v-1.152c0-1.381-.33-2.409-.98-3.086-.64-.691-1.63-1.036-2.99-1.036-1.11 0-2.17.163-3.18.489a23.78 23.78 0 0 0-2.93 1.152l-1.49-3.281a15.898 15.898 0 0 1 3.85-1.387c1.39-.325 2.71-.488 3.95-.488 2.74 0 4.81.599 6.21 1.797 1.4 1.198 2.11 3.079 2.11 5.644V573h-3.28zm-6.84-3.125c1.67 0 3-.462 4-1.387 1.02-.937 1.53-2.246 1.53-3.926v-1.874l-2.78.117c-2.16.078-3.73.442-4.72 1.093-.98.638-1.47 1.622-1.47 2.95 0 .963.29 1.712.86 2.246.57.521 1.43.781 2.58.781zm31.04-3.027c0 2.109-.77 3.73-2.31 4.863-1.54 1.12-3.74 1.68-6.6 1.68-2.88 0-5.19-.437-6.93-1.309v-3.965c2.53 1.172 4.9 1.758 7.08 1.758 2.83 0 4.24-.853 4.24-2.559 0-.546-.15-1.002-.47-1.367-.31-.364-.82-.742-1.54-1.133-.71-.39-1.71-.833-2.99-1.328-2.48-.963-4.17-1.927-5.06-2.89-.87-.964-1.3-2.214-1.3-3.75 0-1.849.74-3.282 2.22-4.297 1.5-1.029 3.53-1.543 6.1-1.543 2.54 0 4.94.514 7.2 1.543l-1.48 3.457c-2.33-.964-4.29-1.446-5.88-1.446-2.42 0-3.63.691-3.63 2.071 0 .677.31 1.25.93 1.719.64.468 2.02 1.113 4.15 1.933 1.78.69 3.07 1.322 3.88 1.895s1.41 1.237 1.8 1.992c.39.742.59 1.634.59 2.676zm13.02 2.832c1.12 0 2.24-.176 3.36-.528v3.457c-.51.222-1.16.404-1.97.547-.8.156-1.62.235-2.48.235-4.35 0-6.52-2.292-6.52-6.875v-11.641h-2.95v-2.031l3.16-1.68 1.56-4.57h2.83v4.804h6.16v3.477h-6.16v11.563c0 1.106.28 1.927.82 2.46.56.521 1.29.782 2.19.782zm22.21-2.832c0 2.109-.77 3.73-2.31 4.863-1.53 1.12-3.73 1.68-6.6 1.68-2.87 0-5.19-.437-6.93-1.309v-3.965c2.54 1.172 4.9 1.758 7.09 1.758 2.82 0 4.24-.853 4.24-2.559 0-.546-.16-1.002-.47-1.367-.31-.364-.83-.742-1.54-1.133-.72-.39-1.72-.833-2.99-1.328-2.49-.963-4.18-1.927-5.06-2.89-.87-.964-1.31-2.214-1.31-3.75 0-1.849.74-3.282 2.23-4.297 1.49-1.029 3.53-1.543 6.09-1.543 2.54 0 4.94.514 7.21 1.543l-1.49 3.457c-2.33-.964-4.29-1.446-5.88-1.446-2.42 0-3.63.691-3.63 2.071 0 .677.31 1.25.94 1.719.64.468 2.02 1.113 4.14 1.933 1.78.69 3.08 1.322 3.89 1.895.8.573 1.4 1.237 1.79 1.992.39.742.59 1.634.59 2.676z" fill="#000"/><g clip-path="url(#c)" fill="#4D4D4D"><path d="M124.001 369.992c-1.994 0-3.72.73-5.177 2.186L80.51 410.492H50.365c-1.996 0-3.721.73-5.179 2.186-1.457 1.457-2.186 3.184-2.186 5.178v44.175c0 1.994.729 3.721 2.186 5.177 1.459 1.457 3.185 2.187 5.179 2.187h30.144l38.313 38.314c1.458 1.456 3.183 2.186 5.177 2.186 1.996 0 3.722-.73 5.179-2.186 1.457-1.456 2.186-3.183 2.186-5.177v-125.18c0-1.994-.729-3.721-2.185-5.178-1.458-1.456-3.183-2.186-5.178-2.186m46.659 86.243c3.261-5.024 4.891-10.449 4.891-16.279s-1.63-11.281-4.891-16.344c-3.262-5.062-7.573-8.628-12.944-10.7-.767-.383-1.727-.575-2.877-.575-1.994 0-3.721.711-5.177 2.128-1.456 1.427-2.187 3.165-2.187 5.236 0 1.611.46 2.972 1.382 4.085a13.457 13.457 0 0 0 3.337 2.877 59.076 59.076 0 0 1 3.912 2.646c1.305.959 2.416 2.321 3.337 4.084.918 1.766 1.38 3.952 1.38 6.56 0 2.609-.461 4.795-1.38 6.56-.921 1.765-2.032 3.125-3.337 4.086a59.467 59.467 0 0 1-3.912 2.646 13.47 13.47 0 0 0-3.337 2.875c-.921 1.115-1.382 2.475-1.382 4.086 0 2.072.731 3.816 2.187 5.235 1.456 1.412 3.183 2.13 5.177 2.13 1.15 0 2.11-.192 2.877-.574 5.371-2.151 9.684-5.738 12.944-10.762"/><path d="M195.219 472.457c6.52-9.928 9.781-20.767 9.781-32.509 0-11.737-3.261-22.57-9.781-32.51-6.52-9.927-15.152-17.161-25.889-21.687a8.28 8.28 0 0 0-2.99-.575c-1.994 0-3.721.729-5.18 2.186-1.456 1.458-2.184 3.183-2.184 5.178 0 2.992 1.495 5.254 4.488 6.789 4.294 2.225 7.209 3.912 8.743 5.062 5.677 4.143 10.106 9.339 13.289 15.591 3.183 6.252 4.775 12.906 4.775 19.969 0 7.056-1.592 13.711-4.775 19.968-3.183 6.254-7.613 11.448-13.289 15.591-1.534 1.151-4.449 2.839-8.743 5.063-2.993 1.535-4.488 3.798-4.488 6.79 0 1.994.728 3.721 2.184 5.177 1.459 1.459 3.222 2.188 5.293 2.188.921 0 1.882-.194 2.877-.575 10.737-4.528 19.369-11.757 25.889-21.69"/></g><path d="M56.137 572l-2.852-7.93H42.367L39.574 572h-4.922l10.684-28.672h5.078L61.098 572h-4.961zm-4.082-11.953l-2.676-7.774a52.394 52.394 0 0 1-.82-2.461 59.072 59.072 0 0 1-.703-2.46c-.352 1.601-.866 3.352-1.544 5.253l-2.578 7.442h8.32zM79.613 572l-.644-2.832h-.235c-.638 1.003-1.55 1.79-2.734 2.363-1.172.573-2.513.86-4.023.86-2.618 0-4.57-.651-5.86-1.953-1.289-1.303-1.933-3.275-1.933-5.918v-14.122h4.629v13.321c0 1.653.338 2.897 1.015 3.73.677.821 1.738 1.231 3.184 1.231 1.927 0 3.34-.573 4.238-1.719.912-1.159 1.367-3.093 1.367-5.801v-10.762h4.61V572h-3.614zm17.442.391c-2.696 0-4.799-.977-6.309-2.93-1.51-1.953-2.265-4.694-2.265-8.223 0-3.541.761-6.295 2.285-8.261 1.536-1.98 3.658-2.969 6.367-2.969 2.838 0 5 1.048 6.484 3.144h.235c-.222-1.549-.332-2.773-.332-3.672v-7.871h4.609V572h-3.594l-.801-2.832h-.214c-1.472 2.148-3.627 3.223-6.465 3.223zm1.23-3.711c1.888 0 3.262-.528 4.121-1.582.86-1.068 1.302-2.793 1.328-5.176v-.645c0-2.721-.442-4.655-1.328-5.8-.885-1.146-2.272-1.719-4.16-1.719-1.614 0-2.858.657-3.73 1.972-.873 1.303-1.309 3.165-1.309 5.586 0 2.396.423 4.226 1.27 5.489.846 1.25 2.115 1.875 3.808 1.875zm20.996 3.32h-4.59v-21.602h4.59V572zm-4.863-27.324c0-.821.221-1.452.664-1.895.456-.442 1.1-.664 1.934-.664.807 0 1.432.222 1.875.664.455.443.683 1.074.683 1.895 0 .781-.228 1.4-.683 1.855-.443.443-1.068.664-1.875.664-.834 0-1.478-.221-1.934-.664-.443-.455-.664-1.074-.664-1.855zm30.605 16.484c0 3.529-.905 6.283-2.714 8.262-1.81 1.979-4.33 2.969-7.559 2.969-2.018 0-3.802-.456-5.352-1.368-1.549-.911-2.74-2.22-3.574-3.925-.833-1.706-1.25-3.685-1.25-5.938 0-3.502.899-6.237 2.696-8.203 1.796-1.966 4.329-2.949 7.597-2.949 3.125 0 5.599 1.009 7.422 3.027 1.823 2.005 2.734 4.714 2.734 8.125zm-15.722 0c0 4.987 1.842 7.481 5.527 7.481 3.646 0 5.469-2.494 5.469-7.481 0-4.935-1.836-7.402-5.508-7.402-1.927 0-3.327.638-4.199 1.914-.86 1.276-1.289 3.105-1.289 5.488zm42.246-7.285h-5.274V572h-4.609v-18.125h-3.555v-2.148l3.555-1.407v-1.406c0-2.552.599-4.44 1.797-5.664 1.198-1.237 3.027-1.855 5.488-1.855 1.615 0 3.203.266 4.766.8l-1.211 3.477c-1.133-.365-2.214-.547-3.242-.547-1.042 0-1.804.326-2.285.977-.469.638-.704 1.601-.704 2.89v1.406h5.274v3.477zM179.809 572h-4.59v-21.602h4.59V572zm-4.864-27.324c0-.821.222-1.452.664-1.895.456-.442 1.101-.664 1.934-.664.807 0 1.432.222 1.875.664.456.443.684 1.074.684 1.895 0 .781-.228 1.4-.684 1.855-.443.443-1.068.664-1.875.664-.833 0-1.478-.221-1.934-.664-.442-.455-.664-1.074-.664-1.855zM191 572h-4.59v-30.391H191V572zm16.016.391c-3.36 0-5.99-.977-7.891-2.93-1.888-1.966-2.832-4.668-2.832-8.106 0-3.528.879-6.302 2.637-8.32 1.758-2.018 4.173-3.027 7.246-3.027 2.851 0 5.104.866 6.758 2.597 1.653 1.732 2.48 4.115 2.48 7.149v2.48H201.02c.065 2.097.631 3.711 1.699 4.844 1.067 1.12 2.571 1.68 4.511 1.68 1.277 0 2.461-.117 3.555-.352 1.107-.247 2.292-.651 3.555-1.211v3.731a14.12 14.12 0 0 1-3.399 1.133c-1.145.221-2.454.332-3.925.332zm-.84-18.907c-1.459 0-2.63.463-3.516 1.387-.872.925-1.393 2.272-1.562 4.043h9.804c-.026-1.784-.455-3.131-1.289-4.043-.833-.924-1.979-1.387-3.437-1.387zm749.661 125.167h121.814v90.419H955.837z" fill="#000"/><path d="M1018 646.267c-44.601 0-80.756 36.154-80.756 80.751 0 44.599 36.155 80.751 80.756 80.751 44.6 0 80.75-36.152 80.75-80.751 0-44.594-36.15-80.747-80.75-80.747v-.004zm37.03 116.467a5.028 5.028 0 0 1-6.92 1.668c-18.96-11.581-42.83-14.204-70.942-7.782a5.036 5.036 0 0 1-6.026-3.79 5.026 5.026 0 0 1 3.786-6.026c30.762-7.031 57.142-4.002 78.432 9.006a5.041 5.041 0 0 1 1.67 6.924zm9.88-21.991c-1.82 2.965-5.7 3.901-8.66 2.078-21.7-13.345-54.79-17.209-80.464-9.415a6.306 6.306 0 0 1-7.858-4.195 6.305 6.305 0 0 1 4.199-7.852c29.323-8.898 65.783-4.588 90.713 10.73 2.96 1.822 3.89 5.698 2.07 8.655v-.001zm.85-22.896c-26.02-15.458-68.965-16.88-93.813-9.338-3.991 1.21-8.21-1.043-9.419-5.033a7.555 7.555 0 0 1 5.034-9.422c28.525-8.659 75.948-6.986 105.908 10.802a7.542 7.542 0 0 1 2.64 10.35c-2.12 3.589-6.77 4.772-10.35 2.641z" fill="#1ED760"/><path d="M971.105 851.246c0 2.539-.917 4.531-2.753 5.977-1.836 1.445-4.369 2.168-7.598 2.168s-5.872-.502-7.93-1.504v-4.414a21.651 21.651 0 0 0 4.141 1.445c1.471.352 2.838.527 4.101.527 1.849 0 3.21-.351 4.082-1.054.886-.703 1.329-1.648 1.329-2.832 0-1.068-.404-1.973-1.211-2.715-.808-.742-2.474-1.621-5-2.637-2.605-1.055-4.44-2.259-5.508-3.613-1.068-1.354-1.602-2.982-1.602-4.883 0-2.383.847-4.258 2.539-5.625 1.693-1.367 3.965-2.051 6.817-2.051 2.734 0 5.455.599 8.164 1.797l-1.485 3.809c-2.539-1.068-4.804-1.602-6.796-1.602-1.511 0-2.657.332-3.438.996-.781.651-1.172 1.517-1.172 2.598 0 .742.156 1.38.469 1.914.312.521.827 1.015 1.543 1.484.716.469 2.005 1.087 3.867 1.856 2.096.872 3.633 1.686 4.609 2.441.977.755 1.693 1.608 2.149 2.559.456.95.683 2.07.683 3.359zm15.997 8.145c-2.735 0-4.857-.983-6.368-2.95h-.273c.182 1.823.273 2.93.273 3.321v8.847h-4.589v-31.211h3.71c.105.404.319 1.368.645 2.891h.234c1.433-2.187 3.581-3.281 6.446-3.281 2.695 0 4.791.976 6.289 2.93 1.51 1.953 2.265 4.694 2.265 8.222 0 3.529-.768 6.283-2.304 8.262-1.524 1.979-3.633 2.969-6.328 2.969zm-1.114-18.633c-1.823 0-3.157.534-4.004 1.601-.833 1.068-1.25 2.774-1.25 5.118v.683c0 2.63.417 4.538 1.25 5.723.834 1.172 2.194 1.758 4.082 1.758 1.589 0 2.813-.651 3.672-1.953.86-1.303 1.289-3.158 1.289-5.567 0-2.422-.429-4.251-1.289-5.488-.846-1.25-2.096-1.875-3.75-1.875zm34.242 7.402c0 3.529-.91 6.283-2.72 8.262s-4.33 2.969-7.56 2.969c-2.02 0-3.8-.456-5.35-1.368-1.55-.911-2.74-2.22-3.57-3.925-.84-1.706-1.253-3.685-1.253-5.938 0-3.502.903-6.237 2.693-8.203 1.8-1.966 4.33-2.949 7.6-2.949 3.13 0 5.6 1.009 7.42 3.027 1.83 2.005 2.74 4.714 2.74 8.125zm-15.73 0c0 4.987 1.85 7.481 5.53 7.481 3.65 0 5.47-2.494 5.47-7.481 0-4.935-1.84-7.402-5.51-7.402-1.92 0-3.32.638-4.2 1.914-.86 1.276-1.29 3.105-1.29 5.488zm29.07 7.52c1.12 0 2.24-.176 3.36-.528v3.457c-.51.222-1.17.404-1.98.547-.79.156-1.62.235-2.48.235-4.35 0-6.52-2.292-6.52-6.875v-11.641H1023v-2.031l3.16-1.68 1.57-4.57h2.83v4.804h6.15v3.477h-6.15v11.563c0 1.106.27 1.927.82 2.46.56.521 1.29.782 2.19.782zm12.28 3.32h-4.59v-21.602h4.59V859zm-4.86-27.324c0-.821.22-1.452.66-1.895.46-.442 1.1-.664 1.94-.664.8 0 1.43.222 1.87.664.46.443.68 1.074.68 1.895 0 .781-.22 1.4-.68 1.855-.44.443-1.07.664-1.87.664-.84 0-1.48-.221-1.94-.664-.44-.455-.66-1.074-.66-1.855zm22.28 9.199H1058V859h-4.61v-18.125h-3.55v-2.148l3.55-1.407v-1.406c0-2.552.6-4.44 1.8-5.664 1.2-1.237 3.02-1.855 5.49-1.855 1.61 0 3.2.266 4.76.8l-1.21 3.477c-1.13-.365-2.21-.547-3.24-.547-1.04 0-1.81.326-2.29.977-.47.638-.7 1.601-.7 2.89v1.406h5.27v3.477zm.41-3.477h5l4.4 12.247c.66 1.744 1.1 3.385 1.33 4.921h.15c.12-.716.33-1.582.65-2.597.31-1.029 1.96-5.886 4.96-14.571h4.96l-9.24 24.473c-1.68 4.492-4.48 6.738-8.4 6.738-1.01 0-2-.11-2.97-.332v-3.632c.69.156 1.48.234 2.37.234 2.21 0 3.77-1.283 4.66-3.848l.81-2.031-8.68-21.602z" fill="#000"/><path d="M538 171.5l.007-2.472h-2.535v2.479L538 171.5zm355.282 1.748c.99-.965.995-2.531.01-3.496l-16.04-15.732a2.57 2.57 0 0 0-3.575 0 2.434 2.434 0 0 0-.01 3.496l14.258 13.984-14.338 13.984a2.433 2.433 0 0 0-.01 3.496 2.568 2.568 0 0 0 3.574 0l16.131-15.732zM540.528 348.993v-177.5l-5.056.014v177.5l5.056-.014zm-2.535-175.021h353.5l.014-4.944h-353.5l-.014 4.944z" fill="#535FD7"/><path d="M889.418 457.782a2.5 2.5 0 0 0 .028-3.536l-15.783-16.035a2.5 2.5 0 1 0-3.563 3.507l14.029 14.254-14.254 14.029a2.5 2.5 0 0 0 3.507 3.564l16.036-15.783zM635.98 456.5l251.665 2 .039-5-251.664-2-.04 5zm-207.116.268a2.501 2.501 0 0 0 0-3.536l-15.91-15.91a2.501 2.501 0 0 0-3.536 3.536L423.56 455l-14.142 14.142a2.501 2.501 0 0 0 3.536 3.536l15.91-15.91zM244 457.5h183.096v-5H244v5z" fill="#AAA"/><path d="M735 709.45l.007 2.472h-2.535v-2.479l2.528.007zm143.727-1.749c.99.966.995 2.531.01 3.496l-16.04 15.732a2.567 2.567 0 0 1-3.575 0 2.434 2.434 0 0 1-.01-3.496l14.258-13.984-14.338-13.983a2.433 2.433 0 0 1-.01-3.496 2.566 2.566 0 0 1 3.574 0l16.131 15.731zM737.528 457.007v252.449l-5.056-.013v-252.45l5.056.014zm-2.535 249.971l141.945-.001.014 4.944-141.945.001-.014-4.944z" fill="#AAA"/><path d="M435.594 553.078c0 2.982-.977 5.267-2.93 6.856-1.953 1.588-4.733 2.382-8.34 2.382h-2.969V573h-4.667v-28.555h8.222c3.568 0 6.237.729 8.008 2.188 1.784 1.458 2.676 3.607 2.676 6.445zm-14.239 5.313h2.481c2.396 0 4.154-.417 5.273-1.25 1.12-.834 1.68-2.136 1.68-3.907 0-1.64-.501-2.864-1.504-3.672-1.002-.807-2.565-1.21-4.687-1.21h-3.243v10.039zm38.614 3.769c0 3.529-.905 6.283-2.715 8.262-1.81 1.979-4.33 2.969-7.559 2.969-2.018 0-3.802-.456-5.351-1.368-1.55-.911-2.741-2.22-3.574-3.925-.834-1.706-1.25-3.685-1.25-5.938 0-3.502.898-6.237 2.695-8.203 1.797-1.966 4.329-2.949 7.597-2.949 3.126 0 5.599 1.009 7.422 3.027 1.823 2.005 2.735 4.714 2.735 8.125zm-15.723 0c0 4.987 1.843 7.481 5.527 7.481 3.646 0 5.469-2.494 5.469-7.481 0-4.935-1.836-7.402-5.508-7.402-1.927 0-3.326.638-4.199 1.914-.859 1.276-1.289 3.105-1.289 5.488zm28.301 11.231c-2.695 0-4.798-.977-6.309-2.93-1.51-1.953-2.265-4.694-2.265-8.223 0-3.541.761-6.295 2.285-8.261 1.536-1.98 3.659-2.969 6.367-2.969 2.839 0 5 1.048 6.484 3.144h.235c-.222-1.549-.332-2.773-.332-3.672v-7.871h4.609V573h-3.594l-.8-2.832h-.215c-1.472 2.148-3.627 3.223-6.465 3.223zm1.23-3.711c1.888 0 3.262-.528 4.121-1.582.86-1.068 1.303-2.793 1.329-5.176v-.645c0-2.721-.443-4.655-1.329-5.8-.885-1.146-2.272-1.719-4.16-1.719-1.614 0-2.858.657-3.73 1.972-.873 1.303-1.309 3.165-1.309 5.586 0 2.396.423 4.226 1.27 5.489.846 1.25 2.116 1.875 3.808 1.875zm25.118 3.711c-3.269 0-5.756-.951-7.461-2.852-1.693-1.914-2.539-4.655-2.539-8.223 0-3.632.885-6.425 2.656-8.378 1.784-1.954 4.355-2.93 7.715-2.93 2.278 0 4.329.423 6.152 1.269l-1.387 3.692c-1.94-.755-3.541-1.133-4.804-1.133-3.737 0-5.606 2.48-5.606 7.441 0 2.422.462 4.245 1.387 5.469.937 1.211 2.304 1.816 4.101 1.816 2.045 0 3.978-.507 5.801-1.523v4.004a9.027 9.027 0 0 1-2.637 1.035c-.924.208-2.05.313-3.378.313zm24.609-.391l-.918-3.008h-.156c-1.042 1.315-2.09 2.214-3.145 2.696-1.055.468-2.409.703-4.062.703-2.123 0-3.783-.573-4.981-1.719-1.185-1.146-1.777-2.767-1.777-4.863 0-2.227.827-3.907 2.48-5.039 1.654-1.133 4.173-1.752 7.559-1.856l3.73-.117v-1.152c0-1.381-.325-2.409-.976-3.086-.638-.691-1.634-1.036-2.988-1.036-1.107 0-2.168.163-3.184.489a23.905 23.905 0 0 0-2.93 1.152l-1.484-3.281a15.702 15.702 0 0 1 3.848-1.387c1.393-.325 2.708-.488 3.945-.488 2.747 0 4.818.599 6.211 1.797 1.406 1.198 2.109 3.079 2.109 5.644V573h-3.281zm-6.836-3.125c1.667 0 3.001-.462 4.004-1.387 1.016-.937 1.523-2.246 1.523-3.926v-1.874l-2.773.117c-2.162.078-3.737.442-4.727 1.093-.976.638-1.465 1.622-1.465 2.95 0 .963.287 1.712.86 2.246.573.521 1.432.781 2.578.781zm31.035-3.027c0 2.109-.768 3.73-2.305 4.863-1.536 1.12-3.737 1.68-6.601 1.68-2.878 0-5.189-.437-6.934-1.309v-3.965c2.539 1.172 4.903 1.758 7.09 1.758 2.826 0 4.238-.853 4.238-2.559 0-.546-.156-1.002-.468-1.367-.313-.364-.827-.742-1.543-1.133-.716-.39-1.713-.833-2.989-1.328-2.487-.963-4.173-1.927-5.058-2.89-.873-.964-1.309-2.214-1.309-3.75 0-1.849.742-3.282 2.227-4.297 1.497-1.029 3.528-1.543 6.094-1.543 2.539 0 4.941.514 7.207 1.543l-1.485 3.457c-2.331-.964-4.29-1.446-5.879-1.446-2.422 0-3.633.691-3.633 2.071 0 .677.313 1.25.938 1.719.638.468 2.018 1.113 4.141 1.933 1.783.69 3.079 1.322 3.886 1.895.808.573 1.407 1.237 1.797 1.992.391.742.586 1.634.586 2.676zm13.027 2.832c1.12 0 2.24-.176 3.36-.528v3.457c-.508.222-1.166.404-1.973.547a12.84 12.84 0 0 1-2.48.235c-4.349 0-6.524-2.292-6.524-6.875v-11.641h-2.949v-2.031l3.164-1.68 1.563-4.57h2.832v4.804h6.152v3.477h-6.152v11.563c0 1.106.273 1.927.82 2.46.56.521 1.289.782 2.187.782zm28.926-14.805h-5.273V573h-4.61v-18.125h-3.554v-2.148l3.554-1.407v-1.406c0-2.552.599-4.44 1.797-5.664 1.198-1.237 3.028-1.855 5.489-1.855 1.614 0 3.203.266 4.765.8l-1.211 3.477c-1.133-.365-2.213-.547-3.242-.547-1.042 0-1.803.326-2.285.977-.469.638-.703 1.601-.703 2.89v1.406h5.273v3.477zm13.125 18.516c-3.359 0-5.989-.977-7.89-2.93-1.888-1.966-2.832-4.668-2.832-8.106 0-3.528.879-6.302 2.636-8.32 1.758-2.018 4.173-3.027 7.246-3.027 2.852 0 5.105.866 6.758 2.597 1.654 1.732 2.481 4.115 2.481 7.149v2.48h-14.395c.065 2.097.632 3.711 1.699 4.844 1.068 1.12 2.572 1.68 4.512 1.68 1.276 0 2.461-.117 3.555-.352 1.107-.247 2.291-.651 3.554-1.211v3.731a14.098 14.098 0 0 1-3.398 1.133c-1.146.221-2.454.332-3.926.332zm-.84-18.907c-1.458 0-2.63.463-3.515 1.387-.873.925-1.393 2.272-1.563 4.043h9.805c-.026-1.784-.456-3.131-1.289-4.043-.833-.924-1.979-1.387-3.438-1.387zm23.887 18.907c-3.359 0-5.989-.977-7.89-2.93-1.889-1.966-2.833-4.668-2.833-8.106 0-3.528.879-6.302 2.637-8.32 1.758-2.018 4.173-3.027 7.246-3.027 2.852 0 5.104.866 6.758 2.597 1.654 1.732 2.481 4.115 2.481 7.149v2.48h-14.395c.065 2.097.632 3.711 1.699 4.844 1.068 1.12 2.572 1.68 4.512 1.68 1.276 0 2.461-.117 3.555-.352 1.106-.247 2.291-.651 3.554-1.211v3.731a14.098 14.098 0 0 1-3.398 1.133c-1.146.221-2.455.332-3.926.332zm-.84-18.907c-1.458 0-2.63.463-3.515 1.387-.873.925-1.394 2.272-1.563 4.043h9.805c-.026-1.784-.456-3.131-1.289-4.043-.834-.924-1.979-1.387-3.438-1.387zm21.739 18.907c-2.696 0-4.799-.977-6.309-2.93-1.51-1.953-2.266-4.694-2.266-8.223 0-3.541.762-6.295 2.286-8.261 1.536-1.98 3.658-2.969 6.367-2.969 2.838 0 5 1.048 6.484 3.144h.234c-.221-1.549-.332-2.773-.332-3.672v-7.871h4.61V573h-3.594l-.801-2.832h-.215c-1.471 2.148-3.626 3.223-6.464 3.223zm1.23-3.711c1.888 0 3.262-.528 4.121-1.582.86-1.068 1.302-2.793 1.328-5.176v-.645c0-2.721-.442-4.655-1.328-5.8-.885-1.146-2.272-1.719-4.16-1.719-1.615 0-2.858.657-3.73 1.972-.873 1.303-1.309 3.165-1.309 5.586 0 2.396.423 4.226 1.269 5.489.847 1.25 2.116 1.875 3.809 1.875z" fill="#000"/><path d="M587.625 360h-101.25C469.599 360 456 373.599 456 390.375v101.25C456 508.401 469.599 522 486.375 522h101.25C604.401 522 618 508.401 618 491.625v-101.25C618 373.599 604.401 360 587.625 360z" fill="#FFA500"/><path d="M496.5 501.75c11.184 0 20.25-9.066 20.25-20.25s-9.066-20.25-20.25-20.25-20.25 9.066-20.25 20.25 9.066 20.25 20.25 20.25z" fill="#fff"/><path d="M476.25 441A60.75 60.75 0 0 1 537 501.75h20.25a81.003 81.003 0 0 0-81-81V441z" fill="#fff"/><path d="M476.25 400.5a101.26 101.26 0 0 1 71.595 29.655A101.263 101.263 0 0 1 577.5 501.75h20.25a121.496 121.496 0 0 0-35.587-85.913 121.496 121.496 0 0 0-85.913-35.587v20.25z" fill="#fff"/><path d="M620.44 121.88c.4-.4.86-.6 1.38-.6.52 0 .96.2 1.32.6.4.36.6.8.6 1.32v1.92c.64-1.12 1.68-2.1 3.12-2.94 1.48-.84 3.16-1.26 5.04-1.26 4 0 7.08 1.2 9.24 3.6 2.2 2.4 3.3 6 3.3 10.8 0 4.8-1.1 8.42-3.3 10.86-2.16 2.4-5.24 3.6-9.24 3.6-1.88 0-3.54-.4-4.98-1.2-1.4-.84-2.46-1.84-3.18-3v13.56c0 .52-.2.96-.6 1.32-.36.4-.8.6-1.32.6s-.98-.2-1.38-.6c-.36-.36-.54-.8-.54-1.32V123.2c0-.52.18-.96.54-1.32zm5.46 5.22c-1.52 1.8-2.28 4.54-2.28 8.22 0 3.68.76 6.44 2.28 8.28 1.52 1.8 3.52 2.7 6 2.7 5.76 0 8.64-3.66 8.64-10.98 0-7.28-2.92-10.92-8.76-10.92-2.4 0-4.36.9-5.88 2.7zm26.027-2.58c2.2-2.4 5.3-3.6 9.3-3.6 4 0 7.1 1.2 9.3 3.6 2.2 2.4 3.3 6 3.3 10.8 0 4.8-1.1 8.42-3.3 10.86-2.2 2.4-5.3 3.6-9.3 3.6-3.96 0-7.06-1.2-9.3-3.6-2.2-2.44-3.3-6.06-3.3-10.86s1.1-8.4 3.3-10.8zm.6 10.8c0 7.32 2.9 10.98 8.7 10.98 5.8 0 8.7-3.66 8.7-10.98 0-7.28-2.9-10.92-8.7-10.92-5.8 0-8.7 3.64-8.7 10.92zm45.734 2.64v-8.28c-.08-.16-.18-.34-.3-.54-.12-.24-.42-.66-.9-1.26-.44-.64-.94-1.18-1.5-1.62-.56-.48-1.32-.9-2.28-1.26-.92-.4-1.9-.6-2.94-.6-5.64 0-8.46 3.64-8.46 10.92 0 7.32 2.82 10.98 8.46 10.98 2.4 0 4.32-.7 5.76-2.1 1.44-1.4 2.16-3.48 2.16-6.24zm-8.16-17.04c1.8 0 3.42.38 4.86 1.14 1.44.76 2.54 1.68 3.3 2.76V108.2c0-.56.18-1.02.54-1.38.36-.36.82-.54 1.38-.54.56 0 1.02.18 1.38.54.36.36.54.82.54 1.38v29.76c0 3.84-1.08 6.78-3.24 8.82-2.12 2-4.96 3-8.52 3-3.96 0-7-1.2-9.12-3.6-2.12-2.4-3.18-6.02-3.18-10.86 0-9.6 4.02-14.4 12.06-14.4z" fill="#333"/><path d="M711.28 146.18c-2.12-2.4-3.18-6.02-3.18-10.86s1.06-8.44 3.18-10.8c2.16-2.4 5.22-3.6 9.18-3.6 2.32 0 4.26.44 5.82 1.32 1.56.88 2.7 1.82 3.42 2.82.28.4.42.78.42 1.14 0 .52-.18.94-.54 1.26-.32.32-.72.48-1.2.48-.52 0-1-.24-1.44-.72-1.64-1.88-3.8-2.82-6.48-2.82-5.64 0-8.46 3.64-8.46 10.92 0 7.32 2.82 10.98 8.46 10.98 2.32 0 4.64-.86 6.96-2.58.4-.28.78-.42 1.14-.42.48 0 .88.18 1.2.54.36.32.54.72.54 1.2 0 .52-.26 1.02-.78 1.5-2.64 2.16-5.66 3.24-9.06 3.24-3.96 0-7.02-1.2-9.18-3.6zm25.044-24.36c.4-.36.86-.54 1.38-.54.52 0 .96.2 1.32.6.4.36.6.8.6 1.32v15.66c0 2.24.52 4.02 1.56 5.34 1.04 1.28 2.96 1.92 5.76 1.92s4.72-.64 5.76-1.92c1.04-1.32 1.56-3.1 1.56-5.34V123.2c0-.52.18-.96.54-1.32.4-.4.88-.6 1.44-.6.52 0 .96.2 1.32.6.36.36.54.8.54 1.32v15.66c0 3.32-.8 5.98-2.4 7.98-1.6 1.96-4.52 2.94-8.76 2.94s-7.16-.98-8.76-2.94c-1.6-2-2.4-4.66-2.4-7.98V123.2c0-.56.18-1.02.54-1.38zm27.206 13.5c0-4.6 1.08-8.14 3.24-10.62 2.16-2.52 5.2-3.78 9.12-3.78 1.84 0 3.46.28 4.86.84 1.4.56 2.5 1.26 3.3 2.1.84.84 1.5 1.82 1.98 2.94.52 1.08.86 2.1 1.02 3.06.2.92.3 1.84.3 2.76 0 .6-.02 1.06-.06 1.38-.04.32-.12.7-.24 1.14-.12.44-.36.78-.72 1.02-.36.2-.82.3-1.38.3h-17.52c0 3 .8 5.38 2.4 7.14 1.64 1.76 3.86 2.64 6.66 2.64 2.52 0 4.92-.86 7.2-2.58.36-.24.72-.36 1.08-.36.48 0 .88.18 1.2.54.36.32.54.72.54 1.2s-.22.94-.66 1.38c-2.24 2.24-5.36 3.36-9.36 3.36-4.12 0-7.32-1.18-9.6-3.54-2.24-2.4-3.36-6.04-3.36-10.92zm20.04-2.22c0-5.8-2.56-8.7-7.68-8.7-2.56 0-4.56.78-6 2.34-1.44 1.52-2.26 3.64-2.46 6.36h16.14z" fill="#535FD7"/><defs><linearGradient id="b" x1="1018.83" y1="524.057" x2="1017.46" y2="360" gradientUnits="userSpaceOnUse"><stop stop-color="#822CBE"/><stop offset="1" stop-color="#D772FB"/></linearGradient><clipPath id="a"><path fill="#fff" transform="translate(976.019 123.089)" d="M0 0h91.255v64.193H0z"/></clipPath><clipPath id="c"><path fill="#fff" transform="translate(45 362)" d="M0 0h162v162H0z"/></clipPath></defs></svg>